<svg width="191" height="159" viewBox="0 0 191 159" fill="none" xmlns="http://www.w3.org/2000/svg">
<g clip-path="url(#clip0_2_2398)">
<path d="M95.9094 71.4393C95.9094 71.216 95.8869 70.9852 95.8869 70.7544C95.8879 68.1438 96.9302 65.6405 98.7845 63.7949C100.639 61.9493 103.154 60.9125 105.775 60.9125C105.977 60.9125 106.179 60.9125 106.377 60.9311V60.3021C106.179 60.3021 105.977 60.3207 105.775 60.3207C103.153 60.3207 100.638 59.2834 98.7832 57.437C96.9288 55.5906 95.8869 53.0863 95.8869 50.4751C95.8869 50.2443 95.8869 50.0172 95.9094 49.7902H95.0906C95.0906 50.0172 95.1131 50.2443 95.1131 50.4751C95.1081 53.0805 94.0662 55.5777 92.2155 57.4197C90.3648 59.2616 87.8563 60.2981 85.2395 60.3021C85.0339 60.3021 84.8357 60.3021 84.6376 60.2835V60.92C84.8357 60.92 85.0339 60.9014 85.2395 60.9014C87.8614 60.9014 90.3761 61.9382 92.2304 63.7838C94.0848 65.6294 95.127 68.1327 95.128 70.7432C95.128 70.974 95.128 71.2048 95.1056 71.4282L95.9094 71.4393Z" fill="white"/>
<path d="M125.433 74.8192C127.325 72.687 128.983 70.3597 130.379 67.877C130.467 67.7641 130.538 67.6386 130.588 67.5048C132.103 64.7394 133.282 61.8041 134.099 58.761C134.13 58.6765 134.154 58.5893 134.17 58.5004C135.02 55.2377 135.448 51.8803 135.445 48.5097C135.445 48.4017 135.445 48.29 135.445 48.1821C135.445 48.1374 135.445 48.089 135.445 48.0444C135.403 44.3176 134.837 40.615 133.762 37.0448C133.741 36.9382 133.707 36.8345 133.661 36.7359C132.826 34.0244 131.697 31.411 130.297 28.9413C127.222 23.5515 122.932 18.9463 117.765 15.4887C118.624 13.5098 118.884 11.3244 118.515 9.20034C118.145 7.07625 117.161 5.10568 115.683 3.53006C114.205 1.95444 112.298 0.842188 110.195 0.32957C108.092 -0.183049 105.884 -0.0737718 103.843 0.644013C100.048 1.96917 97.1132 7.75742 95.4831 11.7403C95.2177 11.0777 94.9186 10.3705 94.5822 9.64092C92.2792 4.59342 89.808 1.57088 87.2433 0.658902C85.2018 -0.0661368 82.9922 -0.182095 80.8855 0.325254C78.7787 0.832604 76.8665 1.94119 75.3835 3.51502C73.9005 5.08885 72.9111 7.05946 72.5367 9.1851C72.1623 11.3107 72.4193 13.499 73.276 15.4813C68.1042 18.9419 63.8115 23.5524 60.7368 28.9487C59.336 31.4262 58.2079 34.0471 57.3721 36.7657C57.3321 36.8552 57.3021 36.9488 57.2824 37.0448C56.202 40.6292 55.6331 44.347 55.5926 48.089V48.1784C55.5926 48.2938 55.5926 48.4092 55.5926 48.5283C55.5763 51.9021 55.9908 55.2642 56.8263 58.5339C56.8412 58.6124 56.8625 58.6896 56.8898 58.7647C57.7062 61.8151 58.8873 64.757 60.4078 67.5271C60.4545 67.6605 60.5214 67.786 60.606 67.8994C62.0084 70.3738 63.6701 72.6934 65.5633 74.8192C65.6463 74.9491 65.7498 75.0647 65.8699 75.1617C67.6231 77.0907 69.56 78.8459 71.6535 80.4027C71.7619 80.5126 71.8883 80.6032 72.0273 80.6707C73.9917 82.1001 76.0842 83.3461 78.2782 84.3931C78.3773 84.4561 78.4841 84.5062 78.596 84.542C80.6862 85.5183 82.8578 86.3116 85.0862 86.9131C85.1632 86.9394 85.2419 86.9605 85.3217 86.9764C87.5104 87.5496 89.7442 87.9356 91.9988 88.1303H92.0511C93.1727 88.2271 94.3391 88.2792 95.5018 88.2792C96.6645 88.2792 97.816 88.2271 98.9525 88.1303H99.0086C101.257 87.9371 103.485 87.5523 105.667 86.9801C105.766 86.9645 105.862 86.9383 105.955 86.9019C108.171 86.3042 110.33 85.5145 112.408 84.542C112.522 84.5062 112.631 84.4562 112.733 84.3931C114.923 83.3434 117.013 82.0974 118.976 80.6707C119.115 80.5999 119.242 80.5069 119.35 80.3953C121.44 78.8501 123.374 77.1074 125.126 75.1914C125.249 75.0857 125.353 74.9598 125.433 74.8192ZM112.423 81.3854L106.512 73.293C106.86 72.9915 107.196 72.6751 107.518 72.3476L115.978 79.3158C114.832 80.0738 113.645 80.7684 112.423 81.3966V81.3854ZM106.28 83.8645L102.998 75.6121C103.413 75.4073 103.82 75.1877 104.213 74.9495L109.798 82.6026C108.654 83.0865 107.481 83.5109 106.28 83.8757V83.8645ZM100.052 85.1785L99.0124 76.9893C99.4685 76.8925 99.9171 76.7772 100.358 76.6432L103.51 84.5717C102.373 84.8373 101.221 85.0433 100.052 85.1897V85.1785ZM87.4826 84.5978L90.6342 76.6692C91.0754 76.8032 91.524 76.9186 91.9801 77.0154L90.9408 85.2045C89.7768 85.0482 88.6241 84.846 87.4826 84.5978ZM81.1943 82.6138L86.7797 74.9607C87.1723 75.1989 87.5798 75.4185 87.991 75.627L84.7123 83.8757C83.5185 83.5109 82.3483 83.0903 81.2018 82.6138H81.1943ZM75.0145 79.3158L83.4711 72.3476C83.7964 72.6751 84.1328 72.9915 84.4805 73.293L78.5698 81.3966C77.3498 80.7682 76.1654 80.0736 75.0219 79.3158H75.0145ZM64.0044 68.0334L79.2764 65.1411C79.4035 65.5841 79.5456 66.0233 79.7064 66.4551L67.1485 72.3364C65.9982 70.9789 64.9475 69.5409 64.0044 68.0334ZM60.1686 59.8181L78.6596 60.9758C78.6596 61.4374 78.697 61.8989 78.7456 62.3531L62.5164 65.4352C61.5805 63.6301 60.7952 61.7514 60.1686 59.8181ZM75.4631 18.783C76.6523 20.0115 78.1092 20.9514 79.7213 21.5301C80.5879 21.822 81.4984 21.963 82.4131 21.947C83.4089 21.9381 84.4011 21.8271 85.374 21.6157C88.0002 21.0024 90.5476 20.0933 92.9671 18.9058C91.5053 22.5798 89.2285 27.0354 86.8097 28.4127C86.6428 28.5099 86.4677 28.5921 86.2863 28.6584C85.044 29.0998 83.7141 29.241 82.4062 29.0701C81.0984 28.8992 79.8501 28.4213 78.7642 27.6757C77.3647 26.7092 76.2975 25.3377 75.707 23.747C75.1165 22.1564 75.0314 20.4234 75.4631 18.783ZM84.4917 13.0729C87.3181 13.5978 90.4249 14.9602 92.4998 15.9875C90.5071 16.9702 87.5349 18.2805 84.8133 18.8426C83.086 19.2148 81.6616 19.2148 80.7008 18.8649C79.1457 18.3188 77.7894 17.3235 76.8052 16.0061C77.7847 14.687 79.1353 13.687 80.6859 13.1325C81.5981 12.79 82.8729 12.7751 84.4917 13.0729ZM115.339 23.6742C114.596 25.7357 113.062 27.4193 111.073 28.3547C109.084 29.29 106.803 29.4006 104.732 28.6621C104.556 28.5986 104.386 28.5201 104.224 28.4276L104.164 28.3941C101.869 27.0615 99.5619 22.7287 98.0366 18.891C100.912 20.2831 105.114 21.9656 108.609 21.9656C109.498 21.9813 110.383 21.8466 111.226 21.5673C112.867 20.9959 114.349 20.0471 115.552 18.7979C115.979 20.4073 115.904 22.1078 115.339 23.6742ZM128.484 65.4352L112.254 62.3531C112.299 61.8989 112.329 61.4374 112.34 60.9758L130.828 59.8181C130.202 61.7513 129.418 63.63 128.484 65.4352ZM131.635 56.9296L112.157 58.1505C112.09 57.689 112.004 57.2386 111.899 56.7919L132.562 50.0917C132.469 52.3949 132.159 54.6843 131.635 56.9296ZM132.574 47.1287L111.036 54.1006C110.856 53.6763 110.662 53.2594 110.445 52.8536L131.504 39.5462C132.122 42.0302 132.481 44.5712 132.574 47.1287ZM101.05 44.7799L104.463 31.5432C106.204 32.0471 108.043 32.1149 109.817 31.7405L102.34 45.2861C101.917 45.1 101.487 44.9288 101.05 44.7799ZM92.7166 44.0726L89.1537 30.2516C91.1352 28.7068 92.8101 26.0453 94.0924 23.4434V43.9163C93.6139 43.9237 93.154 43.9982 92.7166 44.0726ZM96.9337 23.4024C98.2123 26.0081 99.8909 28.6696 101.88 30.2329L98.3132 44.0726C97.8609 43.9982 97.401 43.9386 96.9337 43.9014V23.4024ZM110.288 18.8947C108.583 19.4902 105.566 18.9766 101.794 17.443C100.594 16.9553 99.4834 16.4305 98.5712 15.954C99.4909 15.4999 100.62 14.975 101.835 14.4911C105.618 13.0022 108.635 12.4885 110.34 13.0953C111.893 13.6587 113.241 14.6726 114.21 16.0061C113.225 17.3404 111.858 18.3472 110.288 18.8947ZM83.4935 31.9713C84.5228 31.9708 85.547 31.8279 86.5367 31.5469L89.9463 44.7761C89.5089 44.9288 89.079 45.1 88.6565 45.2861L81.1794 31.7256C81.9399 31.8887 82.7156 31.971 83.4935 31.9713ZM79.9755 54.1006L58.4227 47.1287C58.5203 44.5707 58.8837 42.0297 59.5069 39.5462L80.57 52.8574C80.3569 53.2594 80.155 53.6763 79.9755 54.1006ZM79.097 56.7919C78.9923 57.2386 78.9063 57.6927 78.839 58.1505L59.3648 56.9296C58.8412 54.6891 58.5283 52.4049 58.4301 50.1065L79.097 56.7919ZM81.5009 60.611C81.5009 57.8539 82.322 55.1587 83.8605 52.8663C85.3989 50.5738 87.5856 48.7871 90.1439 47.732C92.7022 46.6769 95.5174 46.4008 98.2333 46.9387C100.949 47.4766 103.444 48.8042 105.402 50.7538C107.36 52.7034 108.694 55.1873 109.234 57.8914C109.774 60.5955 109.497 63.3985 108.437 65.9457C107.377 68.4929 105.583 70.6701 103.28 72.2019C100.978 73.7336 98.271 74.5512 95.5018 74.5512C91.7898 74.5473 88.2309 73.0773 85.606 70.4639C82.9812 67.8504 81.5048 64.307 81.5009 60.611ZM111.72 65.1411L126.992 68.0408C126.048 69.5458 124.998 70.9813 123.848 72.3364L111.29 66.4551C111.451 66.0159 111.596 65.5766 111.72 65.1411ZM130.663 36.7173L108.901 50.4676C108.62 50.0954 108.329 49.7455 108.019 49.403L127.085 29.1535C127.332 29.548 127.571 29.9463 127.803 30.3521C128.957 32.3787 129.915 34.51 130.663 36.7173ZM125.47 26.7451L105.959 47.46C105.585 47.1733 105.211 46.9016 104.837 46.6485L114.127 29.8235C115.716 28.6668 116.968 27.1114 117.757 25.3157C118.545 23.5201 118.84 21.5485 118.614 19.6019C121.208 21.6694 123.513 24.0716 125.47 26.7451ZM104.785 3.31293C106.205 2.81509 107.735 2.71194 109.21 3.01458C110.685 3.31721 112.049 4.01419 113.156 5.03065C114.263 6.04711 115.071 7.34464 115.493 8.78386C115.915 10.2231 115.935 11.7496 115.552 13.1995C114.365 11.9678 112.908 11.0274 111.294 10.4524C107.503 9.09746 101.659 11.3346 98.0104 13.0766C99.689 8.93368 102.295 4.18396 104.785 3.31293ZM75.6762 8.3046C76.0438 7.28385 76.6098 6.34521 77.3418 5.54227C78.0738 4.73934 78.9575 4.08784 79.9424 3.625C80.9273 3.16215 81.9942 2.89703 83.082 2.84476C84.1699 2.79249 85.2574 2.95411 86.2825 3.32038C88.0471 3.94946 90.0772 6.61093 91.9951 10.8135C92.3689 11.61 92.6792 12.3731 92.9596 13.0729C90.7613 12.0344 87.7779 10.8097 85.0002 10.2923C82.8916 9.89777 81.1195 9.9536 79.7251 10.4524C78.1114 11.0301 76.6531 11.9701 75.4631 13.1995C75.0341 11.5841 75.1084 9.87699 75.6762 8.3046ZM72.4274 19.5945C72.1973 21.5343 72.4866 23.5002 73.2659 25.2927C74.0453 27.0853 75.287 28.6407 76.8651 29.8011L86.1704 46.6559C85.7965 46.909 85.4226 47.1808 85.0488 47.4674L65.8549 27.1136C65.748 26.9972 65.6215 26.9002 65.4811 26.827C67.4597 24.1164 69.7961 21.6837 72.4274 19.5945ZM63.1819 30.3446C63.4099 29.9463 63.6455 29.5555 63.8847 29.1684L82.9963 49.403C82.686 49.7455 82.3907 50.1028 82.1103 50.4676L60.3518 36.7173C61.0883 34.5078 62.036 32.3738 63.1819 30.3446ZM69.1636 74.5177L80.9251 69.0049C81.1569 69.4032 81.4074 69.7903 81.6729 70.17L72.6479 77.6147C71.4222 76.6563 70.2585 75.622 69.1636 74.5177ZM93.7896 85.4279L94.8102 77.369C95.042 77.369 95.27 77.369 95.5018 77.369C95.7336 77.369 95.9654 77.369 96.1972 77.369L97.2029 85.4242C96.6346 85.4502 96.0813 85.4651 95.4869 85.4651C94.8925 85.4651 94.3541 85.4502 93.7858 85.4279H93.7896ZM118.363 77.611L109.335 70.1663C109.6 69.794 109.85 69.3995 110.082 69.0012L121.844 74.514C120.747 75.6139 119.583 76.6457 118.359 77.6035L118.363 77.611Z" fill="white"/>
<path d="M13.9224 145.596V103.973H12.5317L5.58882e-07 112.288V145.979C-0.000490659 147.616 0.322832 149.236 0.951496 150.748C1.58016 152.259 2.50184 153.633 3.66388 154.79C4.82592 155.947 6.20554 156.865 7.72391 157.491C9.24228 158.117 10.8696 158.439 12.513 158.438L34.0435 158.553V157.381L25.6466 157.262C24.1073 157.263 22.5829 156.962 21.1605 156.376C19.7381 155.79 18.4456 154.931 17.3568 153.848C16.268 152.764 15.4043 151.478 14.815 150.062C14.2258 148.646 13.9224 147.129 13.9224 145.596Z" fill="white"/>
<path d="M178.487 104.531L165.335 104.479L152.182 104.531C148.864 104.531 145.681 105.844 143.334 108.18C140.988 110.517 139.669 113.685 139.669 116.99V146.486C139.669 148.122 139.992 149.742 140.621 151.254C141.25 152.766 142.171 154.139 143.333 155.296C144.495 156.453 145.875 157.371 147.393 157.997C148.912 158.623 150.539 158.945 152.182 158.944L165.335 159L178.487 158.944C180.13 158.944 181.757 158.622 183.276 157.996C184.794 157.37 186.173 156.452 187.335 155.295C188.497 154.138 189.419 152.765 190.047 151.253C190.676 149.742 191 148.122 191 146.486V116.99C190.999 113.686 189.68 110.517 187.334 108.181C184.987 105.845 181.805 104.532 178.487 104.531ZM165.335 105.689C171.806 105.689 177.074 111.227 177.074 117.671V146.102C177.073 149.196 175.838 152.164 173.64 154.351C171.442 156.539 168.461 157.768 165.353 157.768H165.312C162.204 157.768 159.224 156.539 157.026 154.351C154.828 152.164 153.593 149.196 153.592 146.102V117.671C153.592 111.227 158.859 105.689 165.335 105.689Z" fill="white"/>
<path d="M64.4194 104.46L47.8089 104.531C44.4906 104.532 41.3084 105.845 38.962 108.181C36.6155 110.517 35.2969 113.686 35.2959 116.99V150.684L47.8276 159H49.2221V135.899H73.1976V159H74.3752V114.332C74.3752 113.032 74.1174 111.745 73.6166 110.545C73.1158 109.344 72.3818 108.254 71.4567 107.337C70.5317 106.42 69.4339 105.694 68.2262 105.2C67.0186 104.706 65.7249 104.455 64.4194 104.46ZM73.1976 134.727H49.2221V117.373C49.2241 114.28 50.4594 111.315 52.6565 109.129C54.8536 106.943 57.8326 105.715 60.9388 105.715L63.1819 105.696C64.4908 105.685 65.7891 105.932 67.0017 106.422C68.2143 106.913 69.3173 107.638 70.247 108.556C71.1767 109.473 71.9148 110.565 72.4187 111.768C72.9225 112.97 73.1822 114.261 73.1826 115.564L73.1976 134.727Z" fill="white"/>
<path d="M104.003 146.534L133.43 106.4V104.479H77.725V105.644H102.687C104.006 105.642 105.299 106.004 106.423 106.688C107.548 107.373 108.46 108.355 109.059 109.524C109.658 110.693 109.92 112.005 109.816 113.314C109.712 114.622 109.247 115.876 108.471 116.938L79.1419 156.942V159H134.847V157.828H109.798C108.479 157.832 107.184 157.471 106.058 156.787C104.932 156.103 104.018 155.122 103.418 153.952C102.818 152.783 102.555 151.47 102.658 150.161C102.761 148.851 103.227 147.596 104.003 146.534Z" fill="white"/>
</g>
<defs>
<clipPath id="clip0_2_2398">
<rect width="191" height="159" fill="white"/>
</clipPath>
</defs>
</svg>
