<svg width="7" height="20" viewBox="0 0 7 20" fill="none" xmlns="http://www.w3.org/2000/svg">
<g id="Group 53891">
<g id="Group 53888">
<path id="Path 30927" d="M3.245 1C2.80102 1 2.36702 1.13164 1.99785 1.37828C1.62868 1.62492 1.34094 1.97548 1.17099 2.38564C1.00104 2.7958 0.956522 3.24715 1.04306 3.68261C1.12961 4.11807 1.34332 4.51809 1.65719 4.8321C1.97106 5.14611 2.37099 5.36 2.80641 5.44674C3.24183 5.53348 3.69319 5.48916 4.10343 5.3194C4.51367 5.14963 4.86436 4.86204 5.11116 4.49298C5.35797 4.12392 5.4898 3.68998 5.49 3.246C5.49 2.6505 5.25351 2.07937 4.83252 1.65819C4.41153 1.23701 3.8405 1.00027 3.245 1Z" fill="#E21B33" stroke="#E21B33" stroke-width="1.2"/>
</g>
<g id="Group 53889">
<path id="Path 30928" d="M3.245 7.75586C2.80098 7.75586 2.36693 7.88753 1.99775 8.13422C1.62856 8.3809 1.34081 8.73152 1.17089 9.14174C1.00097 9.55196 0.956514 10.0034 1.04314 10.4388C1.12976 10.8743 1.34358 11.2743 1.65755 11.5883C1.97152 11.9023 2.37154 12.1161 2.80702 12.2027C3.24251 12.2894 3.69391 12.2449 4.10413 12.075C4.51435 11.905 4.86497 11.6173 5.11165 11.2481C5.35833 10.8789 5.49 10.4449 5.49 10.0009C5.49 9.40544 5.25347 8.83443 4.83246 8.41341C4.41144 7.99239 3.84041 7.75586 3.245 7.75586Z" fill="#E21B33" stroke="#E21B33" stroke-width="1.2"/>
</g>
<g id="Group 53890">
<path id="Path 30929" d="M3.245 14.5098C2.80098 14.5098 2.36693 14.6414 1.99775 14.8881C1.62856 15.1348 1.34081 15.4854 1.17089 15.8957C1.00097 16.3059 0.956514 16.7573 1.04314 17.1927C1.12976 17.6282 1.34358 18.0283 1.65755 18.3422C1.97152 18.6562 2.37154 18.87 2.80702 18.9566C3.24251 19.0433 3.69391 18.9988 4.10413 18.8289C4.51435 18.659 4.86497 18.3712 5.11165 18.002C5.35833 17.6328 5.49 17.1988 5.49 16.7548C5.48974 16.1594 5.25312 15.5886 4.83216 15.1676C4.4112 14.7466 3.84033 14.51 3.245 14.5098Z" fill="#E21B33" stroke="#E21B33" stroke-width="1.2"/>
</g>
</g>
</svg>
