<svg width="114" height="95" viewBox="0 0 114 95" fill="none" xmlns="http://www.w3.org/2000/svg">
<g opacity="0.8">
<g opacity="0.8">
<path fill-rule="evenodd" clip-rule="evenodd" d="M1.3324 77.5212C1.77493 77.3637 2.24018 77.1543 2.59925 76.8506C3.02566 76.4903 3.1992 76.0262 3.31572 75.5379C3.4653 74.9102 3.5248 74.2421 3.70619 73.6132C3.77313 73.3797 3.90246 73.2917 3.95782 73.2525C4.0979 73.1537 4.23962 73.1273 4.37309 73.1372C4.53093 73.1484 4.74785 73.2083 4.8904 73.4731C4.91065 73.5107 4.93709 73.5686 4.95486 73.6475C4.96808 73.7057 4.97635 73.8867 4.98998 73.9615C5.02428 74.1458 5.0532 74.3297 5.08006 74.5148C5.16972 75.1313 5.22137 75.6544 5.50482 76.2205C5.8895 76.989 6.27501 77.4588 6.79812 77.667C7.30345 77.8687 7.90795 77.8307 8.68021 77.6728C8.75335 77.6551 8.82607 77.6398 8.89838 77.6274C9.23885 77.5679 9.56403 77.7914 9.63097 78.1306C9.69791 78.4695 9.48139 78.7996 9.14423 78.8744C9.07357 78.8897 9.00416 78.9045 8.93557 78.9178C7.89225 79.1764 6.68407 80.0983 5.98206 80.9056C5.76555 81.1544 5.44863 81.8506 5.12551 82.2944C4.8871 82.622 4.61893 82.8377 4.39416 82.9142C4.24334 82.9654 4.11608 82.9576 4.01113 82.9315C3.85866 82.8939 3.73181 82.8113 3.63471 82.6799C3.58182 82.608 3.53265 82.5117 3.50951 82.3886C3.49835 82.3291 3.49711 82.1787 3.49711 82.1105C3.43142 81.8841 3.35084 81.663 3.29176 81.4341C3.15168 80.8887 2.87691 80.5437 2.55008 80.0875C2.24473 79.6603 1.91665 79.3921 1.43569 79.1781C1.3733 79.1628 0.868379 79.0393 0.690293 78.9682C0.429981 78.8645 0.306022 78.6901 0.260984 78.5963C0.184543 78.4372 0.176693 78.298 0.191981 78.1823C0.214707 78.0108 0.29156 77.8645 0.427501 77.7464C0.511792 77.6728 0.637816 77.6013 0.806812 77.5666C0.937794 77.5394 1.28364 77.5237 1.3324 77.5212ZM4.29334 76.6324C4.31689 76.6845 4.34168 76.7369 4.36813 76.7898C4.93172 77.915 5.56184 78.5434 6.32749 78.8484L6.35311 78.8583C5.84075 79.2384 5.37714 79.6636 5.02262 80.0714C4.87677 80.2392 4.68339 80.5879 4.47473 80.9453C4.28507 80.3288 3.97477 79.8929 3.58471 79.3475C3.2868 78.931 2.97442 78.6178 2.59057 78.3624C2.88848 78.21 3.17235 78.0306 3.41985 77.822C3.8318 77.4737 4.1041 77.0704 4.29334 76.6324Z" fill="#417BA4"/>
<path d="M12.5807 4.95832C13.9499 4.95832 15.0599 3.84836 15.0599 2.47916C15.0599 1.10996 13.9499 0 12.5807 0C11.2115 0 10.1016 1.10996 10.1016 2.47916C10.1016 3.84836 11.2115 4.95832 12.5807 4.95832Z" fill="#417BA4"/>
<path d="M111.335 56.6077C112.704 56.6077 113.814 55.4978 113.814 54.1286C113.814 52.7594 112.704 51.6494 111.335 51.6494C109.965 51.6494 108.855 52.7594 108.855 54.1286C108.855 55.4978 109.965 56.6077 111.335 56.6077Z" fill="#417BA4"/>
<path d="M53.4869 94.2081C79.5015 94.2081 100.591 73.1187 100.591 47.104C100.591 21.0894 79.5015 0 53.4869 0C27.4722 0 6.38281 21.0894 6.38281 47.104C6.38281 73.1187 27.4722 94.2081 53.4869 94.2081Z" fill="url(#paint0_linear_10214_24440)"/>
</g>
<path d="M86.7836 3H27.773C22.3755 3 18 7.37553 18 12.773V89.4179C18 90.1448 18.7649 90.6175 19.4151 90.2925L47.068 76.466C47.3433 76.3284 47.6673 76.3284 47.9426 76.466L75.5955 90.2925C76.2456 90.6175 77.0106 90.1448 77.0106 89.4179V12.773C77.0106 7.37553 81.3861 3 86.7836 3ZM86.7836 3C92.1811 3 96.5566 7.37553 96.5566 12.773V46.8851C96.5566 47.4251 96.1189 47.8629 95.5789 47.8629H77.0106" stroke="#DDACAA" stroke-width="5.58459" stroke-miterlimit="10"/>
</g>
<defs>
<linearGradient id="paint0_linear_10214_24440" x1="53.1225" y1="-15.3382" x2="54.0877" y2="150.084" gradientUnits="userSpaceOnUse">
<stop stop-color="#F2F2F2"/>
<stop offset="1" stop-color="#EFEFEF"/>
</linearGradient>
</defs>
</svg>
