<svg width="301" height="300" viewBox="0 0 301 300" fill="none" xmlns="http://www.w3.org/2000/svg">
<path d="M248.492 148.686C194.012 117.228 105.968 117.228 51.836 148.686C-2.29598 180.144 -2.00199 231.144 52.478 262.596C106.958 294.048 195.008 294.054 249.134 262.596C303.26 231.138 302.978 180.144 248.492 148.686Z" fill="#F5F5F5"/>
<path d="M268.166 204C272.186 201.684 278.678 201.684 282.674 204C286.67 206.316 286.646 210.078 282.626 212.4C278.606 214.722 272.114 214.722 268.118 212.4C264.122 210.078 264.146 206.334 268.166 204Z" fill="#E0E0E0"/>
<path d="M153.872 207.39L146.438 197.286C145.688 196.266 144.727 195.419 143.62 194.804C142.513 194.189 141.287 193.82 140.024 193.722L129.068 192.882L111.668 182.304L118.178 178.542C118.264 178.488 118.334 178.413 118.383 178.324C118.432 178.236 118.457 178.136 118.457 178.035C118.457 177.934 118.432 177.834 118.383 177.746C118.334 177.657 118.264 177.582 118.178 177.528L115.472 175.986C114.939 175.681 114.335 175.52 113.72 175.52C113.105 175.52 112.502 175.681 111.968 175.986L48.158 212.88C48.0725 212.934 48.0021 213.009 47.9533 213.098C47.9045 213.186 47.8789 213.286 47.8789 213.387C47.8789 213.488 47.9045 213.588 47.9533 213.676C48.0021 213.765 48.0725 213.84 48.158 213.894L50.798 215.418C51.3333 215.728 51.9407 215.891 52.559 215.891C53.1774 215.891 53.7848 215.728 54.32 215.418L82.016 199.422L99.182 209.268L101.426 215.586C102.117 217.525 103.391 219.204 105.073 220.391C106.755 221.578 108.763 222.215 110.822 222.216H126.842L137.714 228.492L163.982 213.222L153.872 207.39Z" fill="#E0E0E0"/>
<path d="M251.612 198.066C234.248 188.046 206.186 188.046 188.936 198.066C173.69 206.922 171.998 220.638 183.788 230.634C174.272 230.034 164.42 231.834 157.154 236.076C144.404 243.486 144.47 255.498 157.304 262.908C170.138 270.318 190.904 270.312 203.624 262.908C213.764 257.01 215.786 248.202 209.732 241.116C224.348 243.234 240.434 240.984 251.822 234.372C269.072 224.352 268.982 208.098 251.612 198.066Z" fill="#E0E0E0"/>
<path d="M50.0481 225.738C45.4761 223.098 38.0841 223.098 33.5421 225.738C29.0001 228.378 29.0241 232.662 33.5961 235.302C38.1681 237.942 45.5601 237.942 50.1021 235.302C54.6441 232.662 54.6261 228.378 50.0481 225.738Z" fill="#E0E0E0"/>
<path d="M94.5619 19.164L97.7719 17.328L97.9699 87.492L97.9639 87.498L72.0919 102.27L72.0799 98.598L71.8879 32.106L94.5619 19.164Z" fill="#F0F0F0"/>
<path opacity="0.1" d="M94.754 85.65L94.562 19.164L97.772 17.328L97.97 87.492L97.964 87.498L94.742 85.656L94.754 85.65Z" fill="black"/>
<path opacity="0.2" d="M72.0801 98.598L94.7421 85.656L97.9641 87.498L72.0921 102.27L72.0801 98.598Z" fill="black"/>
<path d="M59.1561 39.378L62.3661 37.542L62.5641 107.706L62.5581 107.712L36.6861 122.484L36.6741 118.812L36.4821 52.32L59.1561 39.378Z" fill="#F0F0F0"/>
<path opacity="0.1" d="M59.348 105.864L59.156 39.378L62.366 37.542L62.564 107.706L62.558 107.712L59.336 105.87L59.348 105.864Z" fill="black"/>
<path opacity="0.2" d="M36.6741 118.812L59.3361 105.87L62.5581 107.712L36.6861 122.484L36.6741 118.812Z" fill="black"/>
<path d="M169.37 58.542C169.172 58.332 168.98 58.116 168.77 57.894L168.644 57.75C168.326 57.384 168.044 57.012 167.72 56.628L167.624 56.502C167.384 56.196 167.156 55.902 166.928 55.56L166.826 55.422C166.61 55.11 166.4 54.822 166.196 54.474C166.142 54.396 166.094 54.318 166.046 54.24C165.878 53.976 165.716 53.712 165.56 53.442C165.522 53.3881 165.488 53.332 165.458 53.274C165.278 52.968 165.104 52.674 164.936 52.344L164.816 52.104C164.684 51.858 164.558 51.606 164.432 51.354L164.312 51.102C164.156 50.784 164.012 50.466 163.868 50.142L163.814 50.004C163.688 49.71 163.568 49.404 163.454 49.128L163.352 48.864C163.22 48.516 163.094 48.168 162.98 47.82C162.98 47.82 162.98 47.766 162.95 47.736C162.83 47.376 162.722 47.016 162.62 46.656L162.566 46.452C162.446 46.032 162.344 45.612 162.254 45.198C162.254 45.102 162.218 45.012 162.194 44.922L162.104 44.43C162.104 44.328 162.062 44.226 162.05 44.118C162.05 43.95 161.996 43.782 161.972 43.614C161.948 43.446 161.942 43.416 161.93 43.314C161.882 42.954 161.852 42.594 161.822 42.24C161.822 42.162 161.822 42.084 161.822 42.012C161.822 41.646 161.786 41.28 161.786 40.92C161.786 40.674 161.786 40.428 161.786 40.194V39.924C161.786 39.78 161.786 39.63 161.822 39.492C161.858 39.354 161.822 39.312 161.852 39.222C161.882 39.132 161.852 38.946 161.9 38.814C161.948 38.682 161.936 38.628 161.948 38.538C161.96 38.448 161.99 38.292 162.014 38.172C162.038 38.052 162.056 37.986 162.074 37.89C162.092 37.794 162.128 37.668 162.152 37.554C162.176 37.44 162.206 37.374 162.23 37.284C162.254 37.194 162.29 37.074 162.326 36.972L162.416 36.708C162.452 36.612 162.482 36.51 162.524 36.414C162.566 36.318 162.596 36.252 162.626 36.168C162.656 36.084 162.704 35.982 162.746 35.892C162.788 35.802 162.824 35.736 162.866 35.658C162.908 35.58 162.95 35.484 162.998 35.4L163.13 35.184L163.274 34.938L163.418 34.734C163.472 34.662 163.52 34.584 163.58 34.512C163.64 34.44 163.682 34.386 163.736 34.32C163.79 34.254 163.844 34.182 163.904 34.116C163.964 34.05 164.018 33.996 164.072 33.936L164.252 33.75L164.432 33.588L164.624 33.42L164.816 33.276L165.02 33.126L165.218 32.994C165.835 32.6082 166.516 32.3341 167.228 32.184C165.878 33.702 165.086 36.012 165.074 38.988C165.074 39.348 165.074 39.714 165.11 40.08C165.11 40.158 165.11 40.23 165.11 40.308C165.11 40.662 165.17 41.022 165.218 41.382C165.218 41.484 165.248 41.586 165.26 41.682C165.272 41.778 165.308 42.018 165.338 42.186C165.368 42.354 165.374 42.414 165.398 42.528L165.488 43.02C165.488 43.11 165.53 43.2 165.548 43.296C165.638 43.71 165.74 44.13 165.854 44.55C165.877 44.6189 165.897 44.689 165.914 44.76C166.016 45.114 166.124 45.474 166.244 45.834C166.244 45.834 166.244 45.894 166.274 45.918C166.388 46.272 166.514 46.62 166.646 46.962C166.682 47.052 166.712 47.142 166.748 47.226C166.862 47.52 166.982 47.826 167.108 48.102L167.162 48.24C167.306 48.564 167.45 48.882 167.606 49.2C167.642 49.284 167.684 49.368 167.726 49.452C167.852 49.704 167.978 49.956 168.11 50.208L168.23 50.442C168.398 50.754 168.572 51.042 168.752 51.372C168.782 51.432 168.818 51.486 168.854 51.546C169.01 51.81 169.172 52.08 169.34 52.344L169.484 52.572C169.694 52.89 169.904 53.208 170.12 53.52L170.222 53.658C170.45 53.982 170.678 54.294 170.918 54.606L171.014 54.732C171.314 55.116 171.614 55.488 171.938 55.854L172.058 55.998L172.658 56.652L172.694 56.688C172.904 56.91 173.12 57.132 173.336 57.342C173.378 57.39 173.426 57.432 173.474 57.48C173.756 57.75 174.038 58.02 174.332 58.278L174.41 58.35C174.71 58.614 175.01 58.86 175.322 59.106L175.502 59.244C175.802 59.478 176.102 59.7 176.426 59.916L176.588 60.024C176.918 60.24 177.248 60.45 177.578 60.624C177.908 60.798 178.112 60.918 178.376 61.056L178.598 61.164L179.198 61.44L179.408 61.53L179.96 61.74L180.098 61.788C180.326 61.866 180.554 61.938 180.776 61.998L181.172 62.094L181.352 62.142C181.544 62.184 181.73 62.214 181.916 62.244C182.194 62.2892 182.474 62.3172 182.756 62.328H182.924C183.17 62.328 183.41 62.328 183.65 62.328H183.77C183.961 62.3155 184.151 62.2935 184.34 62.262H184.514L184.694 62.22C184.249 62.7262 183.724 63.156 183.14 63.492L183.08 63.522H183.038C182.888 63.606 182.732 63.678 182.576 63.75L182.414 63.816C182.25 63.884 182.082 63.944 181.91 63.996H181.82C181.622 64.05 181.418 64.098 181.22 64.134H181.058C180.872 64.134 180.692 64.182 180.5 64.2H180.356C180.122 64.2 179.882 64.2 179.642 64.2H179.486H179.09L178.634 64.146L178.346 64.092L178.07 64.038L177.902 63.996H177.854L177.5 63.912C177.278 63.846 177.056 63.78 176.834 63.702L176.696 63.654L176.138 63.444L175.94 63.36C175.74 63.276 175.54 63.186 175.34 63.09L175.208 63.024C175.174 63.0116 175.142 62.9955 175.112 62.976C174.848 62.844 174.584 62.706 174.314 62.55C174.044 62.394 173.654 62.148 173.33 61.95H173.282L173.162 61.872C172.85 61.656 172.562 61.434 172.238 61.2L172.124 61.11L172.058 61.062C171.752 60.816 171.458 60.564 171.146 60.306C171.128 60.2915 171.112 60.2754 171.098 60.258H171.068C170.774 60.006 170.468 59.736 170.21 59.466L170.072 59.328C169.856 59.118 169.64 58.896 169.43 58.674L169.37 58.542Z" fill="#EBEBEB"/>
<path d="M184.52 51.6959V52.4699L186.698 53.7239V52.9499L184.52 51.6959Z" fill="white"/>
<path d="M166.91 35.424L166.574 35.8919L168.458 38.2379L168.794 37.7639L166.91 35.424Z" fill="white"/>
<path d="M188.54 54.4019C188.54 62.3639 182.882 65.5739 175.94 61.6019C168.998 57.6299 163.43 47.8799 163.448 39.9179C163.466 31.9559 169.106 28.7459 176.048 32.7179C182.99 36.6899 188.564 46.4399 188.54 54.4019ZM170.3 46.7159C170.353 46.8844 170.463 47.0289 170.612 47.1239C170.652 47.1487 170.697 47.1631 170.744 47.1659L176.072 47.5859C176.109 47.5967 176.149 47.5948 176.184 47.5807C176.22 47.5666 176.25 47.541 176.27 47.5079L179.756 41.5979C179.788 41.4937 179.791 41.3828 179.764 41.2771C179.738 41.1714 179.683 41.0749 179.606 40.9979C179.563 40.948 179.513 40.9054 179.456 40.8719C179.336 40.8059 179.216 40.8119 179.156 40.9139L175.73 46.7279L170.48 46.3139C170.312 46.3139 170.228 46.4819 170.3 46.7219M180.548 41.5019L181.64 39.9659L181.04 39.2459L179.99 40.7999L180.59 41.5199M181.04 60.9479L181.64 60.8999L180.5 58.0799L179.9 58.1279L180.98 60.9239M166.874 48.3899L168.764 48.2279L168.434 47.3639L166.538 47.5259L166.874 48.3899ZM185.078 58.9019L185.414 58.4279L183.53 56.0819L183.194 56.5559L185.078 58.9019ZM166.91 35.3999L166.574 35.8679L168.458 38.2139L168.794 37.7399L166.91 35.3999ZM183.56 46.9559L185.45 46.7939L185.114 45.9359L183.224 46.0919L183.56 46.9559ZM170.96 33.3959L170.36 33.4439L171.44 36.2399L172.04 36.1919L170.954 33.3959M170.9 55.0799L171.998 53.5379L171.398 52.8239L170.3 54.3599L170.9 55.0799ZM167.468 42.5999V41.8499L165.29 40.5959V41.3639L167.468 42.6239M186.698 52.9559L184.52 51.6959V52.4699L186.698 53.7239V52.9559ZM175.628 59.2679L176.294 59.6519V57.1499L175.628 56.7599V59.2679ZM176.366 35.0519L175.7 34.6679V37.1999L176.366 37.5899V35.0819" fill="#E0E0E0"/>
<path d="M175.694 34.668L175.688 37.17L176.354 37.56L176.366 35.052L175.694 34.668Z" fill="white"/>
<path d="M181.088 39.24L179.99 40.776L180.572 41.496L181.664 39.96L181.088 39.24Z" fill="white"/>
<path d="M185.114 45.9359L183.224 46.0919L183.56 46.9559L185.45 46.7939L185.114 45.9359Z" fill="white"/>
<path d="M183.53 56.082L183.194 56.556L185.078 58.902L185.414 58.428L183.53 56.082Z" fill="white"/>
<path d="M180.524 58.08L179.942 58.128L181.022 60.924L181.604 60.876L180.524 58.08Z" fill="white"/>
<path d="M175.634 56.76L175.628 59.268L176.294 59.652L176.3 57.15L175.634 56.76Z" fill="white"/>
<path d="M171.422 52.824L170.324 54.36L170.9 55.08L171.998 53.538L171.422 52.824Z" fill="white"/>
<path d="M168.428 47.364L166.538 47.526L166.874 48.39L168.764 48.228L168.428 47.364Z" fill="white"/>
<path d="M165.29 40.5959V41.3639L167.468 42.6239V41.8499L165.29 40.5959Z" fill="white"/>
<path d="M170.96 33.396L170.384 33.444L171.464 36.24L172.046 36.192L170.96 33.396Z" fill="white"/>
<path d="M175.994 46.8C175.954 46.7752 175.909 46.7608 175.862 46.758H175.754L170.504 46.344C170.336 46.344 170.252 46.512 170.324 46.752C170.377 46.9205 170.487 47.065 170.636 47.16C170.676 47.1848 170.721 47.1992 170.768 47.202L176.096 47.622C176.264 47.622 176.342 47.46 176.27 47.22C176.231 47.0514 176.133 46.9023 175.994 46.8Z" fill="white"/>
<path d="M179.48 40.8659C179.36 40.7999 179.24 40.8059 179.18 40.9079L175.754 46.7219H175.862C175.909 46.7247 175.954 46.7392 175.994 46.7639C176.142 46.858 176.251 47.0031 176.3 47.1719C176.372 47.4119 176.3 47.5919 176.126 47.5739C176.163 47.5847 176.202 47.5828 176.238 47.5687C176.274 47.5546 176.304 47.529 176.324 47.4959L179.81 41.5859C179.842 41.4817 179.845 41.3708 179.818 41.2651C179.792 41.1594 179.737 41.0629 179.66 40.9859C179.608 40.9353 179.547 40.8947 179.48 40.8659Z" fill="#F5F5F5"/>
<path d="M184.586 64.2L184.784 64.044C184.858 63.9869 184.928 63.9247 184.994 63.858C185.06 63.804 185.126 63.75 185.186 63.69L185.384 63.486L185.564 63.294C185.631 63.224 185.693 63.1498 185.75 63.072C185.804 63.006 185.864 62.94 185.918 62.868C185.972 62.796 186.032 62.706 186.086 62.628C186.14 62.55 186.194 62.484 186.242 62.406C186.29 62.328 186.35 62.232 186.398 62.142C186.446 62.052 186.5 61.986 186.542 61.908C186.584 61.83 186.638 61.722 186.686 61.626L186.818 61.374L186.944 61.074C186.98 60.984 187.022 60.9 187.058 60.81C187.094 60.72 187.136 60.594 187.172 60.486C187.208 60.378 187.244 60.3 187.274 60.21C187.304 60.12 187.34 59.982 187.37 59.868C187.4 59.754 187.43 59.676 187.454 59.574C187.478 59.472 187.514 59.34 187.538 59.22L187.61 58.908C187.61 58.782 187.652 58.65 187.676 58.524L187.73 58.212L187.784 57.768L187.82 57.486L187.856 56.976V56.73C187.856 56.474 187.856 56.21 187.856 55.938C187.856 55.548 187.856 55.158 187.82 54.738C187.817 54.712 187.817 54.6859 187.82 54.66C187.79 54.222 187.754 53.778 187.694 53.328V53.178L187.586 52.452C187.586 52.332 187.544 52.212 187.52 52.086C187.484 51.912 187.454 51.732 187.418 51.552V51.468C187.207 50.4654 186.938 49.4758 186.614 48.504C186.181 47.1963 185.659 45.9194 185.054 44.682L185.018 44.604C184.67 43.902 184.304 43.206 183.908 42.528L183.8 42.342C183.62 42.036 183.434 41.742 183.248 41.442L183.116 41.232C182.6 40.434 182.06 39.666 181.484 38.928C180.92 38.204 180.32 37.51 179.684 36.846C179.45 36.594 179.21 36.354 178.97 36.108L178.85 36C178.538 35.688 178.22 35.4 177.89 35.1H177.854C177.518 34.8 177.17 34.5 176.822 34.236L176.636 34.086C176.306 33.834 175.976 33.594 175.634 33.366L175.598 33.336C175.382 33.192 175.166 33.048 174.95 32.916C174.734 32.784 174.578 32.682 174.386 32.574C174.098 32.406 173.786 32.256 173.528 32.112C172.709 31.6934 171.851 31.3558 170.966 31.104L170.732 31.044L170.36 30.954L170.102 30.906L169.754 30.846H169.724H169.472L169.028 30.798H168.992H168.854C168.532 30.78 168.21 30.78 167.888 30.798H167.75C167.546 30.798 167.342 30.834 167.15 30.864C166.866 30.9048 166.586 30.965 166.31 31.044H166.262H166.208C166.022 31.104 165.842 31.17 165.662 31.242L165.578 31.278C165.332 31.386 165.086 31.5 164.852 31.632L168.176 29.7L168.248 29.658L168.338 29.61C168.5 29.526 168.668 29.442 168.836 29.37C168.867 29.3516 168.899 29.3355 168.932 29.322H169.01C169.21 29.242 169.41 29.17 169.61 29.106C169.833 29.042 170.059 28.9899 170.288 28.95H170.366H170.474C170.673 28.9146 170.873 28.8906 171.074 28.878H171.176H171.206C171.468 28.8629 171.73 28.8629 171.992 28.878H172.07H172.328H172.508C172.688 28.878 172.874 28.914 173.06 28.944L173.66 29.058L173.852 29.106L174.242 29.202H174.278C174.518 29.268 174.764 29.34 175.01 29.424L175.16 29.484C175.358 29.55 175.556 29.628 175.76 29.712L175.844 29.742L175.994 29.808C176.204 29.898 176.42 30 176.636 30.102L176.882 30.222C177.164 30.366 177.482 30.516 177.74 30.684C177.998 30.852 178.454 31.116 178.808 31.356L178.988 31.476C179.324 31.704 179.66 31.944 179.99 32.196L180.176 32.346C180.512 32.61 180.842 32.88 181.166 33.168C181.197 33.1908 181.225 33.2169 181.25 33.246C181.568 33.522 181.85 33.81 182.18 34.11L182.27 34.194L182.33 34.254C182.564 34.482 182.792 34.716 183.02 34.962L183.056 34.998C183.272 35.232 183.482 35.466 183.692 35.706L183.752 35.772L183.824 35.862C184.166 36.258 184.502 36.66 184.826 37.062V37.098C184.852 37.1285 184.876 37.1606 184.898 37.194C185.158 37.53 185.41 37.872 185.654 38.22L185.732 38.322C185.744 38.3386 185.754 38.3568 185.762 38.376C186.002 38.706 186.23 39.048 186.452 39.396C186.471 39.4302 186.493 39.4624 186.518 39.492L186.608 39.648C186.788 39.93 186.962 40.248 187.136 40.506L187.214 40.638C187.216 40.6559 187.216 40.674 187.214 40.692C187.412 41.028 187.598 41.364 187.778 41.7L187.82 41.784L187.91 41.952L188.324 42.768C188.324 42.822 188.378 42.882 188.408 42.936C188.438 42.99 188.438 43.008 188.456 43.038C188.618 43.386 188.78 43.734 188.93 44.082C188.941 44.1189 188.955 44.155 188.972 44.19C189.11 44.508 189.236 44.826 189.362 45.144C189.362 45.198 189.404 45.246 189.428 45.3C189.452 45.354 189.458 45.384 189.47 45.432C189.614 45.804 189.752 46.182 189.878 46.56V46.626C190.01 47.026 190.13 47.426 190.238 47.826L190.28 47.976C190.283 48.0019 190.283 48.028 190.28 48.054C190.4 48.51 190.514 48.96 190.61 49.41C190.613 49.4499 190.613 49.49 190.61 49.53L190.646 49.71C190.682 49.884 190.712 50.064 190.748 50.238C190.784 50.412 190.79 50.484 190.814 50.61C190.838 50.736 190.868 50.976 190.892 51.156C190.892 51.24 190.922 51.324 190.934 51.414C190.931 51.4359 190.931 51.4581 190.934 51.48C190.982 51.87 191.018 52.26 191.048 52.644C191.048 52.728 191.048 52.806 191.048 52.89C191.048 53.286 191.09 53.676 191.09 54.09C191.09 58.368 189.566 61.374 187.136 62.79L183.812 64.722L184.022 64.584C184.094 64.542 184.166 64.5 184.232 64.452L184.586 64.2Z" fill="#EBEBEB"/>
<path d="M160.772 40.2959C160.772 48.8999 166.772 59.3819 174.29 63.6959C178.166 65.9339 181.67 66.0959 184.148 64.5059C184.22 64.4639 184.292 64.4219 184.358 64.3739L184.586 64.2059L184.784 64.0499C184.858 63.9928 184.928 63.9307 184.994 63.8639C185.06 63.8099 185.126 63.7559 185.186 63.6959L185.384 63.4919L185.564 63.2999C185.631 63.2299 185.693 63.1558 185.75 63.0779C185.804 63.0119 185.864 62.9459 185.918 62.8739C185.972 62.8019 186.032 62.7119 186.086 62.6339C186.14 62.5559 186.194 62.4899 186.242 62.4119C186.29 62.3339 186.35 62.2379 186.398 62.1479C186.446 62.0579 186.5 61.9919 186.542 61.9139C186.584 61.8359 186.638 61.7279 186.686 61.6319L186.818 61.3799L186.944 61.0799C186.98 60.9899 187.022 60.9059 187.058 60.8159C187.094 60.7259 187.136 60.5999 187.172 60.4919C187.208 60.3839 187.244 60.3059 187.274 60.2159C187.304 60.1259 187.34 59.9879 187.37 59.8739C187.4 59.7599 187.43 59.6819 187.454 59.5799C187.478 59.4779 187.514 59.3459 187.538 59.2259L187.61 58.9139C187.61 58.7879 187.652 58.6559 187.676 58.5299L187.73 58.2179L187.784 57.7739L187.82 57.4919L187.856 56.9819V56.7359C187.856 56.4799 187.856 56.2159 187.856 55.9439C187.856 55.5539 187.856 55.1639 187.82 54.7439V54.6659C187.79 54.2279 187.754 53.7839 187.694 53.3339V53.1839L187.586 52.4579C187.586 52.3379 187.544 52.2179 187.52 52.0919C187.496 51.9659 187.454 51.7379 187.418 51.5579V51.4739C187.207 50.4714 186.938 49.4817 186.614 48.5099C186.181 47.2023 185.659 45.9253 185.054 44.6879L185.018 44.6099C184.67 43.9079 184.304 43.2119 183.908 42.5339L183.8 42.3479C183.62 42.0419 183.434 41.7479 183.248 41.4479L183.116 41.2379C182.6 40.4399 182.06 39.6719 181.484 38.9339C180.92 38.2099 180.32 37.5159 179.684 36.8519C179.45 36.5999 179.21 36.3599 178.97 36.1139L178.85 36.0059C178.538 35.6939 178.22 35.4059 177.89 35.1059H177.854C177.518 34.8059 177.17 34.5059 176.822 34.2419C176.755 34.1953 176.691 34.1452 176.63 34.0919C176.3 33.8399 175.97 33.5999 175.628 33.3719L175.592 33.3419C175.376 33.1979 175.16 33.0539 174.944 32.9219C174.728 32.7899 174.572 32.6879 174.38 32.5799C174.092 32.4119 173.78 32.2619 173.522 32.1179C172.703 31.6993 171.845 31.3617 170.96 31.1099L170.714 31.0499L170.342 30.9599C170.252 30.9599 170.162 30.9239 170.072 30.9059L169.724 30.8459L169.442 30.8099L168.998 30.7619H168.824C168.502 30.7439 168.18 30.7439 167.858 30.7619H167.702C167.498 30.7619 167.294 30.7979 167.102 30.8279C166.818 30.8688 166.538 30.9289 166.262 31.0079H166.16C165.974 31.0679 165.794 31.1339 165.614 31.2059L165.518 31.2419C165.272 31.3499 165.026 31.4639 164.792 31.5959C162.302 32.9999 160.784 35.9999 160.772 40.2959ZM169.406 58.5839L169.37 58.5419C169.172 58.3319 168.98 58.1159 168.77 57.8939L168.644 57.7499C168.326 57.3839 168.044 57.0119 167.72 56.6279L167.624 56.5019C167.384 56.1899 167.156 55.9019 166.928 55.5539L166.826 55.4159C166.61 55.1039 166.4 54.8159 166.196 54.4679C166.142 54.3899 166.094 54.3119 166.046 54.2339C165.878 53.9759 165.716 53.7059 165.56 53.4359C165.522 53.3821 165.488 53.326 165.458 53.2679C165.278 52.9619 165.104 52.6679 164.936 52.3379L164.816 52.0979C164.684 51.8519 164.558 51.5999 164.432 51.3479L164.312 51.0959C164.156 50.7779 164.012 50.4599 163.868 50.1359L163.814 49.9979C163.688 49.7039 163.568 49.3979 163.454 49.1219L163.352 48.8579C163.22 48.5099 163.094 48.1619 162.98 47.8139C162.98 47.8139 162.98 47.7599 162.95 47.7299C162.83 47.3699 162.722 47.0099 162.62 46.6499L162.566 46.4459C162.446 46.0259 162.344 45.6059 162.254 45.1919C162.254 45.0959 162.218 45.0059 162.194 44.9159L162.104 44.4239C162.104 44.3219 162.062 44.2199 162.05 44.1119C162.038 44.0039 161.99 43.7579 161.966 43.5779C161.942 43.3979 161.936 43.3799 161.924 43.2779C161.876 42.9179 161.846 42.5579 161.816 42.2039C161.816 42.1259 161.816 42.0479 161.816 41.9759C161.816 41.6099 161.78 41.2439 161.78 40.8839C161.78 40.6379 161.78 40.3919 161.78 40.1579V39.8879C161.78 39.7439 161.78 39.5939 161.816 39.4559C161.852 39.3179 161.816 39.2759 161.846 39.1859C161.876 39.0959 161.846 38.9099 161.894 38.7779C161.942 38.6459 161.93 38.5919 161.942 38.5019C161.954 38.4119 161.984 38.2559 162.008 38.1359C162.032 38.0159 162.05 37.9499 162.068 37.8539C162.086 37.7579 162.122 37.6319 162.146 37.5179C162.17 37.4039 162.2 37.3379 162.224 37.2479C162.248 37.1579 162.284 37.0379 162.32 36.9359L162.41 36.6719C162.446 36.5759 162.476 36.4739 162.518 36.3779C162.56 36.2819 162.59 36.2159 162.62 36.1319C162.65 36.0479 162.698 35.9459 162.74 35.8559C162.782 35.7659 162.818 35.6999 162.86 35.6219C162.902 35.5439 162.944 35.4479 162.992 35.3639L163.124 35.1479L163.268 34.9019L163.412 34.6979C163.466 34.6259 163.514 34.5479 163.574 34.4759C163.634 34.4039 163.676 34.3499 163.73 34.2839C163.784 34.2179 163.838 34.1459 163.898 34.0799C163.958 34.0139 164.012 33.9599 164.066 33.8999L164.246 33.7139L164.426 33.5519L164.618 33.3839L164.81 33.2399L165.014 33.0899L165.212 32.9579C165.829 32.5722 166.51 32.298 167.222 32.1479C169.244 31.7159 171.692 32.1899 174.332 33.7139C181.256 37.7099 186.86 47.4059 186.836 55.3679C186.836 58.3679 186.038 60.6479 184.688 62.1659C184.243 62.6722 183.718 63.1019 183.134 63.4379L183.074 63.4679C182.906 63.5579 182.732 63.6419 182.558 63.7199L182.396 63.7859C182.232 63.8539 182.064 63.9139 181.892 63.9659H181.802C181.598 64.0199 181.388 64.0679 181.202 64.1099H181.04C180.854 64.1099 180.674 64.1579 180.482 64.1759H180.338C180.104 64.1759 179.858 64.1759 179.612 64.1759H179.456H179.06L178.604 64.1219L178.316 64.0679L178.04 64.0139C177.968 64.0139 177.896 63.9779 177.824 63.9599L177.47 63.8759C177.005 63.7438 176.549 63.5856 176.102 63.4019L175.904 63.3179C175.658 63.2099 175.418 63.1019 175.172 62.9759C175.138 62.9636 175.106 62.9475 175.076 62.9279C174.812 62.7959 174.548 62.6579 174.278 62.5019C174.008 62.3459 173.618 62.0999 173.294 61.9019H173.246C172.856 61.6379 172.466 61.3559 172.088 61.0619L172.022 61.0139C171.698 60.7559 171.374 60.4919 171.062 60.2099H171.032C170.738 59.9579 170.432 59.6879 170.174 59.4179L170.036 59.2799C169.832 59.0279 169.616 58.7999 169.406 58.5839Z" fill="white"/>
<path d="M256.154 86.004L256.118 100.02L254.42 101.01L254.462 85.032L256.154 86.004Z" fill="#F0F0F0"/>
<path d="M274.454 110.61L274.448 112.572L254.42 101.01L256.118 100.02L274.454 110.61Z" fill="#F5F5F5"/>
<path d="M252.356 102.18L276.5 116.118L276.56 95.424L252.422 81.486L252.356 102.18ZM254.42 100.98L254.462 84.996L256.154 85.974L274.496 96.6L274.454 110.616V112.578L254.42 100.98Z" fill="#E0E0E0"/>
<path d="M252.416 81.4861L254.114 80.5021L278.252 94.4401L276.554 95.4241L252.416 81.4861Z" fill="#F5F5F5"/>
<path d="M278.252 94.4401L278.192 115.128L276.494 116.118L276.554 95.4241L278.252 94.4401Z" fill="#F0F0F0"/>
<path d="M256.874 57.6061L256.838 71.6221L255.134 72.6061L255.182 56.6281L256.874 57.6061Z" fill="#F0F0F0"/>
<path d="M275.174 82.2061L275.168 84.1741L255.134 72.6061L256.838 71.6221L275.174 82.2061Z" fill="#F5F5F5"/>
<path d="M253.1 73.8L277.238 87.738L277.298 67.044L253.136 53.088L253.1 73.8ZM255.158 72.6L255.206 56.622L256.874 57.6L275.216 68.19L275.174 82.2V84.168L255.158 72.6Z" fill="#E0E0E0"/>
<path d="M253.136 53.088L254.834 52.098L278.972 66.036L277.274 67.026L253.136 53.088Z" fill="#F5F5F5"/>
<path d="M278.972 66.036L278.912 86.73L277.214 87.714L277.274 67.026L278.972 66.036Z" fill="#F0F0F0"/>
<path d="M261.986 91.326L256.982 95.268L256.97 99.114L273.602 108.714L273.614 104.868L270.446 98.574L267.602 100.782L268.604 103.908L267.146 101.136L261.986 91.326Z" fill="#E0E0E0"/>
<path d="M267.446 93.264C266.666 92.814 266.024 93.18 266.024 94.08C266.05 94.5701 266.192 95.0469 266.438 95.4714C266.684 95.8959 267.028 96.256 267.44 96.522C268.22 96.978 268.856 96.612 268.862 95.712C268.835 95.2213 268.693 94.7438 268.447 94.3184C268.201 93.893 267.858 93.5317 267.446 93.264Z" fill="#E0E0E0"/>
<path d="M262.7 62.928L257.702 66.864L257.69 70.71L274.322 80.316L274.334 76.47L271.166 70.17L268.316 72.384L269.324 75.51L267.866 72.732L262.7 62.928Z" fill="#E0E0E0"/>
<path d="M268.166 64.866C267.38 64.416 266.744 64.776 266.744 65.676C266.769 66.1664 266.91 66.6439 267.155 67.0694C267.4 67.4949 267.742 67.8563 268.154 68.124C268.94 68.574 269.576 68.214 269.576 67.314C269.551 66.8236 269.41 66.346 269.165 65.9205C268.92 65.495 268.578 65.1336 268.166 64.866Z" fill="#E0E0E0"/>
<path d="M206 41.466L241.922 62.238C242.53 62.5894 243.034 63.0941 243.386 63.7015C243.738 64.309 243.924 64.9981 243.926 65.7V101.82C243.906 102.511 243.704 103.184 243.342 103.772C242.98 104.36 242.469 104.843 241.861 105.172C241.254 105.501 240.57 105.664 239.879 105.645C239.189 105.627 238.515 105.427 237.926 105.066L222.926 96.162L222.602 96.684C222.602 96.684 222.572 96.714 222.554 96.732H222.518C221.918 97.122 220.904 97.674 220.676 97.794C220.623 97.8113 220.565 97.8073 220.514 97.7826C220.464 97.758 220.425 97.7147 220.406 97.662L219.098 93.954L201.98 84.342C201.37 83.9931 200.862 83.4892 200.509 82.8813C200.156 82.2733 199.97 81.5829 199.97 80.88V44.712C199.97 41.832 204.206 40.434 206 41.466Z" fill="#E21B33"/>
<path opacity="0.2" d="M222.548 96.6839C222.548 96.6839 222.518 96.7139 222.5 96.7319H222.464C221.864 97.1219 220.85 97.6739 220.622 97.7939C220.649 97.7897 220.675 97.7794 220.698 97.7638C220.721 97.7483 220.74 97.7278 220.754 97.7039L222.02 95.6519L221.768 95.5079L222.884 96.1439L222.548 96.6839Z" fill="white"/>
<path opacity="0.4" d="M239.438 66C239.18 65.484 238.816 65.0282 238.37 64.662C238.217 64.5391 238.055 64.4287 237.884 64.332L201.962 43.554C201.759 43.4384 201.53 43.378 201.297 43.379C201.063 43.3799 200.834 43.4421 200.633 43.5594C200.431 43.6767 200.263 43.8448 200.147 44.0471C200.031 44.2494 199.97 44.4787 199.97 44.712C199.97 41.832 204.206 40.434 206 41.466L241.922 62.238C242.543 62.5982 243.057 63.1182 243.41 63.744L239.438 66Z" fill="white"/>
<path opacity="0.2" d="M239.9 103.914V67.8C239.9 67.1721 239.746 66.5539 239.45 66L243.422 63.744C243.759 64.3411 243.936 65.0146 243.938 65.7V101.82C243.918 102.511 243.716 103.184 243.354 103.772C242.992 104.361 242.481 104.843 241.873 105.172C241.266 105.501 240.582 105.664 239.892 105.645C239.201 105.627 238.527 105.427 237.938 105.066C238.139 105.174 238.365 105.229 238.594 105.224C238.822 105.22 239.046 105.157 239.243 105.041C239.44 104.925 239.604 104.761 239.719 104.564C239.834 104.366 239.896 104.143 239.9 103.914Z" fill="white"/>
<path d="M208.766 58.3919L229.616 70.4279L228.362 84.7199C228.29 85.5899 227.618 85.9199 226.82 85.4399L210.848 76.1999C210.529 76.0049 210.25 75.7503 210.026 75.4499L210.056 75.8579C210.152 76.7662 210.45 77.6416 210.927 78.4201C211.405 79.1987 212.05 79.8607 212.816 80.3579L213.518 80.7599C213.782 80.822 214.034 80.9231 214.268 81.0599C214.543 81.2265 214.795 81.4282 215.018 81.6599L222.5 85.9799C222.765 86.0383 223.018 86.1397 223.25 86.2799C223.522 86.437 223.774 86.6264 224 86.8439L225.59 87.7619C225.767 87.8804 225.913 88.0388 226.018 88.2243C226.122 88.4098 226.181 88.6173 226.19 88.8299C226.19 89.2199 225.908 89.3759 225.59 89.1839L225.464 89.1119C225.644 89.5855 225.737 90.0874 225.74 90.5939C225.74 92.1779 224.618 92.8199 223.232 92.0219C222.507 91.549 221.904 90.912 221.472 90.1625C221.039 89.413 220.789 88.572 220.742 87.7079C220.73 87.3028 220.829 86.9021 221.03 86.5499L216.458 83.9099C216.634 84.3846 216.727 84.8858 216.734 85.3919C216.734 86.9819 215.606 87.6179 214.226 86.8199C213.499 86.3492 212.895 85.7126 212.462 84.9627C212.029 84.2127 211.78 83.3707 211.736 82.5059C211.723 82.0835 211.833 81.6663 212.054 81.3059C210.228 79.8071 209.061 77.6537 208.802 75.3059L207.386 56.1059C207.343 55.7023 207.21 55.3134 206.997 54.9677C206.784 54.622 206.497 54.3283 206.156 54.1079L203.576 52.6139C203.4 52.4961 203.254 52.3386 203.15 52.1542C203.046 51.9698 202.986 51.7635 202.976 51.5519C202.976 51.1559 203.258 50.9999 203.576 51.1979L206.156 52.6859C206.837 53.1288 207.41 53.7178 207.835 54.4101C208.259 55.1023 208.524 55.8805 208.61 56.6879L208.766 58.3919ZM219.68 78.7379L219.71 67.2899C219.694 67.0004 219.611 66.7186 219.466 66.4674C219.321 66.2162 219.119 66.0026 218.876 65.8439C218.414 65.5799 218.042 65.7899 218.036 66.3239L218.006 77.7719C218.025 78.0582 218.11 78.3363 218.255 78.5841C218.4 78.8319 218.6 79.0427 218.84 79.1999C219.302 79.4639 219.68 79.2479 219.68 78.7199M223.28 80.8079L223.31 69.3599C223.294 69.0704 223.211 68.7886 223.066 68.5374C222.921 68.2862 222.719 68.0726 222.476 67.9139C222.014 67.6499 221.636 67.8599 221.636 68.3939V79.8419C221.651 80.1317 221.734 80.4138 221.879 80.6652C222.024 80.9165 222.227 81.1299 222.47 81.2879C222.932 81.5519 223.304 81.3359 223.31 80.8079M226.91 82.8959L226.946 71.4479C226.926 71.1604 226.839 70.8815 226.692 70.6336C226.546 70.3856 226.343 70.1755 226.1 70.0199C225.638 69.7559 225.26 69.9659 225.26 70.4999L225.23 81.9479C225.248 82.242 225.336 82.5274 225.488 82.7802C225.639 83.0329 225.849 83.2455 226.1 83.3999C226.556 83.6639 226.934 83.4479 226.934 82.9199M216.086 76.6559L216.116 65.2079C216.104 64.9175 216.022 64.6342 215.877 64.3824C215.732 64.1306 215.528 63.9177 215.282 63.7619C214.82 63.4979 214.448 63.7079 214.442 64.2419V75.6899C214.458 75.9794 214.542 76.261 214.687 76.5121C214.832 76.7632 215.034 76.9769 215.276 77.1359C215.738 77.3999 216.116 77.1839 216.116 76.6559M212.516 74.5679L212.552 63.1199C212.535 62.8306 212.451 62.5492 212.306 62.2981C212.162 62.047 211.96 61.8333 211.718 61.6739C211.256 61.4099 210.878 61.6199 210.878 62.1539L210.842 73.6019C210.858 73.8907 210.942 74.1716 211.087 74.4218C211.231 74.6721 211.433 74.8845 211.676 75.0419C212.138 75.3119 212.516 75.0959 212.516 74.5679ZM214.316 82.8779C213.8 82.5779 213.38 82.8179 213.374 83.4119C213.392 83.7364 213.487 84.052 213.649 84.3333C213.812 84.6147 214.038 84.854 214.31 85.0319C214.832 85.3319 215.246 85.0919 215.252 84.4979C215.235 84.1731 215.142 83.857 214.979 83.5754C214.816 83.2938 214.589 83.0548 214.316 82.8779ZM223.316 88.0799C222.8 87.7799 222.38 88.0199 222.38 88.6139C222.396 88.9383 222.488 89.2542 222.65 89.5359C222.812 89.8175 223.038 90.0567 223.31 90.2339C223.826 90.5339 224.252 90.2939 224.252 89.6939C224.234 89.3703 224.139 89.0555 223.977 88.7751C223.814 88.4947 223.588 88.2566 223.316 88.0799Z" fill="white"/>
<path d="M235.586 70.734C235.855 70.8979 236.076 71.1296 236.228 71.406C236.582 72.006 236.582 72.678 236.228 72.876L230.93 75.876C230.827 75.9232 230.713 75.9421 230.6 75.9305C230.487 75.9188 230.379 75.8772 230.288 75.81C230.021 75.6433 229.8 75.4122 229.646 75.138L227.054 70.638C226.694 70.038 226.7 69.366 227.054 69.162C227.157 69.1159 227.271 69.0978 227.384 69.1094C227.496 69.1209 227.604 69.1618 227.696 69.228C227.963 69.3946 228.184 69.6257 228.338 69.9L230.3 73.32L234.956 70.668C235.058 70.623 235.169 70.6054 235.28 70.617C235.39 70.6285 235.496 70.6689 235.586 70.734Z" fill="white"/>
<path d="M231.65 65.1839C235.184 67.2239 238.034 72.1679 238.022 76.2239C238.01 80.2799 235.142 81.9119 231.608 79.8719C228.074 77.8319 225.23 72.8999 225.242 68.8379C225.254 64.7759 228.122 63.1499 231.65 65.1839ZM230.9 75.8999L236.198 72.8999C236.558 72.7019 236.558 72.0419 236.198 71.4299C236.046 71.1536 235.825 70.9219 235.556 70.7579C235.465 70.6906 235.357 70.649 235.244 70.6374C235.131 70.6258 235.017 70.6446 234.914 70.6919L230.3 73.3199L228.344 69.9239C228.19 69.6497 227.969 69.4186 227.702 69.2519C227.61 69.1858 227.502 69.1449 227.39 69.1333C227.277 69.1217 227.163 69.1399 227.06 69.1859C226.706 69.3899 226.7 70.0439 227.06 70.6619L229.652 75.1619C229.806 75.4362 230.027 75.6672 230.294 75.8339C230.385 75.9012 230.493 75.9428 230.606 75.9544C230.719 75.966 230.833 75.9472 230.936 75.8999" fill="#E21B33"/>
<path opacity="0.3" d="M231.65 65.1839C235.184 67.2239 238.034 72.1679 238.022 76.2239C238.01 80.2799 235.142 81.9119 231.608 79.8719C228.074 77.8319 225.23 72.8999 225.242 68.8379C225.254 64.7759 228.122 63.1499 231.65 65.1839ZM230.9 75.8999L236.198 72.8999C236.558 72.7019 236.558 72.0419 236.198 71.4299C236.046 71.1536 235.825 70.9219 235.556 70.7579C235.465 70.6906 235.357 70.649 235.244 70.6374C235.131 70.6258 235.017 70.6446 234.914 70.6919L230.3 73.3199L228.344 69.9239C228.19 69.6497 227.969 69.4186 227.702 69.2519C227.61 69.1858 227.502 69.1449 227.39 69.1333C227.277 69.1217 227.163 69.1399 227.06 69.1859C226.706 69.3899 226.7 70.0439 227.06 70.6619L229.652 75.1619C229.806 75.4362 230.027 75.6672 230.294 75.8339C230.385 75.9012 230.493 75.9428 230.606 75.9544C230.719 75.966 230.833 75.9472 230.936 75.8999" fill="white"/>
<path d="M116.486 47.784C116.066 46.302 113.054 43.482 110.054 43.542C109.767 43.551 109.483 43.6078 109.214 43.71L51.02 76.8C50.0468 77.3531 49.2659 78.1905 48.782 79.2C48.398 79.9574 48.1928 80.7928 48.182 81.642V207.552C48.182 210.756 51.878 213.816 55.352 212.352C55.4309 212.33 55.5073 212.3 55.58 212.262L113.78 179.094C114.633 178.607 115.341 177.903 115.834 177.054C116.327 176.204 116.587 175.24 116.588 174.258V48.39C116.601 48.1828 116.566 47.9754 116.486 47.784Z" fill="#455A64"/>
<path d="M56.3 94.962C56.302 94.4738 56.4328 93.9947 56.6794 93.5732C56.9259 93.1518 57.2794 92.803 57.704 92.562L111.77 61.8C111.981 61.6795 112.22 61.6164 112.463 61.6169C112.706 61.6175 112.945 61.6816 113.155 61.8029C113.366 61.9243 113.541 62.0986 113.663 62.3086C113.785 62.5186 113.85 62.757 113.852 63V164.52C113.847 165.008 113.715 165.486 113.469 165.906C113.223 166.327 112.871 166.677 112.448 166.92L58.406 197.736C58.195 197.856 57.9561 197.92 57.7131 197.919C57.4701 197.919 57.2314 197.854 57.0209 197.733C56.8104 197.612 56.6353 197.437 56.513 197.227C56.3908 197.017 56.3256 196.779 56.324 196.536L56.3 94.962Z" fill="#E21B33"/>
<path opacity="0.2" d="M56.3 94.962C56.302 94.4738 56.4328 93.9947 56.6794 93.5732C56.9259 93.1518 57.2794 92.803 57.704 92.562L111.77 61.8C111.981 61.6795 112.22 61.6164 112.463 61.6169C112.706 61.6175 112.945 61.6816 113.155 61.8029C113.366 61.9243 113.541 62.0986 113.663 62.3086C113.785 62.5186 113.85 62.757 113.852 63V164.52C113.847 165.008 113.715 165.486 113.469 165.906C113.223 166.327 112.871 166.677 112.448 166.92L58.406 197.736C58.195 197.856 57.9561 197.92 57.7131 197.919C57.4701 197.919 57.2314 197.854 57.0209 197.733C56.8104 197.612 56.6353 197.437 56.513 197.227C56.3908 197.017 56.3256 196.779 56.324 196.536L56.3 94.962Z" fill="black"/>
<path opacity="0.1" d="M56.3 94.962C56.302 94.4738 56.4328 93.9947 56.6794 93.5732C56.9259 93.1518 57.2794 92.803 57.704 92.562L111.77 61.8C111.981 61.6795 112.22 61.6164 112.463 61.6169C112.706 61.6175 112.945 61.6816 113.155 61.8029C113.366 61.9243 113.541 62.0986 113.663 62.3086C113.785 62.5186 113.85 62.757 113.852 63V164.52C113.847 165.008 113.715 165.486 113.469 165.906C113.223 166.327 112.871 166.677 112.448 166.92L58.406 197.736C58.195 197.856 57.9561 197.92 57.7131 197.919C57.4701 197.919 57.2314 197.854 57.0209 197.733C56.8104 197.612 56.6353 197.437 56.513 197.227C56.3908 197.017 56.3256 196.779 56.324 196.536L56.3 94.962Z" fill="white"/>
<path opacity="0.3" d="M48.2061 81.6539V207.552C48.2061 210.756 51.9021 213.816 55.3761 212.352C55.1675 212.428 54.9437 212.453 54.7235 212.424C54.5034 212.396 54.2934 212.314 54.1114 212.187C53.9294 212.06 53.7808 211.891 53.6782 211.694C53.5756 211.497 53.5221 211.278 53.5221 211.056V85.134C53.5369 84.0357 53.8773 82.9666 54.5001 82.062L48.7821 79.2C48.4046 79.963 48.2075 80.8026 48.2061 81.6539Z" fill="black"/>
<path opacity="0.1" d="M110.06 43.536C109.773 43.545 109.489 43.6018 109.22 43.704L51.02 76.8C50.0467 77.3531 49.2659 78.1905 48.782 79.2L54.5 82.062C54.9742 81.3214 55.6179 80.7044 56.378 80.262L114.578 47.154C114.743 47.0594 114.925 46.9998 115.114 46.9789C115.302 46.958 115.494 46.9763 115.675 47.0326C115.856 47.0889 116.024 47.182 116.168 47.3062C116.311 47.4303 116.428 47.5827 116.51 47.754C116.072 46.296 113.06 43.476 110.06 43.536Z" fill="white"/>
<path d="M92.258 67.9679C92.672 67.7339 93.008 67.9199 93.008 68.3879C92.9924 68.6459 92.917 68.8967 92.7879 69.1206C92.6588 69.3444 92.4794 69.5352 92.264 69.6779L80.864 76.2779C80.456 76.5179 80.126 76.3199 80.126 75.8459C80.1397 75.5914 80.2131 75.3436 80.3403 75.1226C80.4675 74.9017 80.6448 74.7137 80.858 74.5739L92.258 67.9679Z" fill="#263238"/>
<path d="M77.9 76.2539C78.308 76.0199 78.638 76.2059 78.638 76.6799C78.6235 76.9366 78.5493 77.1864 78.4212 77.4094C78.293 77.6323 78.1146 77.8222 77.9 77.9639C77.492 78.1979 77.156 78.0059 77.156 77.5379C77.1688 77.2801 77.2429 77.0291 77.3723 76.8057C77.5018 76.5824 77.6827 76.3932 77.9 76.2539Z" fill="#263238"/>
<path d="M85.2199 67.0139C86.0359 66.5399 86.6959 66.9179 86.6959 67.8539C86.6705 68.3667 86.5241 68.8662 86.2686 69.3115C86.0131 69.7568 85.6558 70.1352 85.2259 70.4159C84.4099 70.8899 83.7319 70.5059 83.7319 69.5639C83.7621 69.0519 83.9126 68.5541 84.1711 68.1111C84.4297 67.668 84.789 67.2922 85.2199 67.0139Z" fill="#263238"/>
<path d="M85.2201 185.532C86.8881 184.572 88.2201 185.34 88.2201 187.248C88.167 188.294 87.8676 189.312 87.3462 190.22C86.8249 191.129 86.0964 191.901 85.2201 192.474C83.5581 193.434 82.1781 192.648 82.1721 190.734C82.2343 189.688 82.5428 188.672 83.0725 187.768C83.6022 186.864 84.3381 186.098 85.2201 185.532Z" fill="#263238"/>
<path d="M113.672 60.204L133.328 76.518L126.164 80.658L106.514 64.344L113.672 60.204Z" fill="#E21B33"/>
<path d="M99.3499 68.484L119 84.792L111.836 88.932L92.1919 72.624L99.3499 68.484Z" fill="#E21B33"/>
<path d="M92.1921 72.624L111.836 88.932L104.672 93.072L85.0281 76.764L92.1921 72.624Z" fill="white"/>
<path d="M106.514 64.344L126.164 80.658L119 84.792L99.3501 68.484L106.514 64.344Z" fill="white"/>
<path d="M70.706 85.038L90.344 101.346L83.18 105.486L63.542 89.178L70.706 85.038Z" fill="#E21B33"/>
<path d="M85.028 76.7639L104.672 93.0719L97.508 97.2059L77.864 80.8979L85.028 76.7639Z" fill="#E21B33"/>
<path d="M56.2461 93.396L63.5421 89.178L83.1801 105.486L75.8661 109.71L56.2461 93.396Z" fill="white"/>
<path d="M77.8641 80.8979L97.5081 97.2059L90.3441 101.346L70.7061 85.0379L77.8641 80.8979Z" fill="white"/>
<path d="M133.328 76.5179L126.164 80.6579C126.164 81.1434 126.291 81.6205 126.533 82.0412C126.775 82.4619 127.124 82.8114 127.544 83.0546C127.964 83.2979 128.441 83.4262 128.927 83.4268C129.412 83.4274 129.889 83.3002 130.31 83.0579C131.224 82.5241 131.982 81.7601 132.508 80.8421C133.034 79.9241 133.311 78.8842 133.31 77.8259L133.328 76.5179Z" fill="#E21B33"/>
<path d="M126.164 80.658L119 84.798C119 85.2834 119.127 85.7605 119.369 86.1812C119.611 86.6019 119.96 86.9514 120.38 87.1947C120.8 87.4379 121.277 87.5662 121.763 87.5668C122.248 87.5674 122.725 87.4402 123.146 87.198C124.061 86.6651 124.819 85.9013 125.345 84.983C125.872 84.0648 126.148 83.0244 126.146 81.966L126.164 80.658Z" fill="#E0E0E0"/>
<path d="M119 84.798L111.836 88.932C111.835 89.4175 111.963 89.8945 112.205 90.3152C112.447 90.7359 112.796 91.0854 113.216 91.3287C113.636 91.5719 114.113 91.7002 114.599 91.7008C115.084 91.7014 115.561 91.5742 115.982 91.332C116.896 90.7991 117.655 90.0353 118.181 89.1171C118.708 88.1988 118.984 87.1584 118.982 86.1L119 84.798Z" fill="#E21B33"/>
<path d="M111.836 88.932L104.672 93.072C104.67 93.5582 104.796 94.0364 105.038 94.4582C105.279 94.8799 105.628 95.2303 106.049 95.4739C106.47 95.7175 106.948 95.8456 107.434 95.8453C107.92 95.8449 108.397 95.7162 108.818 95.472C109.732 94.9401 110.49 94.1773 111.017 93.2602C111.543 92.343 111.82 91.3036 111.818 90.246L111.836 88.932Z" fill="#E0E0E0"/>
<path d="M104.672 93.072L97.5081 97.2C97.5076 97.6855 97.6348 98.1626 97.8771 98.5833C98.1194 99.004 98.4682 99.3535 98.8883 99.5967C99.3085 99.8399 99.7853 99.9683 100.271 99.9689C100.756 99.9694 101.233 99.8422 101.654 99.6C102.569 99.0671 103.327 98.3033 103.854 97.3851C104.38 96.4669 104.656 95.4265 104.654 94.368L104.672 93.072Z" fill="#E21B33"/>
<path d="M97.508 97.2L90.344 101.334C90.3435 101.819 90.4708 102.296 90.7131 102.717C90.9553 103.138 91.3041 103.487 91.7243 103.731C92.1444 103.974 92.6212 104.102 93.1067 104.103C93.5922 104.103 94.0692 103.976 94.49 103.734C95.4037 103.2 96.1615 102.436 96.6879 101.518C97.2143 100.6 97.4908 99.5602 97.49 98.502L97.508 97.2Z" fill="#E0E0E0"/>
<path d="M90.344 101.346L83.18 105.486C83.1776 105.972 83.3038 106.45 83.5456 106.872C83.7875 107.294 84.1364 107.644 84.5572 107.888C84.978 108.131 85.4556 108.26 85.9418 108.259C86.428 108.259 86.9055 108.13 87.326 107.886C88.2434 107.356 89.0042 106.593 89.5311 105.674C90.058 104.755 90.3323 103.713 90.326 102.654L90.344 101.346Z" fill="#E21B33"/>
<path opacity="0.2" d="M133.328 76.5179L126.164 80.6579C126.164 81.1434 126.291 81.6205 126.533 82.0412C126.775 82.4619 127.124 82.8114 127.544 83.0546C127.964 83.2979 128.441 83.4262 128.927 83.4268C129.412 83.4274 129.889 83.3002 130.31 83.0579C131.224 82.5241 131.982 81.7601 132.508 80.8421C133.034 79.9241 133.311 78.8842 133.31 77.8259L133.328 76.5179Z" fill="black"/>
<path opacity="0.2" d="M119 84.798L111.836 88.932C111.835 89.4175 111.963 89.8945 112.205 90.3152C112.447 90.7359 112.796 91.0854 113.216 91.3287C113.636 91.5719 114.113 91.7002 114.599 91.7008C115.084 91.7014 115.561 91.5742 115.982 91.332C116.896 90.7991 117.655 90.0353 118.181 89.1171C118.708 88.1988 118.984 87.1584 118.982 86.1L119 84.798Z" fill="black"/>
<path opacity="0.2" d="M104.672 93.072L97.5081 97.2C97.5076 97.6855 97.6348 98.1626 97.8771 98.5833C98.1194 99.004 98.4682 99.3535 98.8883 99.5967C99.3085 99.8399 99.7853 99.9683 100.271 99.9689C100.756 99.9694 101.233 99.8422 101.654 99.6C102.569 99.0671 103.327 98.3033 103.854 97.3851C104.38 96.4669 104.656 95.4265 104.654 94.368L104.672 93.072Z" fill="black"/>
<path opacity="0.2" d="M90.344 101.346L83.18 105.486C83.1776 105.972 83.3038 106.45 83.5456 106.872C83.7875 107.294 84.1364 107.644 84.5572 107.888C84.978 108.131 85.4556 108.26 85.9418 108.259C86.428 108.259 86.9055 108.13 87.326 107.886C88.2434 107.356 89.0042 106.593 89.5311 105.674C90.058 104.755 90.3323 103.713 90.326 102.654L90.344 101.346Z" fill="black"/>
<path d="M83.18 105.486L75.866 109.686C75.8643 110.171 75.9905 110.648 76.2321 111.069C76.4736 111.49 76.8219 111.84 77.2417 112.084C77.6616 112.327 78.1382 112.455 78.6235 112.456C79.1088 112.456 79.5857 112.329 80.006 112.086C80.9717 111.528 81.7734 110.726 82.3306 109.76C82.8878 108.795 83.1808 107.699 83.18 106.584V105.486Z" fill="#E0E0E0"/>
<path d="M91.532 126.6C89.4069 126.852 87.3453 127.488 85.448 128.478C81.0246 130.76 77.6446 134.651 76.004 139.35C75.2924 141.368 74.9529 143.499 75.002 145.638C75.4736 143.616 76.1553 141.65 77.036 139.77C79.006 135.558 82.1126 131.98 86.006 129.438C87.7451 128.304 89.5969 127.353 91.532 126.6Z" fill="#E21B33"/>
<path d="M85.9281 158.016C84.7617 157.996 83.6057 157.794 82.502 157.416C81.2757 157.009 80.1435 156.361 79.1726 155.508C78.2017 154.656 77.4119 153.617 76.85 152.454C76.3304 151.41 75.98 150.29 75.812 149.136C75.6865 150.344 75.8447 151.564 76.274 152.7C76.7574 154.023 77.5657 155.203 78.6247 156.132C79.6836 157.061 80.9592 157.709 82.334 158.016C83.5157 158.296 84.7464 158.296 85.9281 158.016Z" fill="#E21B33"/>
<path d="M95.2279 138.72C95.345 140.319 95.3209 141.925 95.1559 143.52C94.7761 147.123 93.5953 150.596 91.6999 153.684C90.8581 155.056 89.8964 156.351 88.8259 157.554C90.2042 156.632 91.4207 155.489 92.4259 154.17C94.7535 151.132 96.0184 147.413 96.0259 143.586C96.0292 141.931 95.7596 140.287 95.2279 138.72Z" fill="#E21B33"/>
<path d="M76.4179 132.096C74.9675 133.491 73.7823 135.138 72.9199 136.956C70.8881 141.175 70.5489 146.012 71.9719 150.474C72.5782 152.394 73.5231 154.19 74.7619 155.778C73.9744 153.988 73.3713 152.122 72.9619 150.21C72.0642 145.927 72.3758 141.48 73.8619 137.364C74.527 135.523 75.3837 133.758 76.4179 132.096Z" fill="#E21B33"/>
<path d="M99.338 132.804C99.1847 131.165 98.5964 129.597 97.634 128.262C96.5415 126.685 95.0129 125.461 93.2354 124.739C91.4578 124.018 89.5085 123.83 87.626 124.2C86.0065 124.493 84.4933 125.209 83.24 126.276C84.6491 125.585 86.1757 125.166 87.74 125.04C89.4662 124.882 91.2053 125.139 92.8117 125.79C94.4182 126.442 95.8454 127.468 96.974 128.784C98.0078 129.963 98.8098 131.327 99.338 132.804Z" fill="#E21B33"/>
<path d="M125.072 114C126.973 113.807 128.876 114.338 130.402 115.489C131.927 116.639 132.961 118.323 133.298 120.204L136.082 135.804L153.542 148.014L149.642 152.76L133.034 144.036C132.056 143.523 131.19 142.819 130.488 141.965C129.787 141.112 129.263 140.127 128.948 139.068L123.596 121.014L125.072 114Z" fill="#FFA8A7"/>
<path d="M131.552 130.764C133.095 129.943 134.33 128.644 135.074 127.062L133.508 119.91C133.108 118.094 132.055 116.488 130.548 115.398C129.041 114.308 127.186 113.811 125.336 114L125.072 114.03L123.596 121.056L125.9 131.4C127.799 131.874 129.806 131.648 131.552 130.764Z" fill="#455A64"/>
<path d="M131.552 130.764C129.806 131.648 127.799 131.874 125.9 131.4L126.5 133.95C128.666 134.436 134.216 134.274 135.662 129.69L135.062 127.05C134.324 128.634 133.092 129.937 131.552 130.764Z" fill="#455A64"/>
<path opacity="0.2" d="M131.552 130.764C133.095 129.943 134.33 128.644 135.074 127.062L133.508 119.91C133.108 118.094 132.055 116.488 130.548 115.398C129.041 114.308 127.186 113.811 125.336 114L125.072 114.03L123.596 121.056L125.9 131.4C127.799 131.874 129.806 131.648 131.552 130.764Z" fill="white"/>
<path opacity="0.5" d="M131.552 130.764C129.806 131.648 127.799 131.874 125.9 131.4L126.5 133.95C128.666 134.436 134.216 134.274 135.662 129.69L135.062 127.05C134.324 128.634 133.092 129.937 131.552 130.764Z" fill="white"/>
<path d="M128.936 120.714C128.936 120.714 128.24 115.404 125.072 114.018C125.072 114.018 117.488 116.292 111.2 118.68C108.713 119.587 106.278 120.628 103.904 121.8C102.476 123.036 98.378 126.714 96.452 127.704C95.5112 128.174 94.4963 128.479 93.452 128.604C92.1325 128.816 90.8657 129.278 89.72 129.966C83.948 133.302 79.286 141.366 79.304 148.008C79.304 152.358 81.344 154.992 84.362 155.358H84.5C84.9767 155.409 85.4574 155.409 85.934 155.358C91.184 155.31 99.602 155.268 102.908 154.32C118.352 149.784 130.496 138.6 128.936 120.714Z" fill="#455A64"/>
<path d="M114.218 118.536L116.48 114.432L125.582 120.564L121.982 125.4C121.226 125.77 120.402 125.979 119.561 126.013C118.72 126.047 117.881 125.906 117.098 125.598C116.324 125.241 115.632 124.729 115.064 124.093C114.496 123.457 114.065 122.711 113.798 121.902C113.638 121.342 113.593 120.755 113.665 120.176C113.738 119.598 113.926 119.04 114.218 118.536Z" fill="#FFA8A7"/>
<path opacity="0.2" d="M117.332 115.002C117.332 119.946 121.262 122.262 123.662 123.138L125.582 120.564L117.332 115.002Z" fill="black"/>
<path d="M113.222 110.07C112.886 108.096 112.544 106.068 112.928 104.1C113.312 102.132 114.584 100.212 116.528 99.6359C116.923 98.7946 117.487 98.0441 118.187 97.4318C118.886 96.8195 119.704 96.3585 120.59 96.0779C122.327 95.6038 124.124 95.3855 125.924 95.4299C127.91 95.3109 129.903 95.4217 131.864 95.7599C133.84 96.1128 135.635 97.1313 136.952 98.6459C137.627 99.5753 138.106 100.632 138.359 101.752C138.613 102.872 138.636 104.032 138.428 105.162C137.997 107.419 137.162 109.58 135.962 111.54C132.146 111.81 128.258 112.248 124.442 112.518C122.498 112.722 120.539 112.74 118.592 112.572C116.605 112.251 114.746 111.385 113.222 110.07Z" fill="#263238"/>
<path d="M136.586 100.92C137.564 106.792 136.917 112.82 134.714 118.35C134.204 119.628 133.514 120.954 132.344 121.632C131.174 122.31 129.542 122.202 128.144 121.986C125.832 121.723 123.577 121.089 121.466 120.108C119.341 119.106 117.686 117.322 116.846 115.128C116.089 115.28 115.305 115.211 114.587 114.929C113.869 114.647 113.247 114.164 112.796 113.538C111.91 112.238 111.451 110.695 111.482 109.122C111.482 108.12 111.668 106.938 112.568 106.5C113.468 106.062 114.404 106.548 115.13 107.136C116.32 108.104 117.19 109.409 117.626 110.88C118.286 108.438 119.312 106.08 119.972 103.68C120.236 102.72 120.572 101.676 121.394 101.142C122.414 100.488 123.746 100.86 124.928 101.142C128.77 102.061 132.782 101.985 136.586 100.92Z" fill="#FFA8A7"/>
<path d="M129.482 108.318L132.332 113.112L128.936 113.754L129.482 108.318Z" fill="#F28F8F"/>
<path d="M125.66 115.404L128.24 116.658C128.02 116.952 127.709 117.166 127.356 117.267C127.003 117.367 126.626 117.35 126.284 117.216C125.988 117.031 125.765 116.75 125.652 116.42C125.538 116.091 125.541 115.732 125.66 115.404Z" fill="#F28F8F"/>
<path opacity="0.3" d="M125.66 115.404L128.24 116.658C128.02 116.952 127.709 117.166 127.356 117.267C127.003 117.367 126.626 117.35 126.284 117.216C125.988 117.031 125.765 116.75 125.652 116.42C125.538 116.091 125.541 115.732 125.66 115.404Z" fill="black"/>
<path d="M127.178 117.3C126.878 117.361 126.567 117.332 126.284 117.216C126.047 117.083 125.854 116.883 125.731 116.64C125.609 116.398 125.561 116.124 125.594 115.854C125.964 115.855 126.323 115.979 126.614 116.208C126.937 116.485 127.139 116.877 127.178 117.3Z" fill="#F28F8F"/>
<path d="M124.562 108.51C124.543 108.703 124.581 108.897 124.672 109.067C124.763 109.238 124.903 109.378 125.073 109.469C125.244 109.561 125.438 109.6 125.63 109.581C125.823 109.562 126.006 109.486 126.155 109.364C126.305 109.241 126.415 109.076 126.471 108.891C126.527 108.706 126.527 108.508 126.471 108.323C126.415 108.138 126.305 107.974 126.155 107.851C126.005 107.728 125.823 107.653 125.63 107.634C125.372 107.609 125.115 107.687 124.915 107.851C124.715 108.015 124.588 108.252 124.562 108.51Z" fill="#263238"/>
<path d="M132.746 109.014C132.727 109.205 132.765 109.398 132.855 109.567C132.945 109.737 133.084 109.876 133.253 109.967C133.422 110.058 133.614 110.097 133.805 110.078C133.997 110.06 134.178 109.986 134.327 109.864C134.476 109.743 134.586 109.58 134.642 109.397C134.699 109.213 134.7 109.017 134.645 108.833C134.59 108.649 134.482 108.485 134.334 108.363C134.186 108.24 134.005 108.164 133.814 108.144C133.687 108.131 133.558 108.143 133.435 108.179C133.313 108.216 133.199 108.276 133.099 108.357C133 108.438 132.918 108.538 132.857 108.65C132.797 108.763 132.759 108.887 132.746 109.014Z" fill="#263238"/>
<path d="M134.078 105.246L136.082 106.95C136.202 106.693 136.241 106.405 136.193 106.125C136.144 105.845 136.012 105.586 135.812 105.384C135.565 105.202 135.271 105.092 134.965 105.068C134.658 105.044 134.351 105.105 134.078 105.246Z" fill="#263238"/>
<path d="M126.098 105.114L123.8 106.386C123.733 106.11 123.751 105.821 123.853 105.556C123.955 105.291 124.135 105.063 124.37 104.904C124.649 104.775 124.959 104.726 125.264 104.764C125.569 104.801 125.858 104.922 126.098 105.114Z" fill="#263238"/>
<path d="M138.41 102.894C130.063 104.23 121.557 104.23 113.21 102.894C113.6 92.6939 118.19 89.3519 126.11 89.3519C134.03 89.3519 138.5 93.5999 138.41 102.894Z" fill="#455A64"/>
<path d="M138.41 102.894C138.41 98.988 137.654 95.988 136.172 93.81L132.854 92.88C131.293 92.4413 129.653 92.3553 128.054 92.628L124.892 93.156C123.81 93.3302 122.814 93.8528 122.056 94.6444C121.298 95.436 120.819 96.4534 120.692 97.542L119.966 103.698C126.125 104.141 132.314 103.872 138.41 102.894Z" fill="#455A64"/>
<path opacity="0.29" d="M138.41 102.894C138.41 98.988 137.654 95.988 136.172 93.81L132.854 92.88C131.293 92.4413 129.653 92.3553 128.054 92.628L124.892 93.156C123.81 93.3302 122.814 93.8528 122.056 94.6444C121.298 95.436 120.819 96.4534 120.692 97.542L119.966 103.698C126.125 104.141 132.314 103.872 138.41 102.894Z" fill="white"/>
<path d="M139.4 94.308H137.936C137.462 94.308 136.994 94.308 136.526 94.362C132.234 94.674 128.165 96.4 124.958 99.27L120.026 103.698C126.165 104.137 132.333 103.867 138.41 102.894L141.62 99C141.961 98.5785 142.177 98.0691 142.241 97.5307C142.306 96.9922 142.217 96.4464 141.985 95.9562C141.753 95.466 141.387 95.0512 140.93 94.7596C140.473 94.468 139.942 94.3115 139.4 94.308Z" fill="#455A64"/>
<path opacity="0.2" d="M139.4 94.308H137.936C137.462 94.308 136.994 94.308 136.526 94.362C132.234 94.674 128.165 96.4 124.958 99.27L120.026 103.698C126.165 104.137 132.333 103.867 138.41 102.894L141.62 99C141.961 98.5785 142.177 98.0691 142.241 97.5307C142.306 96.9922 142.217 96.4464 141.985 95.9562C141.753 95.466 141.387 95.0512 140.93 94.7596C140.473 94.468 139.942 94.3115 139.4 94.308Z" fill="black"/>
<path d="M164.762 148.836L142.394 161.832L119.882 148.836L142.244 135.834L164.762 148.836Z" fill="#E21B33"/>
<g opacity="0.3">
<path d="M164.762 148.836L142.394 161.832L119.882 148.836L142.244 135.834L164.762 148.836Z" fill="white"/>
</g>
<path d="M164.762 148.836L164.696 171.588L142.328 184.584L142.394 161.832L164.762 148.836Z" fill="#E21B33"/>
<g opacity="0.1">
<path d="M164.762 148.836L164.696 171.588L142.328 184.584L142.394 161.832L164.762 148.836Z" fill="white"/>
</g>
<path d="M142.394 161.832L142.328 184.584L119.816 171.588L119.882 148.836L142.394 161.832Z" fill="#E21B33"/>
<path d="M146.288 147.168L153.86 142.542L149.996 140.31L142.394 144.846L146.288 147.168Z" fill="#E0E0E0"/>
<path d="M146.288 147.168L142.394 144.846L134.672 140.238L130.82 142.476L138.494 147.168L142.394 149.55L152.69 155.85L156.818 153.45L146.288 147.168Z" fill="white"/>
<path d="M138.494 147.168L127.922 153.474L132.062 155.868L142.394 149.55L138.494 147.168Z" fill="#E0E0E0"/>
<path d="M156.818 153.45L152.69 155.85L152.726 155.868L152.786 178.506L156.962 176.082L156.902 153.492L156.818 153.45Z" fill="#E0E0E0"/>
<path d="M132.062 155.868L127.922 153.474L127.886 153.492L127.82 176.214L131.996 178.62L132.062 155.868Z" fill="white"/>
<path opacity="0.2" d="M132.062 155.868L127.922 153.474L127.886 153.492L127.82 176.214L131.996 178.62L132.062 155.868Z" fill="black"/>
<path d="M142.382 154.044L137.702 156.906L142.382 159.612L147.05 156.9L142.382 154.044Z" fill="white"/>
<path d="M98.1021 153.258C98.1021 153.258 99.8481 127.848 100.214 126.258C101.612 120.216 110.372 120.648 111.206 126.792C111.548 129.3 107.546 153.654 107.546 153.654L122.042 168.99L124.976 171.684L127.592 171.156L133.556 171.72C133.715 171.736 133.864 171.803 133.981 171.911C134.098 172.019 134.176 172.163 134.204 172.32C134.242 172.506 134.208 172.699 134.107 172.86C134.007 173.021 133.848 173.137 133.664 173.184L129.722 174.144L132.566 176.088C132.965 176.361 133.417 176.547 133.892 176.634L138.35 177.48C138.547 177.516 138.724 177.624 138.847 177.782C138.969 177.94 139.03 178.138 139.016 178.338C139.007 178.496 138.952 178.648 138.858 178.776C138.765 178.904 138.636 179.002 138.488 179.058L136.088 179.952C134.533 180.536 132.87 180.777 131.213 180.659C129.556 180.541 127.945 180.066 126.488 179.268L121.328 176.4C120.571 175.993 119.858 175.51 119.198 174.96L100.7 159.66C99.768 158.894 99.0421 157.907 98.5884 156.789C98.1347 155.671 97.9675 154.457 98.1021 153.258Z" fill="#FFA8A7"/>
<path d="M110.972 143.52L112.826 129.72C112.941 128.78 112.87 127.826 112.616 126.913C112.363 126 111.932 125.146 111.348 124.4C110.764 123.654 110.04 123.03 109.215 122.563C108.39 122.097 107.481 121.798 106.541 121.683C105.601 121.568 104.647 121.639 103.734 121.893C102.821 122.146 101.967 122.577 101.221 123.161C100.475 123.745 99.8505 124.47 99.3844 125.294C98.9182 126.119 98.6191 127.028 98.5041 127.968L96.9561 142.05C99.0586 143.265 101.394 144.022 103.809 144.272C106.224 144.522 108.665 144.26 110.972 143.502V143.52Z" fill="#455A64"/>
<path opacity="0.2" d="M110.972 143.52L112.826 129.72C112.941 128.78 112.87 127.826 112.616 126.913C112.363 126 111.932 125.146 111.348 124.4C110.764 123.654 110.04 123.03 109.215 122.563C108.39 122.097 107.481 121.798 106.541 121.683C105.601 121.568 104.647 121.639 103.734 121.893C102.821 122.146 101.967 122.577 101.221 123.161C100.475 123.745 99.8505 124.47 99.3844 125.294C98.9182 126.119 98.6191 127.028 98.5041 127.968L96.9561 142.05C99.0586 143.265 101.394 144.022 103.809 144.272C106.224 144.522 108.665 144.26 110.972 143.502V143.52Z" fill="white"/>
<path d="M103.526 144.258C101.203 143.973 98.9591 143.228 96.926 142.068L96.572 145.314C102.806 150.114 110.45 147.15 110.45 147.15L110.942 143.52C108.551 144.293 106.022 144.544 103.526 144.258Z" fill="#455A64"/>
<path opacity="0.5" d="M103.526 144.258C101.203 143.973 98.9591 143.228 96.926 142.068L96.572 145.314C102.806 150.114 110.45 147.15 110.45 147.15L110.942 143.52C108.551 144.293 106.022 144.544 103.526 144.258Z" fill="white"/>
<path d="M265.664 190.662L275.396 190.95L285.128 190.662C285.542 197.262 284.264 203.934 282.494 207.204C282.075 208.043 281.401 208.728 280.568 209.16C277.694 210.822 273.056 210.822 270.2 209.16C269.356 208.719 268.681 208.013 268.28 207.15C266.516 203.862 265.25 197.202 265.664 190.662Z" fill="white"/>
<path d="M268.538 186.678C264.728 188.88 264.704 192.45 268.49 194.652C272.276 196.854 278.438 196.848 282.254 194.652C286.07 192.456 286.088 188.88 282.296 186.678C278.504 184.476 272.348 184.476 268.538 186.678Z" fill="#EBEBEB"/>
<path d="M270.044 187.554C267.044 189.27 267.044 192.054 270.008 193.776C272.972 195.498 277.772 195.492 280.748 193.776C283.724 192.06 283.748 189.27 280.778 187.554C277.808 185.838 273.02 185.838 270.044 187.554Z" fill="#E0E0E0"/>
<g opacity="0.15">
<path d="M270.044 187.554C267.044 189.27 267.044 192.054 270.008 193.776C272.972 195.498 277.772 195.492 280.748 193.776C283.724 192.06 283.748 189.27 280.778 187.554C277.808 185.838 273.02 185.838 270.044 187.554Z" fill="black"/>
</g>
<path d="M280.358 170.754C281.942 168.786 283.778 167.022 285.23 164.958C286.22 163.548 287.03 161.82 286.628 160.158C286.398 159.39 285.957 158.702 285.356 158.172C284.755 157.641 284.017 157.29 283.226 157.158C281.628 156.92 279.999 157.283 278.654 158.178C277.322 159.067 276.153 160.18 275.198 161.466C269.716 168.407 267.124 177.195 267.962 186C267.982 187.008 268.297 187.989 268.868 188.82C269.218 189.23 269.678 189.532 270.193 189.689C270.709 189.846 271.259 189.853 271.778 189.708C274.43 188.922 274.076 185.34 274.508 183.234C275.104 180.343 276.132 177.558 277.556 174.972C278.363 173.486 279.301 172.074 280.358 170.754Z" fill="#E21B33"/>
<path opacity="0.2" d="M280.358 170.754C281.942 168.786 283.778 167.022 285.23 164.958C286.22 163.548 287.03 161.82 286.628 160.158C286.398 159.39 285.957 158.702 285.356 158.172C284.755 157.641 284.017 157.29 283.226 157.158C281.628 156.92 279.999 157.283 278.654 158.178C277.322 159.067 276.153 160.18 275.198 161.466C269.716 168.407 267.124 177.195 267.962 186C267.982 187.008 268.297 187.989 268.868 188.82C269.218 189.23 269.678 189.532 270.193 189.689C270.709 189.846 271.259 189.853 271.778 189.708C274.43 188.922 274.076 185.34 274.508 183.234C275.104 180.343 276.132 177.558 277.556 174.972C278.363 173.486 279.301 172.074 280.358 170.754Z" fill="white"/>
<path d="M271.61 187.02C271.661 187.009 271.708 186.981 271.742 186.941C271.775 186.901 271.794 186.85 271.796 186.798C271.982 182.544 273.368 168.024 283.376 159.798C283.4 159.779 283.42 159.756 283.435 159.729C283.45 159.702 283.459 159.673 283.462 159.642C283.465 159.612 283.461 159.581 283.451 159.552C283.442 159.523 283.426 159.497 283.406 159.474C283.387 159.45 283.364 159.43 283.338 159.415C283.311 159.4 283.282 159.391 283.252 159.388C283.221 159.384 283.191 159.387 283.162 159.396C283.133 159.404 283.106 159.419 283.082 159.438C272.924 167.802 271.52 182.496 271.334 186.798C271.332 186.859 271.355 186.918 271.396 186.963C271.438 187.008 271.495 187.035 271.556 187.038L271.61 187.02Z" fill="#F0F0F0"/>
<path d="M270.152 187.476C270.361 188.407 270.757 189.286 271.315 190.06C271.872 190.835 272.581 191.488 273.398 191.982C274.929 192.711 276.633 192.998 278.318 192.81C280.023 192.608 281.699 192.205 283.31 191.61C284.114 191.34 285.002 190.98 285.11 189.984C285.122 189.724 285.077 189.464 284.978 189.222C284.88 188.981 284.73 188.764 284.54 188.586C284.377 188.425 284.205 188.275 284.024 188.136C283.94 188.074 283.878 187.987 283.845 187.888C283.812 187.79 283.81 187.683 283.839 187.583C283.868 187.483 283.928 187.394 284.009 187.329C284.09 187.264 284.19 187.225 284.294 187.218C284.771 187.185 285.246 187.125 285.716 187.038C286.819 186.866 287.855 186.399 288.716 185.688C289.34 185.135 289.815 184.433 290.096 183.648C290.336 182.976 290.408 182.136 289.898 181.638C289.583 181.376 289.2 181.209 288.794 181.158C288.44 181.08 288.08 181.014 287.726 180.96C287.623 180.945 287.529 180.897 287.456 180.823C287.384 180.749 287.338 180.653 287.325 180.55C287.312 180.447 287.333 180.343 287.385 180.254C287.437 180.164 287.516 180.094 287.612 180.054L289.124 179.424C289.558 179.283 289.952 179.038 290.27 178.71C290.465 178.405 290.593 178.062 290.642 177.704C290.692 177.345 290.663 176.98 290.558 176.634C290.372 175.686 290.048 174.774 289.826 173.838C289.557 172.916 289.514 171.942 289.7 171C286.871 170.685 284.008 170.876 281.246 171.564C280.414 171.737 279.628 172.08 278.936 172.572C277.994 173.328 277.736 174.456 277.85 175.686C277.854 175.736 277.84 175.785 277.811 175.826C277.783 175.867 277.741 175.897 277.693 175.91C277.644 175.924 277.593 175.92 277.547 175.9C277.502 175.88 277.464 175.844 277.442 175.8L276.5 174C276.358 173.743 276.124 173.551 275.845 173.461C275.566 173.372 275.264 173.393 275 173.52C274.153 173.944 273.402 174.536 272.792 175.26C272.454 175.643 272.197 176.09 272.035 176.575C271.874 177.059 271.81 177.571 271.85 178.08C271.966 179.479 272.201 180.866 272.552 182.226C272.575 182.303 272.573 182.386 272.545 182.462C272.518 182.538 272.467 182.603 272.4 182.648C272.333 182.693 272.253 182.715 272.173 182.712C272.092 182.708 272.015 182.679 271.952 182.628H271.91C271.65 182.427 271.324 182.333 270.998 182.364C270.146 182.466 269.93 183.33 269.87 184.068C269.827 185.211 269.922 186.355 270.152 187.476Z" fill="#E21B33"/>
<path opacity="0.2" d="M270.152 187.476C270.361 188.407 270.757 189.286 271.315 190.06C271.872 190.835 272.581 191.488 273.398 191.982C274.929 192.711 276.633 192.998 278.318 192.81C280.023 192.608 281.699 192.205 283.31 191.61C284.114 191.34 285.002 190.98 285.11 189.984C285.122 189.724 285.077 189.464 284.978 189.222C284.88 188.981 284.73 188.764 284.54 188.586C284.377 188.425 284.205 188.275 284.024 188.136C283.94 188.074 283.878 187.987 283.845 187.888C283.812 187.79 283.81 187.683 283.839 187.583C283.868 187.483 283.928 187.394 284.009 187.329C284.09 187.264 284.19 187.225 284.294 187.218C284.771 187.185 285.246 187.125 285.716 187.038C286.819 186.866 287.855 186.399 288.716 185.688C289.34 185.135 289.815 184.433 290.096 183.648C290.336 182.976 290.408 182.136 289.898 181.638C289.583 181.376 289.2 181.209 288.794 181.158C288.44 181.08 288.08 181.014 287.726 180.96C287.623 180.945 287.529 180.897 287.456 180.823C287.384 180.749 287.338 180.653 287.325 180.55C287.312 180.447 287.333 180.343 287.385 180.254C287.437 180.164 287.516 180.094 287.612 180.054L289.124 179.424C289.558 179.283 289.952 179.038 290.27 178.71C290.465 178.405 290.593 178.062 290.642 177.704C290.692 177.345 290.663 176.98 290.558 176.634C290.372 175.686 290.048 174.774 289.826 173.838C289.557 172.916 289.514 171.942 289.7 171C286.871 170.685 284.008 170.876 281.246 171.564C280.414 171.737 279.628 172.08 278.936 172.572C277.994 173.328 277.736 174.456 277.85 175.686C277.854 175.736 277.84 175.785 277.811 175.826C277.783 175.867 277.741 175.897 277.693 175.91C277.644 175.924 277.593 175.92 277.547 175.9C277.502 175.88 277.464 175.844 277.442 175.8L276.5 174C276.358 173.743 276.124 173.551 275.845 173.461C275.566 173.372 275.264 173.393 275 173.52C274.153 173.944 273.402 174.536 272.792 175.26C272.454 175.643 272.197 176.09 272.035 176.575C271.874 177.059 271.81 177.571 271.85 178.08C271.966 179.479 272.201 180.866 272.552 182.226C272.575 182.303 272.573 182.386 272.545 182.462C272.518 182.538 272.467 182.603 272.4 182.648C272.333 182.693 272.253 182.715 272.173 182.712C272.092 182.708 272.015 182.679 271.952 182.628H271.91C271.65 182.427 271.324 182.333 270.998 182.364C270.146 182.466 269.93 183.33 269.87 184.068C269.827 185.211 269.922 186.355 270.152 187.476Z" fill="black"/>
<path opacity="0.2" d="M270.152 187.476C270.361 188.407 270.757 189.286 271.315 190.06C271.872 190.835 272.581 191.488 273.398 191.982C274.929 192.711 276.633 192.998 278.318 192.81C280.023 192.608 281.699 192.205 283.31 191.61C284.114 191.34 285.002 190.98 285.11 189.984C285.122 189.724 285.077 189.464 284.978 189.222C284.88 188.981 284.73 188.764 284.54 188.586C284.377 188.425 284.205 188.275 284.024 188.136C283.94 188.074 283.878 187.987 283.845 187.888C283.812 187.79 283.81 187.683 283.839 187.583C283.868 187.483 283.928 187.394 284.009 187.329C284.09 187.264 284.19 187.225 284.294 187.218C284.771 187.185 285.246 187.125 285.716 187.038C286.819 186.866 287.855 186.399 288.716 185.688C289.34 185.135 289.815 184.433 290.096 183.648C290.336 182.976 290.408 182.136 289.898 181.638C289.583 181.376 289.2 181.209 288.794 181.158C288.44 181.08 288.08 181.014 287.726 180.96C287.623 180.945 287.529 180.897 287.456 180.823C287.384 180.749 287.338 180.653 287.325 180.55C287.312 180.447 287.333 180.343 287.385 180.254C287.437 180.164 287.516 180.094 287.612 180.054L289.124 179.424C289.558 179.283 289.952 179.038 290.27 178.71C290.465 178.405 290.593 178.062 290.642 177.704C290.692 177.345 290.663 176.98 290.558 176.634C290.372 175.686 290.048 174.774 289.826 173.838C289.557 172.916 289.514 171.942 289.7 171C286.871 170.685 284.008 170.876 281.246 171.564C280.414 171.737 279.628 172.08 278.936 172.572C277.994 173.328 277.736 174.456 277.85 175.686C277.854 175.736 277.84 175.785 277.811 175.826C277.783 175.867 277.741 175.897 277.693 175.91C277.644 175.924 277.593 175.92 277.547 175.9C277.502 175.88 277.464 175.844 277.442 175.8L276.5 174C276.358 173.743 276.124 173.551 275.845 173.461C275.566 173.372 275.264 173.393 275 173.52C274.153 173.944 273.402 174.536 272.792 175.26C272.454 175.643 272.197 176.09 272.035 176.575C271.874 177.059 271.81 177.571 271.85 178.08C271.966 179.479 272.201 180.866 272.552 182.226C272.575 182.303 272.573 182.386 272.545 182.462C272.518 182.538 272.467 182.603 272.4 182.648C272.333 182.693 272.253 182.715 272.173 182.712C272.092 182.708 272.015 182.679 271.952 182.628H271.91C271.65 182.427 271.324 182.333 270.998 182.364C270.146 182.466 269.93 183.33 269.87 184.068C269.827 185.211 269.922 186.355 270.152 187.476Z" fill="white"/>
<path d="M274.634 191.754C275.164 189.482 275.926 187.27 276.908 185.154C276.909 185.121 276.916 185.089 276.929 185.059C276.943 185.029 276.962 185.002 276.986 184.98L277.148 184.638C276.871 182.004 276.106 179.444 274.892 177.09C274.863 177.036 274.855 176.973 274.871 176.914C274.887 176.855 274.924 176.804 274.976 176.772C275.03 176.742 275.094 176.734 275.154 176.751C275.213 176.768 275.264 176.808 275.294 176.862C276.431 179.055 277.182 181.428 277.514 183.876C279.44 180.012 282.512 175.476 287.252 172.2C287.303 172.165 287.366 172.152 287.426 172.163C287.487 172.174 287.541 172.209 287.576 172.26C287.593 172.285 287.605 172.313 287.611 172.342C287.617 172.371 287.618 172.402 287.612 172.431C287.607 172.461 287.595 172.489 287.579 172.514C287.562 172.539 287.541 172.561 287.516 172.578C282.626 175.986 279.542 180.702 277.67 184.614C280.193 183.474 282.993 183.095 285.728 183.522C285.789 183.535 285.842 183.571 285.877 183.622C285.911 183.674 285.925 183.737 285.914 183.798C285.905 183.843 285.882 183.885 285.849 183.917C285.816 183.949 285.774 183.97 285.728 183.978H285.638C285.596 183.978 281.174 183.168 277.346 185.304C276.371 187.399 275.615 189.588 275.09 191.838C275.079 191.883 275.056 191.923 275.023 191.955C274.99 191.987 274.949 192.009 274.904 192.018H274.814C274.755 192.006 274.704 191.972 274.67 191.923C274.636 191.873 274.623 191.813 274.634 191.754Z" fill="#F0F0F0"/>
<path d="M52.898 210.546L41.822 210.87L30.752 210.546C30.272 218.022 31.736 225.642 33.752 229.368C34.2278 230.327 34.9971 231.109 35.948 231.6C39.212 233.49 44.492 233.49 47.738 231.6C48.7015 231.102 49.472 230.298 49.928 229.314C51.926 225.564 53.372 217.986 52.898 210.546Z" fill="white"/>
<path d="M49.628 206.01C53.966 208.518 53.99 212.574 49.682 215.082C45.374 217.59 38.36 217.584 34.022 215.082C29.684 212.58 29.66 208.518 33.968 206.01C38.276 203.502 45.29 203.508 49.628 206.01Z" fill="#EBEBEB"/>
<path d="M47.9 207C51.284 208.956 51.302 212.124 47.942 214.08C44.582 216.036 39.11 216.03 35.726 214.08C32.342 212.13 32.324 208.956 35.684 207C39.044 205.044 44.528 205.056 47.9 207Z" fill="#E0E0E0"/>
<g opacity="0.15">
<path d="M47.9 207C51.284 208.956 51.302 212.124 47.942 214.08C44.582 216.036 39.11 216.03 35.726 214.08C32.342 212.13 32.324 208.956 35.684 207C39.044 205.044 44.528 205.056 47.9 207Z" fill="black"/>
</g>
<path d="M60.032 163.296C35.078 171.468 34.832 188.16 40.478 200.046C41.894 202.446 46.19 203.748 49.922 188.964L43.37 189.804L51.008 185.928L52.994 180L46.622 180.474L54.71 177.072C56.1975 172.374 57.9749 167.773 60.032 163.296Z" fill="#E21B33"/>
<path opacity="0.2" d="M60.032 163.296C35.078 171.468 34.832 188.16 40.478 200.046C41.894 202.446 46.19 203.748 49.922 188.964L43.37 189.804L51.008 185.928L52.994 180L46.622 180.474L54.71 177.072C56.1975 172.374 57.9749 167.773 60.032 163.296Z" fill="black"/>
<path opacity="0.2" d="M60.032 163.296C35.078 171.468 34.832 188.16 40.478 200.046C41.894 202.446 46.19 203.748 49.922 188.964L43.37 189.804L51.008 185.928L52.994 180L46.622 180.474L54.71 177.072C56.1975 172.374 57.9749 167.773 60.032 163.296Z" fill="white"/>
<path d="M52.97 167.472C39.812 177.456 38.624 188.91 42.344 200.862C41.03 190.338 39.608 179.694 52.97 167.472Z" fill="white"/>
<path d="M17.7679 180.252C42.3679 183.714 45.3679 199.224 42.0799 211.23C41.1619 213.708 37.3759 215.628 31.4419 202.476L37.6999 202.2L29.8999 199.836L27.0679 194.64L33.0679 194.04L24.9739 192.24C22.8185 188.101 20.412 184.097 17.7679 180.252Z" fill="#E21B33"/>
<path opacity="0.2" d="M17.7679 180.252C42.3679 183.714 45.3679 199.224 42.0799 211.23C41.1619 213.708 37.3759 215.628 31.4419 202.476L37.6999 202.2L29.8999 199.836L27.0679 194.64L33.0679 194.04L24.9739 192.24C22.8185 188.101 20.412 184.097 17.7679 180.252Z" fill="white"/>
<path opacity="0.1" d="M17.7679 180.252C42.3679 183.714 45.3679 199.224 42.0799 211.23C41.1619 213.708 37.3759 215.628 31.4419 202.476L37.6999 202.2L29.8999 199.836L27.0679 194.64L33.0679 194.04L24.9739 192.24C22.8185 188.101 20.412 184.097 17.7679 180.252Z" fill="black"/>
<path d="M25.0339 183C38.9479 190.116 41.9539 200.58 40.4779 212.328C39.9559 202.278 39.4999 192.132 25.0339 183Z" fill="white"/>
<path d="M67.226 186.066C44.672 186.432 40.226 200.076 41.846 211.266C42.398 213.6 45.596 215.754 52.418 204.564L46.82 203.592L54.074 202.35L57.212 198L51.86 196.77L59.36 196.032C61.7749 192.552 64.4018 189.223 67.226 186.066Z" fill="#E21B33"/>
<path d="M60.3739 187.698C47.0359 192.552 43.1539 201.654 43.1719 212.406C44.7619 203.436 46.2979 194.34 60.3739 187.698Z" fill="white"/>
<path opacity="0.2" d="M67.226 186.066C44.672 186.432 40.226 200.076 41.846 211.266C42.398 213.6 45.596 215.754 52.418 204.564L46.82 203.592L54.074 202.35L57.212 198L51.86 196.77L59.36 196.032C61.7749 192.552 64.4018 189.223 67.226 186.066Z" fill="white"/>
<path d="M197.3 163.524C191.378 167.64 184.7 170.484 179.762 175.998C170.528 186.294 170.312 202.866 177.566 214.644C184.82 226.422 198.314 233.496 212.054 235.116C226.454 236.82 241.592 232.836 252.902 223.716C264.212 214.596 271.406 200.406 271.4 185.916C271.394 171.426 263.96 156.948 251.804 149.016C240.71 141.816 224.774 139.722 213.644 147.996C208.022 152.196 204.266 158.358 198.644 162.558C198.236 162.882 197.78 163.2 197.3 163.524Z" fill="#E21B33"/>
<path opacity="0.2" d="M197.3 163.524C191.378 167.64 184.7 170.484 179.762 175.998C170.528 186.294 170.312 202.866 177.566 214.644C184.82 226.422 198.314 233.496 212.054 235.116C226.454 236.82 241.592 232.836 252.902 223.716C264.212 214.596 271.406 200.406 271.4 185.916C271.394 171.426 263.96 156.948 251.804 149.016C240.71 141.816 224.774 139.722 213.644 147.996C208.022 152.196 204.266 158.358 198.644 162.558C198.236 162.882 197.78 163.2 197.3 163.524Z" fill="black"/>
<path opacity="0.1" d="M197.3 163.524C191.378 167.64 184.7 170.484 179.762 175.998C170.528 186.294 170.312 202.866 177.566 214.644C184.82 226.422 198.314 233.496 212.054 235.116C226.454 236.82 241.592 232.836 252.902 223.716C264.212 214.596 271.406 200.406 271.4 185.916C271.394 171.426 263.96 156.948 251.804 149.016C240.71 141.816 224.774 139.722 213.644 147.996C208.022 152.196 204.266 158.358 198.644 162.558C198.236 162.882 197.78 163.2 197.3 163.524Z" fill="white"/>
<path opacity="0.1" d="M199.736 223.866C199.736 223.764 199.766 223.668 199.778 223.572C200.273 220.365 201.755 217.391 204.019 215.066C206.283 212.741 209.215 211.18 212.408 210.6C218.133 209.51 223.618 207.411 228.608 204.402C232.142 202.266 235.484 199.644 239.45 198.486C243.31 197.378 247.432 197.617 251.138 199.164C247.802 195.666 242.09 194.124 237.524 195.708C240.68 190.866 243.464 185.658 244.556 179.982C245.648 174.306 244.868 168.072 241.448 163.416C239.992 161.425 238.112 159.782 235.944 158.606C233.775 157.43 231.373 156.749 228.91 156.614C226.447 156.478 223.985 156.891 221.701 157.823C219.417 158.754 217.368 160.181 215.702 162C212.312 165.708 210.404 170.928 208.178 175.428C206.576 178.662 204.926 181.974 202.286 184.428C198.314 188.148 192.59 189.486 188.486 193.044C183.812 197.082 181.796 203.532 181.778 209.706C181.85 213.872 182.455 218.012 183.578 222.024C188.41 226.639 194.176 230.164 200.486 232.362C199.571 229.628 199.314 226.718 199.736 223.866Z" fill="black"/>
<path d="M263.69 183.918C263.502 173.897 259.768 164.268 253.152 156.74C246.536 149.212 237.465 144.273 227.552 142.8C226.176 142.937 224.811 143.165 223.466 143.484C233.892 144.037 243.722 148.519 250.977 156.028C258.232 163.537 262.373 173.515 262.568 183.954C262.838 197.46 256.226 211.23 244.892 220.782C236.012 228.27 224.216 233.238 211.244 235.02C211.52 235.062 211.802 235.098 212.078 235.128C213.242 235.266 214.412 235.362 215.588 235.428C227.108 233.19 237.542 228.444 245.588 221.628C257.204 211.854 263.96 197.76 263.69 183.918Z" fill="white"/>
<path d="M194.504 233.796L195.992 236.742C198.086 234.798 198.47 233.232 198.47 233.232C197.792 230.832 197 228.39 196.604 227.202C196.406 228.858 195.278 230.28 194.804 231.894C194.63 232.514 194.529 233.152 194.504 233.796Z" fill="#37474F"/>
<path d="M194.576 236.814L195.992 236.742L194.504 233.796C194.462 234.792 194.546 235.8 194.576 236.814Z" fill="#263238"/>
<path d="M195.656 223.728C195.143 222.985 194.553 222.297 193.898 221.676C194.257 222.963 194.247 224.325 193.868 225.606C193.43 227.31 192.632 228.912 192.23 230.628C191.744 232.716 191.858 234.96 190.97 236.916C190.531 237.865 189.877 238.699 189.059 239.351C188.241 240.003 187.283 240.455 186.26 240.672C185.506 240.882 184.699 240.785 184.016 240.402C183.729 240.198 183.518 239.905 183.416 239.568C182.971 240.498 182.43 241.379 181.802 242.196C181.106 243.096 180.236 244.092 180.428 245.196C180.541 245.657 180.789 246.074 181.139 246.395C181.489 246.715 181.927 246.924 182.396 246.996C183.336 247.128 184.293 247.048 185.198 246.762C187.187 246.332 189.085 245.559 190.808 244.476C192.544 243.367 193.813 241.659 194.372 239.676C194.576 238.72 194.649 237.741 194.588 236.766C194.588 235.758 194.474 234.744 194.516 233.766C194.539 233.123 194.638 232.484 194.81 231.864C195.29 230.25 196.418 228.828 196.61 227.172C196.61 227.082 196.64 226.998 196.646 226.908C196.659 225.77 196.313 224.657 195.656 223.728Z" fill="#455A64"/>
<path opacity="0.1" d="M195.656 223.728C195.143 222.985 194.553 222.297 193.898 221.676C194.257 222.963 194.247 224.325 193.868 225.606C193.43 227.31 192.632 228.912 192.23 230.628C191.744 232.716 191.858 234.96 190.97 236.916C190.531 237.865 189.877 238.699 189.059 239.351C188.241 240.003 187.283 240.455 186.26 240.672C185.506 240.882 184.699 240.785 184.016 240.402C183.729 240.198 183.518 239.905 183.416 239.568C182.971 240.498 182.43 241.379 181.802 242.196C181.106 243.096 180.236 244.092 180.428 245.196C180.541 245.657 180.789 246.074 181.139 246.395C181.489 246.715 181.927 246.924 182.396 246.996C183.336 247.128 184.293 247.048 185.198 246.762C187.187 246.332 189.085 245.559 190.808 244.476C192.544 243.367 193.813 241.659 194.372 239.676C194.576 238.72 194.649 237.741 194.588 236.766C194.588 235.758 194.474 234.744 194.516 233.766C194.539 233.123 194.638 232.484 194.81 231.864C195.29 230.25 196.418 228.828 196.61 227.172C196.61 227.082 196.64 226.998 196.646 226.908C196.659 225.77 196.313 224.657 195.656 223.728Z" fill="black"/>
<path d="M186.26 240.672C187.283 240.455 188.241 240.003 189.059 239.351C189.877 238.699 190.531 237.865 190.97 236.916C191.858 234.96 191.744 232.716 192.23 230.628C192.632 228.912 193.43 227.31 193.868 225.606C194.247 224.325 194.257 222.963 193.898 221.676C193.73 221.508 193.562 221.34 193.388 221.178C190.856 222.486 187.988 223.578 185.678 225.246C185.728 228.2 185.539 231.154 185.114 234.078C184.8 235.978 184.225 237.826 183.404 239.568C183.506 239.905 183.717 240.198 184.004 240.402C184.344 240.593 184.718 240.715 185.105 240.762C185.492 240.808 185.885 240.778 186.26 240.672Z" fill="#AB6160"/>
<path d="M177.662 232.884C177.248 235.326 175.376 240.3 175.376 240.3C175.376 240.3 184.142 240.654 184.34 240.252L186.914 236.268L177.662 232.884Z" fill="#C48281"/>
<path d="M203.9 174.756L181.55 187.2C179.523 188.329 177.901 190.067 176.914 192.167C175.927 194.267 175.624 196.624 176.048 198.906L180.386 222.306L176.828 233.616C179.9 237.732 186.95 237.942 186.95 237.942C190.886 230.052 193.772 226.704 196.004 220.092C198.236 213.48 199.73 208.92 199.73 208.92L218.33 203.844C222.578 202.689 226.383 200.287 229.253 196.947C232.122 193.608 233.925 189.486 234.428 185.112C234.746 182.304 234.758 180.39 234.758 180.39L203.9 174.756Z" fill="#455A64"/>
<path opacity="0.2" d="M202.4 182.118C202.403 184.614 203.289 187.029 204.902 188.934L190.808 197.736C188.49 199.185 186.773 201.422 185.972 204.036L180.386 222.306L185.426 201.96C186.006 199.62 187.479 197.599 189.53 196.332L202.418 188.4C200.93 184.68 202.4 182.118 202.4 182.118Z" fill="black"/>
<path d="M180.134 251.64L180.338 254.928C183.032 253.968 183.998 252.678 183.998 252.678C184.316 250.2 184.55 247.644 184.658 246.396C183.818 247.842 182.222 248.706 181.148 249.996C180.742 250.499 180.402 251.052 180.134 251.64Z" fill="#37474F"/>
<path d="M179.012 254.436L180.338 254.928L180.134 251.64C179.702 252.534 179.378 253.5 179.012 254.436Z" fill="#263238"/>
<path d="M185.144 242.826C184.965 241.943 184.695 241.08 184.34 240.252C184.163 241.575 183.618 242.823 182.768 243.852C181.694 245.244 180.326 246.402 179.288 247.818C178.016 249.552 177.236 251.658 175.658 253.104C174.88 253.805 173.95 254.315 172.941 254.594C171.932 254.873 170.871 254.914 169.844 254.712C169.07 254.606 168.369 254.198 167.894 253.578C167.705 253.278 167.62 252.923 167.654 252.57C166.88 253.255 166.038 253.858 165.14 254.37C164.144 254.928 162.95 255.498 162.686 256.608C162.615 257.072 162.682 257.547 162.878 257.974C163.074 258.4 163.391 258.76 163.79 259.008C164.601 259.499 165.511 259.803 166.454 259.896C168.453 260.283 170.504 260.318 172.514 259.998C174.541 259.665 176.374 258.597 177.662 256.998C178.228 256.199 178.682 255.327 179.012 254.406C179.378 253.47 179.702 252.504 180.134 251.61C180.402 251.024 180.743 250.473 181.148 249.972C182.222 248.676 183.818 247.812 184.658 246.372C184.7 246.3 184.754 246.228 184.796 246.144C185.259 245.102 185.381 243.941 185.144 242.826Z" fill="#455A64"/>
<path d="M169.844 254.718C170.871 254.92 171.932 254.879 172.941 254.6C173.95 254.321 174.88 253.811 175.658 253.11C177.236 251.664 178.016 249.558 179.288 247.824C180.326 246.408 181.688 245.25 182.768 243.858C183.618 242.829 184.163 241.581 184.34 240.258L184.07 239.598C181.226 239.808 178.154 239.67 175.376 240.306C174.263 243.042 172.928 245.683 171.386 248.202C170.353 249.83 169.097 251.304 167.654 252.582C167.62 252.935 167.705 253.29 167.894 253.59C168.37 254.208 169.071 254.613 169.844 254.718Z" fill="#C48281"/>
<path d="M226.844 141.714C230.487 133.247 230.702 123.697 227.444 115.074C226.4 112.35 224.924 109.674 222.506 108.012C219.41 105.924 215.408 105.954 211.676 106.062C209.696 106.122 207.674 106.182 205.814 106.866C204.887 107.181 204.051 107.716 203.377 108.426C202.702 109.135 202.211 109.998 201.944 110.94C199.502 110.49 197.042 112.416 196.382 114.81C195.722 117.204 196.586 119.808 198.104 121.776C199.622 123.744 201.704 125.154 203.84 126.444C202.556 127.116 201.608 128.664 201.164 130.044C200.72 131.43 200.825 132.933 201.458 134.244C200.308 134.256 199.189 134.62 198.253 135.287C197.316 135.954 196.607 136.893 196.22 137.976C195.908 139.06 195.86 140.203 196.081 141.31C196.301 142.416 196.783 143.454 197.486 144.336C198.919 146.095 200.893 147.332 203.102 147.852C205.299 148.365 207.57 148.487 209.81 148.212C212.126 150.456 216.368 150.408 219.278 149.016C222.188 147.624 225.554 144.666 226.844 141.714Z" fill="#263238"/>
<path d="M206.114 136.08H205.544C201.734 136.122 196.91 138.72 194.552 145.368L185.396 163.104L195.848 167.736L201.566 150.996L206.114 136.08Z" fill="#C48281"/>
<path d="M198.77 147.852C198.044 149.946 197.996 152.202 197.882 154.452C197.768 156.702 197.51 159.336 196.496 161.31C195.379 160.536 194.041 160.145 192.682 160.194C191.324 160.244 190.018 160.732 188.96 161.586C188.2 162.228 187.617 163.054 187.268 163.986L195.848 167.79L201.566 151.05L204.38 141.822C203.093 142.407 201.935 143.241 200.972 144.276C200.009 145.311 199.261 146.526 198.77 147.852Z" fill="#AB6160"/>
<path d="M195.944 164.544C195.548 163.556 194.906 162.686 194.078 162.017C193.25 161.348 192.265 160.902 191.216 160.722C189.122 160.38 186.752 161.478 185.396 163.122C184.256 164.496 184.436 166.362 185.156 168C185.758 169.271 186.781 170.294 188.052 170.896C189.323 171.498 190.764 171.64 192.128 171.3C194.828 170.538 196.964 167.154 195.944 164.544Z" fill="#C48281"/>
<path d="M207.074 135.756C203.042 136.398 200.54 146.598 199.232 150.474C197.876 154.476 199.718 157.38 201.77 159.798C202.141 160.237 202.416 160.749 202.578 161.301C202.741 161.852 202.786 162.432 202.712 163.002L198.5 178.764C210.08 187.362 229.496 183.198 234.764 180.39C234.825 174.884 233.663 169.433 231.362 164.43C229.811 161.199 228.937 157.685 228.794 154.104L228.596 148.32L229.994 138.336L219.938 135.936L211.076 135.54C209.739 135.536 208.403 135.608 207.074 135.756Z" fill="#E21B33"/>
<path opacity="0.4" d="M207.074 135.756C203.042 136.398 200.54 146.598 199.232 150.474C197.876 154.476 199.718 157.38 201.77 159.798C202.141 160.237 202.416 160.749 202.578 161.301C202.741 161.852 202.786 162.432 202.712 163.002L198.5 178.764C210.08 187.362 229.496 183.198 234.764 180.39C234.825 174.884 233.663 169.433 231.362 164.43C229.811 161.199 228.937 157.685 228.794 154.104L228.596 148.32L229.994 138.336L219.938 135.936L211.076 135.54C209.739 135.536 208.403 135.608 207.074 135.756Z" fill="black"/>
<path d="M206.984 181.296C206.984 181.296 206.984 181.296 206.984 181.26C206.984 181.224 206.984 181.224 206.984 181.188V181.152V181.122V181.086L200.144 168.348V168.312V168.276V168.24L200.114 168.198V168.156C200.084 168.114 200.084 168.114 200.054 168.072L200.018 168.036L199.988 167.994V167.964V167.934V167.904L199.886 167.814H199.85H199.82H199.784H199.742L199.7 167.784H199.652L190.7 162.444H190.652H190.61H190.562H190.52H190.478H190.436H190.4H190.358H190.31H190.268H190.22H190.1C190.055 162.445 190.013 162.462 189.98 162.492L189.044 163.566H189.074C188.996 163.626 188.99 163.752 189.104 163.962L195.944 176.7C196.327 177.29 196.845 177.779 197.456 178.128L205.322 182.556C205.724 182.784 205.97 182.79 206.006 182.622C206.006 182.622 206.006 182.682 206.006 182.694L206.948 181.62C206.951 181.604 206.951 181.588 206.948 181.572C206.951 181.558 206.951 181.544 206.948 181.53L206.984 181.296ZM189.248 163.344C189.248 163.344 189.248 163.344 189.302 163.344H189.332H189.248ZM198.248 168.426C198.32 168.486 198.398 168.546 198.464 168.612C198.416 168.546 198.338 168.486 198.266 168.426H198.248ZM206.042 182.4C206.031 182.309 206.002 182.222 205.958 182.142C205.999 182.215 206.027 182.294 206.042 182.376C206.042 182.376 206.036 182.364 206.042 182.4Z" fill="#455A64"/>
<path opacity="0.15" d="M206.984 181.296C206.984 181.296 206.984 181.296 206.984 181.26C206.984 181.224 206.984 181.224 206.984 181.188V181.152V181.122V181.086L200.144 168.348L199.1 169.38L205.946 182.118C205.987 182.191 206.015 182.27 206.03 182.352C206.037 182.377 206.038 182.403 206.033 182.428C206.028 182.453 206.017 182.476 206 182.496L206.942 181.422C206.945 181.406 206.945 181.39 206.942 181.374C206.945 181.36 206.945 181.346 206.942 181.332L206.984 181.296Z" fill="white"/>
<path opacity="0.2" d="M200.03 168.27V168.234V168.198L200 168.156V168.114C199.97 168.072 199.97 168.072 199.94 168.03L199.904 167.994L199.874 167.952V167.922V167.892V167.862L199.772 167.772H199.736H199.706H199.67H199.628L199.586 167.742H199.538L190.7 162.444H190.652H190.61H190.562H190.52H190.478H190.436H190.4H190.358H190.31H190.268H190.22H190.1C190.055 162.445 190.013 162.462 189.98 162.492L189.044 163.566C189.088 163.518 189.166 163.506 189.278 163.53C189.43 163.569 189.575 163.63 189.71 163.71L197.576 168.138C197.734 168.223 197.884 168.322 198.026 168.432C198.177 168.548 198.321 168.672 198.458 168.804C198.591 168.927 198.716 169.059 198.83 169.2C198.928 169.315 199.014 169.44 199.088 169.572L200.03 168.498V168.27Z" fill="white"/>
<path d="M233.852 141.672C232.736 139.758 231.272 138.288 229.052 138.12C229.052 138.12 225.452 139.992 225.452 148.488L225.692 169.746C225.17 169.956 224.648 170.178 224.132 170.394C219.744 172.281 215.157 173.668 210.458 174.528C208.008 172.582 204.958 171.547 201.83 171.6L202.988 173.76C200.792 175.17 195.824 172.632 195.824 172.632C195.458 175.728 197.468 178.944 200.132 180.57C202.796 182.196 228.2 179.808 233.588 176.322C237.134 174.03 236.294 152.112 236.294 152.112C236.538 148.466 235.688 144.831 233.852 141.672Z" fill="#C48281"/>
<path d="M190.454 166.2C190.285 167.036 190.188 167.885 190.166 168.738C190.363 170.77 191.223 172.68 192.614 174.174C192.902 174.502 193.264 174.757 193.67 174.918C193.869 174.996 194.085 175.019 194.296 174.985C194.507 174.951 194.705 174.862 194.87 174.726C195.168 174.369 195.32 173.912 195.296 173.448C195.364 172.76 195.325 172.066 195.182 171.39C195.042 170.706 194.655 170.098 194.096 169.68C193.664 169.424 193.203 169.223 192.722 169.08C192.26 168.878 191.85 168.574 191.522 168.192L190.454 166.2Z" fill="#C48281"/>
<path d="M211.046 131.598V139.626C210.26 140.37 209.504 141.222 209.432 142.284C209.418 142.792 209.545 143.295 209.798 143.736C210.051 144.177 210.42 144.541 210.866 144.786C211.774 145.266 212.834 145.37 213.818 145.074C214.791 144.774 215.683 144.257 216.428 143.562C217.484 142.586 218.336 141.41 218.933 140.101C219.531 138.793 219.862 137.379 219.908 135.942V127.8L211.046 131.598Z" fill="#C48281"/>
<path d="M219.566 127.8C218.726 132.216 217.004 136.044 211.046 137.4V131.568L219.566 127.8Z" fill="#AB6160"/>
<path d="M217.484 123.156C217.397 123.863 217.397 124.579 217.484 125.286C217.582 125.82 217.849 126.308 218.246 126.678C218.439 126.854 218.673 126.979 218.926 127.043C219.18 127.106 219.445 127.107 219.698 127.044C219.53 126.348 219.637 125.614 219.997 124.995C220.357 124.377 220.942 123.921 221.63 123.722C222.318 123.524 223.055 123.599 223.689 123.932C224.323 124.265 224.804 124.829 225.032 125.508C225.173 125.997 225.205 126.512 225.125 127.014C225.046 127.517 224.856 127.997 224.57 128.418C223.991 129.258 223.225 129.952 222.332 130.446C221.818 130.641 221.251 130.65 220.731 130.47C220.212 130.29 219.772 129.933 219.488 129.462C216.926 132.996 212.324 135.756 207.902 135.564C206.691 135.549 205.51 135.187 204.5 134.52C202.784 133.32 202.58 131.358 202.292 129.438C201.877 127.016 201.795 124.55 202.046 122.106C202.448 118.734 203.804 115.374 206.318 113.106C208.1 120.318 214.904 122.724 217.484 123.156Z" fill="#C48281"/>
<path d="M208.268 122.7L205.4 126.546L208.25 127.398L208.268 122.7Z" fill="#AB6160"/>
<path d="M210.902 129.108L208.58 129.948C208.744 130.217 208.992 130.426 209.285 130.543C209.578 130.66 209.901 130.679 210.206 130.596C210.475 130.465 210.69 130.246 210.817 129.975C210.943 129.704 210.974 129.398 210.902 129.108Z" fill="#AB6160"/>
<path opacity="0.3" d="M210.902 129.108L208.58 129.948C208.744 130.217 208.992 130.426 209.285 130.543C209.578 130.66 209.901 130.679 210.206 130.596C210.475 130.465 210.69 130.246 210.817 129.975C210.943 129.704 210.974 129.398 210.902 129.108Z" fill="black"/>
<path d="M209.432 130.59C209.684 130.665 209.953 130.665 210.206 130.59C210.417 130.495 210.597 130.341 210.722 130.146C210.848 129.951 210.915 129.724 210.914 129.492C210.574 129.45 210.231 129.54 209.955 129.743C209.68 129.946 209.492 130.247 209.432 130.584V130.59Z" fill="#AB6160"/>
<path d="M212.456 123.306C212.456 123.472 212.406 123.635 212.314 123.773C212.221 123.912 212.09 124.019 211.936 124.083C211.782 124.146 211.613 124.162 211.45 124.129C211.287 124.096 211.137 124.016 211.02 123.898C210.903 123.78 210.823 123.629 210.791 123.466C210.76 123.303 210.777 123.134 210.842 122.98C210.906 122.827 211.015 122.696 211.154 122.605C211.293 122.513 211.455 122.465 211.622 122.466C211.732 122.466 211.841 122.488 211.942 122.53C212.044 122.572 212.136 122.634 212.214 122.712C212.291 122.79 212.353 122.883 212.394 122.985C212.436 123.087 212.457 123.196 212.456 123.306Z" fill="#263238"/>
<path d="M205.418 123C205.415 123.222 205.324 123.434 205.166 123.59C205.008 123.746 204.794 123.834 204.572 123.834C204.349 123.834 204.135 123.745 203.978 123.588C203.82 123.43 203.732 123.217 203.732 122.994C203.732 122.771 203.82 122.557 203.978 122.4C204.135 122.242 204.349 122.154 204.572 122.154C204.683 122.154 204.793 122.176 204.896 122.218C204.998 122.261 205.092 122.323 205.17 122.402C205.249 122.48 205.311 122.574 205.354 122.676C205.396 122.779 205.418 122.889 205.418 123Z" fill="#263238"/>
<path d="M204.614 119.664L202.748 120.942C202.669 120.711 202.662 120.462 202.729 120.227C202.795 119.992 202.932 119.783 203.12 119.628C203.347 119.494 203.608 119.426 203.872 119.433C204.136 119.439 204.393 119.519 204.614 119.664Z" fill="#263238"/>
<path d="M211.796 119.592L213.65 120.888C213.732 120.658 213.742 120.408 213.679 120.173C213.616 119.937 213.482 119.726 213.296 119.568C213.068 119.432 212.808 119.362 212.542 119.366C212.277 119.37 212.019 119.449 211.796 119.592Z" fill="#263238"/>
</svg>
