<svg width="22" height="22" viewBox="0 0 22 22" fill="none" xmlns="http://www.w3.org/2000/svg">
<path d="M9.7334 11.0469V21.2832L13.1302 19.3226C12.7577 18.6612 12.5567 17.9163 12.5468 17.1559C12.5364 16.3517 12.74 15.5592 13.1367 14.8596C13.5335 14.16 14.1091 13.5785 14.8047 13.1748C15.4997 12.7713 16.2896 12.5597 17.0932 12.5618C17.0938 12.5618 17.0943 12.5618 17.0949 12.5618L17.0934 13.0618C17.5922 13.06 18.087 13.1516 18.5521 13.3318L9.7334 11.0469ZM9.7334 11.0469L18.5284 5.96941V12.792" fill="#E21B33" stroke="white"/>
<mask id="path-2-inside-1_5633_12946" fill="white">
<path d="M9.78125 10.6729L0.687503 5.42289H0.665003C0.642012 5.41317 0.618157 5.40564 0.593753 5.40039H0.455003C0.428026 5.40305 0.401535 5.40936 0.376253 5.41914L0.316253 5.44914L0.256253 5.48664C0.237979 5.50491 0.221643 5.52501 0.207503 5.54664L0.173753 5.58039V5.60289C0.16458 5.6248 0.157059 5.64736 0.151253 5.67039C0.14949 5.69536 0.14949 5.72042 0.151253 5.74539L0.125003 5.74914V16.2491C0.124741 16.3152 0.141944 16.3802 0.17487 16.4375C0.207796 16.4948 0.255276 16.5424 0.312503 16.5754L9.40625 21.8254H9.46625C9.5069 21.8415 9.55005 21.8504 9.59375 21.8516C9.63751 21.8509 9.68075 21.842 9.72125 21.8254H9.75125C9.79036 21.8083 9.82596 21.7842 9.85625 21.7541C9.87827 21.7308 9.89834 21.7057 9.91625 21.6791C9.91625 21.6791 9.91625 21.6791 9.91625 21.6566C9.92542 21.6347 9.93295 21.6122 9.93875 21.5891C9.94051 21.5642 9.94051 21.5391 9.93875 21.5141V10.9991C9.94219 10.9359 9.92955 10.8728 9.90201 10.8157C9.87447 10.7587 9.83292 10.7095 9.78125 10.6729Z"/>
</mask>
<path d="M9.78125 10.6729L0.687503 5.42289H0.665003C0.642012 5.41317 0.618157 5.40564 0.593753 5.40039H0.455003C0.428026 5.40305 0.401535 5.40936 0.376253 5.41914L0.316253 5.44914L0.256253 5.48664C0.237979 5.50491 0.221643 5.52501 0.207503 5.54664L0.173753 5.58039V5.60289C0.16458 5.6248 0.157059 5.64736 0.151253 5.67039C0.14949 5.69536 0.14949 5.72042 0.151253 5.74539L0.125003 5.74914V16.2491C0.124741 16.3152 0.141944 16.3802 0.17487 16.4375C0.207796 16.4948 0.255276 16.5424 0.312503 16.5754L9.40625 21.8254H9.46625C9.5069 21.8415 9.55005 21.8504 9.59375 21.8516C9.63751 21.8509 9.68075 21.842 9.72125 21.8254H9.75125C9.79036 21.8083 9.82596 21.7842 9.85625 21.7541C9.87827 21.7308 9.89834 21.7057 9.91625 21.6791C9.91625 21.6791 9.91625 21.6791 9.91625 21.6566C9.92542 21.6347 9.93295 21.6122 9.93875 21.5891C9.94051 21.5642 9.94051 21.5391 9.93875 21.5141V10.9991C9.94219 10.9359 9.92955 10.8728 9.90201 10.8157C9.87447 10.7587 9.83292 10.7095 9.78125 10.6729Z" fill="#E21B33"/>
<path d="M9.78125 10.6729L10.3598 9.85722L10.3217 9.8302L10.2812 9.80685L9.78125 10.6729ZM0.687503 5.42289L1.18748 4.55685L0.95544 4.42289H0.687503V5.42289ZM0.665003 5.42289L0.275582 6.34395L0.462291 6.42289H0.665003V5.42289ZM0.593753 5.40039L0.803929 4.42273L0.700028 4.40039H0.593753V5.40039ZM0.455003 5.40039V4.40039H0.405757L0.35675 4.40523L0.455003 5.40039ZM0.376253 5.41914L0.0155002 4.48648L-0.0286346 4.50355L-0.0709601 4.52471L0.376253 5.41914ZM0.316253 5.44914L-0.13096 4.55471L-0.173453 4.57596L-0.21374 4.60114L0.316253 5.44914ZM0.256253 5.48664L-0.27374 4.63864L-0.370243 4.69895L-0.450727 4.77941L0.256253 5.48664ZM0.207503 5.54664L0.914611 6.25375L0.987823 6.18053L1.04448 6.09387L0.207503 5.54664ZM0.173753 5.58039L-0.533355 4.87328L-0.826247 5.16618V5.58039H0.173753ZM0.173753 5.60289L1.09616 5.9891L1.17375 5.80379V5.60289H0.173753ZM0.151253 5.67039L-0.818402 5.42591L-0.840033 5.51171L-0.846264 5.59997L0.151253 5.67039ZM0.151253 5.74539L-0.846264 5.81581L-0.844367 5.84269L-0.841025 5.86943L0.151253 5.74539ZM0.125003 5.74914L-0.0164217 4.75919L-0.874997 4.88185V5.74914H0.125003ZM0.125003 16.2491L1.125 16.2531V16.2491H0.125003ZM0.312503 16.5754L-0.187489 17.4414L-0.187477 17.4414L0.312503 16.5754ZM9.40625 21.8254L8.90627 22.6914L9.13832 22.8254H9.40625V21.8254ZM9.46625 21.8254L9.83484 20.8958L9.65727 20.8254H9.46625V21.8254ZM9.59375 21.8516L9.56516 22.8512L9.58812 22.8519L9.61109 22.8515L9.59375 21.8516ZM9.72125 21.8254V20.8254H9.52439L9.34222 20.9L9.72125 21.8254ZM9.75125 21.8254V22.8254H9.95982L10.151 22.742L9.75125 21.8254ZM9.85625 21.7541L10.5604 22.4642L10.572 22.4527L10.5832 22.4408L9.85625 21.7541ZM9.91625 21.6791L10.7458 22.2376L10.9163 21.9844V21.6791H9.91625ZM9.91625 21.6566L8.99384 21.2704L8.91625 21.4557V21.6566H9.91625ZM9.93875 21.5891L10.9084 21.8336L10.93 21.7478L10.9363 21.6596L9.93875 21.5891ZM9.93875 21.5141H8.93875V21.5494L8.94123 21.5846L9.93875 21.5141ZM9.93875 10.9991L8.94023 10.9448L8.93875 10.972V10.9991H9.93875ZM10.2812 9.80685L1.18748 4.55685L0.187523 6.28893L9.28127 11.5389L10.2812 9.80685ZM0.687503 4.42289H0.665003V6.42289H0.687503V4.42289ZM1.05442 4.50183C0.97359 4.46765 0.88972 4.44117 0.803929 4.42273L0.383577 6.37805C0.346593 6.3701 0.310435 6.35869 0.275582 6.34395L1.05442 4.50183ZM0.593753 4.40039H0.455003V6.40039H0.593753V4.40039ZM0.35675 4.40523C0.239842 4.41677 0.125047 4.44411 0.0155002 4.48648L0.737006 6.3518C0.678023 6.37462 0.616211 6.38934 0.553256 6.39555L0.35675 4.40523ZM-0.0709601 4.52471L-0.13096 4.55471L0.763466 6.34357L0.823466 6.31357L-0.0709601 4.52471ZM-0.21374 4.60114L-0.27374 4.63864L0.786246 6.33464L0.846246 6.29714L-0.21374 4.60114ZM-0.450727 4.77941C-0.51773 4.84639 -0.577632 4.92011 -0.629477 4.99941L1.04448 6.09387C1.02092 6.12992 0.993689 6.16343 0.963233 6.19387L-0.450727 4.77941ZM-0.499605 4.83953L-0.533355 4.87328L0.880861 6.2875L0.914611 6.25375L-0.499605 4.83953ZM-0.826247 5.58039V5.60289H1.17375V5.58039H-0.826247ZM-0.748658 5.21668C-0.77709 5.28459 -0.800403 5.35453 -0.818402 5.42591L1.12091 5.91487C1.11452 5.9402 1.10625 5.96501 1.09616 5.9891L-0.748658 5.21668ZM-0.846264 5.59997C-0.851337 5.67183 -0.851337 5.74395 -0.846264 5.81581L1.14877 5.67497C1.15032 5.69689 1.15032 5.71889 1.14877 5.74081L-0.846264 5.59997ZM0.151253 5.74539C0.00982825 4.75544 0.00982816 4.75544 0.00982796 4.75544C0.00982776 4.75544 0.00982746 4.75544 0.00982706 4.75544C0.00982666 4.75544 0.00982616 4.75544 0.00982556 4.75544C0.00982497 4.75544 0.00982427 4.75544 0.00982348 4.75544C0.00980924 4.75544 0.00982659 4.75544 0.00980923 4.75544C0.00880564 4.75559 0.0107688 4.75531 0.00975295 4.75545C0.009734 4.75546 0.00959887 4.75547 0.00953346 4.75548C0.00929252 4.75552 0.0091079 4.75554 0.00870033 4.7556C-0.0139761 4.75884 0.0308192 4.75244 0.00810593 4.75569C0.00749083 4.75578 0.00839218 4.75565 0.00776847 4.75574C0.00775387 4.75574 0.00773921 4.75574 0.00772449 4.75574C0.00770976 4.75574 0.00769497 4.75575 0.00768011 4.75575C0.00766525 4.75575 0.00765034 4.75575 0.00763535 4.75575C0.00762036 4.75576 0.00760531 4.75576 0.0075902 4.75576C0.00757509 4.75576 0.0075599 4.75577 0.00754467 4.75577C0.00752942 4.75577 0.00751412 4.75577 0.00749875 4.75577C0.00748338 4.75578 0.00746795 4.75578 0.00745245 4.75578C0.00743695 4.75578 0.0074214 4.75579 0.00740577 4.75579C-0.0185154 4.75949 0.0331385 4.75211 0.00721534 4.75581C-0.0175201 4.75935 0.0318538 4.7523 0.00711792 4.75583C0.00710156 4.75583 0.00708514 4.75583 0.00706866 4.75584C0.00705218 4.75584 0.00703565 4.75584 0.00701905 4.75584C-0.0143369 4.75889 0.0282751 4.75281 0.00691876 4.75586C0.00690192 4.75586 0.00688503 4.75586 0.00686808 4.75586C0.00685113 4.75587 0.00683412 4.75587 0.00681705 4.75587C0.00679998 4.75587 0.00678286 4.75588 0.00676568 4.75588C0.0067485 4.75588 0.00673126 4.75588 0.00671396 4.75589C0.00669666 4.75589 0.0066793 4.75589 0.0066619 4.75589C0.00664449 4.7559 0.00662702 4.7559 0.00660949 4.7559C-0.0194295 4.75962 0.031793 4.7523 0.0057267 4.75603C-0.00046517 4.75691 0.00371544 4.75631 -0.00329673 4.75732C-0.0073882 4.7579 -0.00166619 4.75708 -0.00574484 4.75767C-0.00577009 4.75767 -0.0057953 4.75767 -0.00582051 4.75768C-0.00584573 4.75768 -0.00587092 4.75768 -0.00589609 4.75769C-0.00592127 4.75769 -0.00594646 4.7577 -0.00597161 4.7577C-0.00599676 4.7577 -0.0060219 4.75771 -0.00604703 4.75771C-0.00789601 4.75797 -0.00449938 4.75749 -0.00634786 4.75775C-0.00637287 4.75776 -0.00639787 4.75776 -0.00642285 4.75776C-0.00644782 4.75777 -0.00647278 4.75777 -0.00649773 4.75777C-0.00652267 4.75778 -0.0065476 4.75778 -0.00657251 4.75778C-0.00659743 4.75779 -0.00662231 4.75779 -0.0066472 4.7578C-0.00667207 4.7578 -0.00669694 4.7578 -0.00672178 4.75781C-0.00674662 4.75781 -0.00677145 4.75781 -0.00679626 4.75782C-0.00682105 4.75782 -0.00684585 4.75782 -0.00687061 4.75783C-0.00689539 4.75783 -0.00692014 4.75783 -0.00694488 4.75784C-0.0075407 4.75792 -0.00753143 4.75792 -0.00811607 4.75801C-0.0420548 4.76285 0.0213109 4.7538 -0.0123202 4.75861C-0.0123394 4.75861 -0.0123586 4.75861 -0.0123777 4.75861C-0.0123968 4.75862 -0.0124159 4.75862 -0.0124349 4.75862C-0.0124539 4.75862 -0.0124729 4.75863 -0.0124918 4.75863C-0.0125107 4.75863 -0.0125296 4.75864 -0.0125484 4.75864C-0.0125673 4.75864 -0.012586 4.75864 -0.0126047 4.75865C-0.0126235 4.75865 -0.0126421 4.75865 -0.0126607 4.75865C-0.0126793 4.75866 -0.0126979 4.75866 -0.0127164 4.75866C-0.0127349 4.75867 -0.0127534 4.75867 -0.0127718 4.75867C-0.0127902 4.75867 -0.0128085 4.75868 -0.0128268 4.75868C-0.0128451 4.75868 -0.0128633 4.75868 -0.0128815 4.75869C-0.0128997 4.75869 -0.0129178 4.75869 -0.0129359 4.75869C-0.012954 4.7587 -0.012972 4.7587 -0.01299 4.7587C-0.013008 4.7587 -0.0130259 4.75871 -0.0130437 4.75871C-0.0130616 4.75871 -0.0130794 4.75871 -0.0130971 4.75872C-0.0131149 4.75872 -0.0131326 4.75872 -0.0131502 4.75872C-0.0131678 4.75873 -0.0131854 4.75873 -0.013203 4.75873C-0.0399063 4.76255 0.0133955 4.75493 -0.0133074 4.75875C-0.0133247 4.75875 -0.0133419 4.75875 -0.0133591 4.75875C-0.0133763 4.75876 -0.0133934 4.75876 -0.0134105 4.75876C-0.013631 4.75879 -0.0133939 4.75876 -0.0136125 4.75879C-0.0136291 4.75879 -0.0136456 4.7588 -0.0136621 4.7588C-0.0136786 4.7588 -0.013695 4.7588 -0.0137114 4.7588C-0.0137277 4.75881 -0.013744 4.75881 -0.0137603 4.75881C-0.0137765 4.75881 -0.0137927 4.75882 -0.0138088 4.75882C-0.0138249 4.75882 -0.013841 4.75882 -0.013857 4.75883C-0.013873 4.75883 -0.0138889 4.75883 -0.0139048 4.75883C-0.0139206 4.75883 -0.0139364 4.75884 -0.0139522 4.75884C-0.0139679 4.75884 -0.0139836 4.75884 -0.0139992 4.75885C-0.0426786 4.76294 0.0144937 4.75478 -0.0141837 4.75887C-0.0141988 4.75887 -0.0142138 4.75888 -0.0142288 4.75888C-0.0142438 4.75888 -0.0142587 4.75888 -0.0142736 4.75888C-0.0142884 4.75889 -0.0143032 4.75889 -0.0143179 4.75889C-0.0143327 4.75889 -0.0143473 4.7589 -0.0143619 4.7589C-0.0143765 4.7589 -0.014391 4.7589 -0.0144055 4.7589C-0.01442 4.75891 -0.0144344 4.75891 -0.0144487 4.75891C-0.014463 4.75891 -0.0144773 4.75891 -0.0144915 4.75892C-0.0145057 4.75892 -0.0145198 4.75892 -0.0145339 4.75892C-0.0145479 4.75892 -0.0145619 4.75893 -0.0145759 4.75893C-0.0145898 4.75893 -0.0146037 4.75893 -0.0146174 4.75893C-0.0146312 4.75894 -0.014645 4.75894 -0.0146586 4.75894C-0.0146723 4.75894 -0.0146859 4.75894 -0.0146994 4.75895C-0.0147129 4.75895 -0.0147264 4.75895 -0.0147397 4.75895C-0.0147531 4.75895 -0.0147664 4.75896 -0.0147797 4.75896C-0.0147929 4.75896 -0.0148061 4.75896 -0.0148192 4.75896C-0.0148323 4.75896 -0.0148453 4.75897 -0.0148583 4.75897C-0.0148712 4.75897 -0.0148841 4.75897 -0.0148969 4.75897C-0.0149098 4.75898 -0.0149225 4.75898 -0.0149352 4.75898C-0.0149479 4.75898 -0.0149605 4.75898 -0.014973 4.75898C-0.0149855 4.75899 -0.014998 4.75899 -0.0150104 4.75899C-0.0150704 4.759 -0.0152432 4.75902 -0.0152938 4.75903C-0.0199507 4.7597 -0.0116366 4.75851 -0.0161269 4.75915C-0.0161329 4.75915 -0.0161389 4.75915 -0.0161447 4.75915C-0.0161505 4.75915 -0.0161563 4.75915 -0.0161619 4.75915C-0.0161676 4.75916 -0.0161731 4.75916 -0.0161786 4.75916C-0.0161841 4.75916 -0.0161895 4.75916 -0.0161948 4.75916C-0.0162001 4.75916 -0.0162053 4.75916 -0.0162104 4.75916C-0.0162155 4.75916 -0.0162206 4.75916 -0.0162255 4.75916C-0.0162305 4.75916 -0.0162353 4.75917 -0.0162401 4.75917C-0.0162448 4.75917 -0.0162495 4.75917 -0.0162541 4.75917C-0.0162587 4.75917 -0.0162632 4.75917 -0.0162676 4.75917C-0.016272 4.75917 -0.0162763 4.75917 -0.0162805 4.75917C-0.0162847 4.75917 -0.0162888 4.75917 -0.0162929 4.75917C-0.0162969 4.75917 -0.0163008 4.75917 -0.0163047 4.75918C-0.0472274 4.76359 0.0145734 4.75476 -0.0163464 4.75918C-0.0163495 4.75918 -0.0163525 4.75918 -0.0163554 4.75918C-0.0163584 4.75918 -0.0163612 4.75918 -0.0163639 4.75918C-0.0163666 4.75918 -0.0163693 4.75918 -0.0163718 4.75918C-0.0163743 4.75918 -0.0163768 4.75919 -0.0163791 4.75919C-0.0163815 4.75919 -0.0163837 4.75919 -0.0163859 4.75919C-0.016388 4.75919 -0.0163901 4.75919 -0.0163921 4.75919C-0.016394 4.75919 -0.0163959 4.75919 -0.0163977 4.75919C-0.0163994 4.75919 -0.0164011 4.75919 -0.0164027 4.75919C-0.0164043 4.75919 -0.0164057 4.75919 -0.0164071 4.75919C-0.0164085 4.75919 -0.0164098 4.75919 -0.016411 4.75919C-0.0164122 4.75919 -0.0164133 4.75919 -0.0164143 4.75919C-0.0164153 4.75919 -0.0164161 4.75919 -0.0164169 4.75919C-0.0164177 4.75919 -0.0164184 4.75919 -0.016419 4.75919C-0.0164196 4.75919 -0.0164201 4.75919 -0.0164205 4.75919C-0.0164209 4.75919 -0.0164212 4.75919 -0.0164214 4.75919C-0.0164216 4.75919 -0.0164217 4.75919 0.125003 5.74914C0.266428 6.73909 0.266428 6.73909 0.266428 6.73909C0.266428 6.73909 0.266428 6.73909 0.266429 6.73909C0.266429 6.73909 0.26643 6.73909 0.26643 6.73909C0.266431 6.73909 0.266432 6.73909 0.266432 6.73909C0.266433 6.73909 0.266434 6.73909 0.266435 6.73909C0.266436 6.73909 0.266437 6.73909 0.266438 6.73909C0.309108 6.73299 0.223776 6.74518 0.266447 6.73909C0.266448 6.73909 0.26645 6.73909 0.266452 6.73909C0.266453 6.73909 0.266455 6.73909 0.266457 6.73909C0.266459 6.73909 0.266461 6.73908 0.266463 6.73908C0.266466 6.73908 0.266468 6.73908 0.26647 6.73908C0.266473 6.73908 0.266475 6.73908 0.266478 6.73908C0.26648 6.73908 0.266483 6.73908 0.266485 6.73908C0.266488 6.73908 0.266491 6.73908 0.266494 6.73908C0.266497 6.73908 0.2665 6.73908 0.266503 6.73908C0.297423 6.73466 0.235622 6.74349 0.266545 6.73907C0.266549 6.73907 0.266552 6.73907 0.266556 6.73907C0.266561 6.73907 0.266565 6.73907 0.266569 6.73907C0.282798 6.73675 0.250366 6.74138 0.266595 6.73907C0.2666 6.73907 0.266605 6.73906 0.266609 6.73906C0.266614 6.73906 0.266619 6.73906 0.266624 6.73906C0.266629 6.73906 0.266634 6.73906 0.266639 6.73906C0.266644 6.73906 0.266649 6.73906 0.266655 6.73906C0.26666 6.73906 0.266665 6.73906 0.266671 6.73906C0.266676 6.73905 0.266682 6.73905 0.266687 6.73905C0.266693 6.73905 0.266699 6.73905 0.266705 6.73905C0.266711 6.73905 0.266716 6.73905 0.266722 6.73905C0.266728 6.73905 0.266735 6.73905 0.266741 6.73905C0.266747 6.73904 0.266753 6.73904 0.26676 6.73904C0.266766 6.73904 0.266772 6.73904 0.266779 6.73904C0.266785 6.73904 0.266792 6.73904 0.266799 6.73904C0.322523 6.73108 0.211156 6.74699 0.266883 6.73902C0.294797 6.73504 0.239014 6.74301 0.266929 6.73902C0.266936 6.73902 0.266944 6.73902 0.266952 6.73901C0.26696 6.73901 0.266968 6.73901 0.266976 6.73901C0.266984 6.73901 0.266992 6.73901 0.267 6.73901C0.267009 6.73901 0.267017 6.73901 0.267025 6.739C0.29737 6.73467 0.236731 6.74333 0.267077 6.739C0.268306 6.73882 0.266286 6.73911 0.267556 6.73893C0.269965 6.73858 0.267607 6.73892 0.270529 6.7385C0.274 6.73801 0.275261 6.73783 0.279553 6.73721C0.281063 6.737 0.287886 6.73602 0.288576 6.73593C0.35165 6.72691 0.227297 6.74468 0.290255 6.73569C0.291465 6.73551 0.289779 6.73575 0.290955 6.73559C0.290969 6.73558 0.290982 6.73558 0.290996 6.73558C0.291009 6.73558 0.291022 6.73558 0.291036 6.73557C0.291049 6.73557 0.291062 6.73557 0.291075 6.73557C0.291088 6.73557 0.291101 6.73556 0.291114 6.73556C0.361361 6.72553 0.221022 6.74558 0.291266 6.73554C0.316385 6.73195 0.266441 6.73909 0.29155 6.7355C0.291927 6.73545 0.292172 6.73541 0.292383 6.73538C0.331175 6.72984 0.25373 6.7409 0.29251 6.73536C0.292541 6.73536 0.292583 6.73535 0.292602 6.73535C0.30206 6.734 0.283163 6.7367 0.29262 6.73535C0.292623 6.73535 0.292625 6.73535 0.292628 6.73535C0.29263 6.73535 0.292633 6.73535 0.292635 6.73535C0.292637 6.73535 0.29264 6.73535 0.292642 6.73534C0.292644 6.73534 0.292646 6.73534 0.292648 6.73534C0.29265 6.73534 0.292652 6.73534 0.292654 6.73534C0.292655 6.73534 0.292657 6.73534 0.292659 6.73534C0.297132 6.7347 0.288194 6.73598 0.292667 6.73534C0.292668 6.73534 0.292669 6.73534 0.29267 6.73534C0.292671 6.73534 0.292672 6.73534 0.292673 6.73534C0.295567 6.73493 0.289783 6.73575 0.292676 6.73534C0.292677 6.73534 0.292677 6.73534 0.292677 6.73534C0.292678 6.73534 0.292678 6.73534 0.151253 5.74539ZM-0.874997 5.74914V16.2491H1.125V5.74914H-0.874997ZM-0.874989 16.2452C-0.875951 16.4875 -0.812874 16.7257 -0.692144 16.9358L1.04188 15.9392C1.09676 16.0347 1.12543 16.143 1.125 16.2531L-0.874989 16.2452ZM-0.692144 16.9358C-0.571412 17.1458 -0.397316 17.3203 -0.187489 17.4414L0.812495 15.7094C0.907869 15.7644 0.987004 15.8437 1.04188 15.9392L-0.692144 16.9358ZM-0.187477 17.4414L8.90627 22.6914L9.90623 20.9594L0.812483 15.7094L-0.187477 17.4414ZM9.40625 22.8254H9.46625V20.8254H9.40625V22.8254ZM9.09766 22.755C9.24669 22.8141 9.40491 22.8466 9.56516 22.8512L9.62234 20.852C9.69518 20.8541 9.7671 20.8689 9.83484 20.8958L9.09766 22.755ZM9.61109 22.8515C9.77899 22.8486 9.94489 22.8144 10.1003 22.7508L9.34222 20.9C9.41661 20.8695 9.49604 20.8532 9.57642 20.8518L9.61109 22.8515ZM9.72125 22.8254H9.75125V20.8254H9.72125V22.8254ZM10.151 22.742C10.3034 22.6755 10.4422 22.5814 10.5604 22.4642L9.15215 21.044C9.20967 20.987 9.27727 20.9411 9.3515 20.9088L10.151 22.742ZM10.5832 22.4408C10.6429 22.3777 10.6972 22.3097 10.7458 22.2376L9.08674 21.1207C9.09944 21.1018 9.11368 21.084 9.1293 21.0675L10.5832 22.4408ZM9.91625 21.6791C10.9163 21.6791 10.9163 21.6791 10.9163 21.6791V21.6791C10.9163 21.6791 10.9163 21.6791 10.9163 21.6791V21.6791C10.9163 21.6791 10.9163 21.6791 10.9163 21.6791C10.9163 21.6791 10.9163 21.6791 10.9163 21.6791C10.9163 21.6791 10.9163 21.6791 10.9163 21.6791V21.6791V21.6791V21.6791C10.9163 21.6791 10.9163 21.6791 10.9163 21.6791V21.6791C10.9163 21.6791 10.9163 21.6791 10.9163 21.6791V21.6791C10.9163 21.6791 10.9163 21.6791 10.9163 21.6791C10.9163 21.6791 10.9163 21.6791 10.9163 21.6791V21.6791V21.6791V21.6791C10.9163 21.6791 10.9163 21.6791 10.9163 21.6791C10.9163 21.6791 10.9163 21.6791 10.9163 21.6791C10.9163 21.6791 10.9163 21.6791 10.9163 21.6791C10.9163 21.6791 10.9163 21.6791 10.9163 21.6791C10.9163 21.6791 10.9163 21.6791 10.9163 21.6791V21.6791V21.6791V21.6791C10.9163 21.6791 10.9163 21.6791 10.9163 21.6791C10.9163 21.6791 10.9163 21.6791 10.9163 21.6791C10.9163 21.6791 10.9163 21.6791 10.9163 21.6791V21.6791C10.9163 21.6791 10.9163 21.6791 10.9163 21.6791C10.9163 21.6791 10.9163 21.6791 10.9163 21.6791V21.6791C10.9163 21.6791 10.9163 21.6791 10.9163 21.6791V21.6791C10.9163 21.6791 10.9163 21.6791 10.9163 21.6791V21.6791C10.9163 21.6791 10.9163 21.6791 10.9163 21.6791C10.9163 21.6791 10.9163 21.6791 10.9163 21.6791V21.6791C10.9163 21.6791 10.9163 21.679 10.9163 21.679C10.9163 21.679 10.9163 21.679 10.9163 21.679C10.9163 21.679 10.9163 21.679 10.9163 21.679C10.9163 21.679 10.9163 21.679 10.9163 21.679C10.9163 21.679 10.9163 21.679 10.9163 21.679C10.9163 21.679 10.9163 21.679 10.9163 21.679C10.9163 21.679 10.9163 21.679 10.9163 21.679C10.9163 21.679 10.9163 21.679 10.9163 21.679C10.9163 21.679 10.9163 21.679 10.9163 21.679C10.9163 21.679 10.9163 21.679 10.9163 21.679C10.9163 21.679 10.9163 21.679 10.9163 21.679C10.9163 21.679 10.9163 21.679 10.9163 21.679C10.9163 21.679 10.9163 21.679 10.9163 21.679C10.9163 21.679 10.9163 21.679 10.9163 21.679C10.9163 21.679 10.9163 21.679 10.9163 21.679C10.9163 21.679 10.9163 21.679 10.9163 21.679C10.9163 21.679 10.9163 21.679 10.9163 21.679C10.9163 21.679 10.9163 21.679 10.9163 21.679C10.9163 21.679 10.9163 21.679 10.9163 21.679C10.9163 21.679 10.9163 21.679 10.9163 21.679C10.9163 21.679 10.9163 21.679 10.9163 21.679C10.9163 21.679 10.9163 21.679 10.9163 21.679C10.9163 21.679 10.9163 21.679 10.9163 21.679C10.9163 21.6789 10.9163 21.6789 10.9163 21.6789C10.9163 21.6789 10.9163 21.6789 10.9163 21.6789C10.9163 21.6789 10.9163 21.6789 10.9163 21.6789C10.9163 21.6789 10.9163 21.6789 10.9163 21.6789C10.9163 21.6789 10.9163 21.6789 10.9163 21.6789C10.9163 21.6789 10.9163 21.6789 10.9163 21.6789C10.9163 21.6789 10.9163 21.6789 10.9163 21.6789C10.9163 21.6789 10.9163 21.6789 10.9163 21.6789C10.9163 21.6789 10.9163 21.6789 10.9163 21.6789C10.9163 21.6789 10.9163 21.6789 10.9163 21.6789C10.9163 21.6789 10.9163 21.6789 10.9163 21.6789C10.9163 21.6789 10.9163 21.6789 10.9163 21.6789C10.9163 21.6789 10.9163 21.6789 10.9163 21.6789C10.9163 21.6789 10.9163 21.6789 10.9163 21.6789C10.9163 21.6789 10.9163 21.6789 10.9163 21.6789C10.9163 21.6789 10.9163 21.6789 10.9163 21.6789C10.9163 21.6788 10.9163 21.6788 10.9163 21.6788C10.9163 21.6788 10.9163 21.6788 10.9163 21.6788C10.9163 21.6788 10.9163 21.6788 10.9163 21.6788C10.9163 21.6788 10.9163 21.6788 10.9163 21.6788C10.9163 21.6788 10.9163 21.6788 10.9163 21.6788C10.9163 21.6788 10.9163 21.6788 10.9163 21.6788C10.9163 21.6788 10.9163 21.6788 10.9163 21.6788C10.9163 21.6788 10.9163 21.6788 10.9163 21.6788C10.9163 21.6788 10.9163 21.6788 10.9163 21.6788C10.9163 21.6788 10.9163 21.6788 10.9163 21.6788C10.9163 21.6788 10.9163 21.6788 10.9163 21.6788C10.9163 21.6788 10.9163 21.6788 10.9163 21.6788C10.9163 21.6788 10.9163 21.6787 10.9163 21.6787C10.9163 21.6787 10.9163 21.6787 10.9163 21.6787C10.9163 21.6787 10.9163 21.6787 10.9163 21.6787C10.9163 21.6787 10.9163 21.6787 10.9163 21.6787C10.9163 21.6787 10.9163 21.6787 10.9163 21.6787C10.9163 21.6787 10.9163 21.6787 10.9163 21.6787C10.9163 21.6787 10.9163 21.6787 10.9163 21.6787C10.9163 21.6787 10.9163 21.6787 10.9163 21.6787C10.9163 21.6787 10.9163 21.6787 10.9163 21.6787C10.9163 21.6787 10.9163 21.6787 10.9163 21.6787C10.9163 21.6787 10.9163 21.6787 10.9163 21.6786C10.9163 21.6786 10.9163 21.6786 10.9163 21.6786C10.9163 21.6786 10.9163 21.6786 10.9163 21.6786C10.9163 21.6786 10.9163 21.6786 10.9163 21.6786C10.9163 21.6786 10.9163 21.6786 10.9163 21.6786C10.9163 21.6786 10.9163 21.6786 10.9163 21.6786C10.9163 21.6786 10.9163 21.6786 10.9163 21.6786C10.9163 21.6786 10.9163 21.6786 10.9163 21.6786C10.9163 21.6786 10.9163 21.6786 10.9163 21.6786C10.9163 21.6786 10.9163 21.6786 10.9163 21.6786C10.9163 21.6785 10.9163 21.6785 10.9163 21.6785C10.9163 21.6785 10.9163 21.6785 10.9163 21.6785C10.9163 21.6785 10.9163 21.6785 10.9163 21.6785C10.9163 21.6785 10.9163 21.6785 10.9163 21.6785C10.9163 21.6785 10.9163 21.6785 10.9163 21.6785C10.9163 21.6785 10.9163 21.6785 10.9163 21.6785C10.9163 21.6785 10.9163 21.6785 10.9163 21.6785C10.9163 21.6785 10.9163 21.6785 10.9163 21.6785C10.9163 21.6784 10.9163 21.6784 10.9163 21.6784C10.9163 21.6784 10.9163 21.6784 10.9163 21.6784C10.9163 21.6784 10.9163 21.6784 10.9163 21.6784C10.9163 21.6784 10.9163 21.6784 10.9163 21.6784C10.9163 21.6784 10.9163 21.6784 10.9163 21.6784C10.9163 21.6784 10.9163 21.6784 10.9163 21.6784C10.9163 21.6784 10.9163 21.6784 10.9163 21.6784C10.9163 21.6784 10.9163 21.6784 10.9163 21.6783C10.9163 21.6783 10.9163 21.6783 10.9163 21.6783C10.9163 21.6783 10.9163 21.6783 10.9163 21.6783C10.9163 21.6783 10.9163 21.6783 10.9163 21.6783C10.9163 21.6783 10.9163 21.6783 10.9163 21.6783C10.9163 21.6783 10.9163 21.6783 10.9163 21.6783C10.9163 21.6783 10.9163 21.6783 10.9163 21.6783C10.9163 21.6783 10.9163 21.6782 10.9163 21.6782C10.9163 21.6782 10.9163 21.6782 10.9163 21.6782C10.9163 21.6782 10.9163 21.6782 10.9163 21.6782C10.9163 21.6782 10.9163 21.6782 10.9163 21.6782C10.9163 21.6782 10.9163 21.6782 10.9163 21.6782C10.9163 21.6782 10.9163 21.6782 10.9163 21.6782C10.9163 21.6782 10.9163 21.6782 10.9163 21.6781C10.9163 21.6781 10.9163 21.6781 10.9163 21.6781C10.9163 21.6781 10.9163 21.6781 10.9163 21.6781C10.9163 21.6781 10.9163 21.6781 10.9163 21.6781C10.9163 21.6781 10.9163 21.6781 10.9163 21.6781C10.9163 21.6781 10.9163 21.6781 10.9163 21.6781C10.9163 21.6781 10.9163 21.6781 10.9163 21.678C10.9163 21.678 10.9163 21.678 10.9163 21.678C10.9163 21.678 10.9163 21.678 10.9163 21.678C10.9163 21.678 10.9163 21.678 10.9163 21.678C10.9163 21.678 10.9163 21.678 10.9163 21.678C10.9163 21.678 10.9163 21.678 10.9163 21.678C10.9163 21.6779 10.9163 21.6779 10.9163 21.6779C10.9163 21.6779 10.9163 21.6779 10.9163 21.6779C10.9163 21.6779 10.9163 21.6779 10.9163 21.6779C10.9163 21.6779 10.9163 21.6779 10.9163 21.6779C10.9163 21.6779 10.9163 21.6779 10.9163 21.6779C10.9163 21.6779 10.9163 21.6778 10.9163 21.6778C10.9163 21.6778 10.9163 21.6778 10.9163 21.6778C10.9163 21.6778 10.9163 21.6778 10.9163 21.6778C10.9163 21.6778 10.9163 21.6778 10.9163 21.6778C10.9163 21.6778 10.9163 21.6778 10.9163 21.6778C10.9163 21.6778 10.9163 21.6777 10.9163 21.6777C10.9163 21.6777 10.9163 21.6777 10.9163 21.6777C10.9163 21.6777 10.9163 21.6777 10.9163 21.6777C10.9163 21.6777 10.9163 21.6777 10.9163 21.6777C10.9163 21.6777 10.9163 21.6777 10.9163 21.6777C10.9163 21.6776 10.9163 21.6776 10.9163 21.6776C10.9163 21.6776 10.9163 21.6776 10.9163 21.6776C10.9163 21.6776 10.9163 21.6776 10.9163 21.6776C10.9163 21.6776 10.9163 21.6776 10.9163 21.6776C10.9163 21.6776 10.9163 21.6776 10.9163 21.6775C10.9163 21.6775 10.9163 21.6775 10.9163 21.6775C10.9163 21.6775 10.9163 21.6775 10.9163 21.6775C10.9163 21.6775 10.9163 21.6775 10.9163 21.6775C10.9163 21.6775 10.9163 21.6775 10.9163 21.6775C10.9163 21.6774 10.9163 21.6774 10.9163 21.6774C10.9163 21.6774 10.9163 21.6774 10.9163 21.6774C10.9163 21.6774 10.9163 21.6774 10.9163 21.6774C10.9163 21.6774 10.9163 21.6774 10.9163 21.6774C10.9163 21.6773 10.9163 21.6773 10.9163 21.6773C10.9163 21.6773 10.9163 21.6773 10.9163 21.6773C10.9163 21.6773 10.9163 21.6773 10.9163 21.6773C10.9163 21.6773 10.9163 21.6773 10.9163 21.6773C10.9163 21.6772 10.9163 21.6772 10.9163 21.6772C10.9163 21.6772 10.9163 21.6772 10.9163 21.6772C10.9163 21.6772 10.9163 21.6772 10.9163 21.6772C10.9163 21.6772 10.9163 21.6772 10.9163 21.6772C10.9163 21.6771 10.9163 21.6771 10.9163 21.6771C10.9163 21.6771 10.9163 21.6771 10.9163 21.6771C10.9163 21.6771 10.9163 21.6771 10.9163 21.6771C10.9163 21.6771 10.9163 21.6771 10.9163 21.677C10.9163 21.677 10.9163 21.677 10.9163 21.677C10.9163 21.677 10.9163 21.677 10.9163 21.677C10.9163 21.677 10.9163 21.677 10.9163 21.677C10.9163 21.677 10.9163 21.6769 10.9163 21.6769C10.9163 21.6769 10.9163 21.6769 10.9163 21.6769C10.9163 21.6769 10.9163 21.6769 10.9163 21.6769C10.9163 21.6769 10.9163 21.6769 10.9163 21.6769C10.9163 21.6768 10.9163 21.6768 10.9163 21.6768C10.9163 21.6768 10.9163 21.6768 10.9163 21.6768C10.9163 21.6768 10.9163 21.6768 10.9163 21.6768C10.9163 21.6768 10.9163 21.6767 10.9163 21.6767C10.9163 21.6767 10.9163 21.6767 10.9163 21.6767C10.9163 21.6767 10.9163 21.6767 10.9163 21.6767C10.9163 21.6767 10.9163 21.6767 10.9163 21.6766C10.9163 21.6766 10.9163 21.6766 10.9163 21.6766C10.9163 21.6766 10.9163 21.6766 10.9163 21.6766C10.9163 21.6766 10.9163 21.6766 10.9163 21.6766C10.9163 21.6765 10.9163 21.6765 10.9163 21.6765C10.9163 21.6765 10.9163 21.6765 10.9163 21.6765C10.9163 21.6765 10.9163 21.6765 10.9163 21.6765C10.9163 21.6764 10.9163 21.6764 10.9163 21.6764C10.9163 21.6764 10.9163 21.6764 10.9163 21.6764C10.9163 21.6764 10.9163 21.6764 10.9163 21.6764C10.9163 21.6763 10.9163 21.6763 10.9163 21.6763C10.9163 21.6763 10.9163 21.6763 10.9163 21.6763C10.9163 21.6763 10.9163 21.6763 10.9163 21.6763C10.9163 21.6763 10.9163 21.6762 10.9163 21.6762C10.9163 21.6762 10.9163 21.6762 10.9163 21.6762C10.9163 21.6762 10.9163 21.6762 10.9163 21.6762C10.9163 21.6761 10.9163 21.6761 10.9163 21.6761C10.9163 21.6761 10.9163 21.6761 10.9163 21.6761C10.9163 21.6761 10.9163 21.6761 10.9163 21.6761C10.9163 21.676 10.9163 21.676 10.9163 21.676C10.9163 21.676 10.9163 21.676 10.9163 21.676C10.9163 21.676 10.9163 21.676 10.9163 21.6759C10.9163 21.6759 10.9163 21.6759 10.9163 21.6759C10.9163 21.6759 10.9163 21.6759 10.9163 21.6759C10.9163 21.6759 10.9163 21.6759 10.9163 21.6758C10.9163 21.6758 10.9163 21.6758 10.9163 21.6758C10.9163 21.6758 10.9163 21.6758 10.9163 21.6758C10.9163 21.6758 10.9163 21.6757 10.9163 21.6757C10.9163 21.6757 10.9163 21.6757 10.9163 21.6757C10.9163 21.6757 10.9163 21.6757 10.9163 21.6757C10.9163 21.6756 10.9163 21.6756 10.9163 21.6756C10.9163 21.6756 10.9163 21.6756 10.9163 21.6756C10.9163 21.6756 10.9163 21.6756 10.9163 21.6755C10.9163 21.6755 10.9163 21.6755 10.9163 21.6755C10.9163 21.6755 10.9163 21.6755 10.9163 21.6755C10.9163 21.6754 10.9163 21.6754 10.9163 21.6754C10.9163 21.6754 10.9163 21.6754 10.9163 21.6754C10.9163 21.6754 10.9163 21.6754 10.9163 21.6753C10.9163 21.6753 10.9163 21.6753 10.9163 21.6753C10.9163 21.6753 10.9163 21.6753 10.9163 21.6753C10.9163 21.6752 10.9163 21.6752 10.9163 21.6752C10.9163 21.6752 10.9163 21.6752 10.9163 21.6752C10.9163 21.6752 10.9163 21.6751 10.9163 21.6751C10.9163 21.6751 10.9163 21.6751 10.9163 21.6751C10.9163 21.6751 10.9163 21.6751 10.9163 21.6751C10.9163 21.675 10.9163 21.675 10.9163 21.675C10.9163 21.675 10.9163 21.675 10.9163 21.675C10.9163 21.675 10.9163 21.6749 10.9163 21.6749C10.9163 21.6749 10.9163 21.6749 10.9163 21.6749C10.9163 21.6749 10.9163 21.6749 10.9163 21.6748C10.9163 21.6748 10.9163 21.6748 10.9163 21.6748C10.9163 21.6748 10.9163 21.6748 10.9163 21.6747C10.9163 21.6747 10.9163 21.6747 10.9163 21.6747C10.9163 21.6747 10.9163 21.6747 10.9163 21.6747C10.9163 21.6746 10.9163 21.6746 10.9163 21.6746C10.9163 21.6746 10.9163 21.6746 10.9163 21.6746C10.9163 21.6746 10.9163 21.6745 10.9163 21.6745C10.9163 21.6745 10.9163 21.6745 10.9163 21.6745C10.9163 21.6745 10.9163 21.6744 10.9163 21.6744C10.9163 21.6744 10.9163 21.6744 10.9163 21.6744C10.9163 21.6744 10.9163 21.6744 10.9163 21.6743C10.9163 21.6743 10.9163 21.6743 10.9163 21.6743C10.9163 21.6743 10.9163 21.6743 10.9163 21.6742C10.9163 21.6742 10.9163 21.6742 10.9163 21.6742C10.9163 21.6742 10.9163 21.6742 10.9163 21.6741C10.9163 21.6741 10.9163 21.6741 10.9163 21.6741C10.9163 21.6741 10.9163 21.6741 10.9163 21.674C10.9163 21.674 10.9163 21.674 10.9163 21.674C10.9163 21.674 10.9163 21.674 10.9163 21.674C10.9163 21.6739 10.9163 21.6739 10.9163 21.6739C10.9163 21.6739 10.9163 21.6739 10.9163 21.6739C10.9163 21.6738 10.9163 21.6738 10.9163 21.6738C10.9163 21.6738 10.9163 21.6738 10.9163 21.6737C10.9163 21.6737 10.9163 21.6737 10.9163 21.6737C10.9163 21.6737 10.9163 21.6737 10.9163 21.6736C10.9163 21.6736 10.9163 21.6736 10.9163 21.6736C10.9163 21.6736 10.9163 21.6736 10.9163 21.6735C10.9163 21.6735 10.9163 21.6735 10.9163 21.6735C10.9163 21.6735 10.9163 21.6735 10.9163 21.6734C10.9163 21.6734 10.9163 21.6734 10.9163 21.6734C10.9163 21.6734 10.9163 21.6733 10.9163 21.6733C10.9163 21.6733 10.9163 21.6733 10.9163 21.6733C10.9163 21.6733 10.9163 21.6732 10.9163 21.6732C10.9163 21.6732 10.9163 21.6732 10.9163 21.6732C10.9163 21.6732 10.9163 21.6731 10.9163 21.6731C10.9163 21.6731 10.9163 21.6731 10.9163 21.6731C10.9163 21.673 10.9163 21.673 10.9163 21.673C10.9163 21.673 10.9163 21.673 10.9163 21.673C10.9163 21.6729 10.9163 21.6729 10.9163 21.6729C10.9163 21.6729 10.9163 21.6729 10.9163 21.6728C10.9163 21.6728 10.9163 21.6728 10.9163 21.6728C10.9163 21.6728 10.9163 21.6727 10.9163 21.6727C10.9163 21.6727 10.9163 21.6727 10.9163 21.6727C10.9163 21.6726 10.9163 21.6726 10.9163 21.6726C10.9163 21.6726 10.9163 21.6726 10.9163 21.6726C10.9163 21.6725 10.9163 21.6725 10.9163 21.6725C10.9163 21.6725 10.9163 21.6725 10.9163 21.6724C10.9163 21.6724 10.9163 21.6724 10.9163 21.6724C10.9163 21.6724 10.9163 21.6723 10.9163 21.6723C10.9163 21.6723 10.9163 21.6723 10.9163 21.6723C10.9163 21.6722 10.9163 21.6722 10.9163 21.6722C10.9163 21.6722 10.9163 21.6722 10.9163 21.6721C10.9163 21.6721 10.9163 21.6721 10.9163 21.6721C10.9163 21.6721 10.9163 21.672 10.9163 21.672C10.9163 21.672 10.9163 21.672 10.9163 21.672C10.9163 21.6719 10.9163 21.6719 10.9163 21.6719C10.9163 21.6719 10.9163 21.6719 10.9163 21.6718C10.9163 21.6718 10.9163 21.6718 10.9163 21.6718C10.9163 21.6717 10.9163 21.6717 10.9163 21.6717C10.9163 21.6717 10.9163 21.6717 10.9163 21.6716C10.9163 21.6716 10.9163 21.6716 10.9163 21.6716C10.9163 21.6716 10.9163 21.6715 10.9163 21.6715C10.9163 21.6715 10.9163 21.6715 10.9163 21.6714C10.9163 21.6714 10.9163 21.6714 10.9163 21.6714C10.9163 21.6714 10.9163 21.6713 10.9163 21.6713C10.9163 21.6713 10.9163 21.6713 10.9163 21.6713C10.9163 21.6712 10.9163 21.6712 10.9163 21.6712C10.9163 21.6712 10.9163 21.6711 10.9163 21.6711C10.9163 21.6711 10.9163 21.6711 10.9163 21.6711C10.9163 21.671 10.9163 21.671 10.9163 21.671C10.9163 21.671 10.9163 21.6709 10.9163 21.6709C10.9163 21.6709 10.9163 21.6709 10.9163 21.6709C10.9163 21.6708 10.9163 21.6708 10.9163 21.6708C10.9163 21.6708 10.9163 21.6707 10.9163 21.6707C10.9163 21.6707 10.9163 21.6707 10.9163 21.6706C10.9163 21.6706 10.9163 21.6706 10.9163 21.6706C10.9163 21.6706 10.9163 21.6705 10.9163 21.6705C10.9163 21.6705 10.9163 21.6705 10.9163 21.6704C10.9163 21.6704 10.9163 21.6704 10.9163 21.6704C10.9163 21.6703 10.9163 21.6703 10.9163 21.6703C10.9163 21.6703 10.9163 21.6703 10.9163 21.6702C10.9163 21.6702 10.9163 21.6702 10.9163 21.6702C10.9163 21.6701 10.9163 21.6701 10.9163 21.6701C10.9163 21.6701 10.9163 21.67 10.9163 21.67C10.9163 21.67 10.9163 21.67 10.9163 21.6699C10.9163 21.6699 10.9163 21.6699 10.9163 21.6699C10.9163 21.6698 10.9163 21.6698 10.9163 21.6698C10.9163 21.6698 10.9163 21.6697 10.9163 21.6697C10.9163 21.6697 10.9163 21.6697 10.9163 21.6696C10.9163 21.6696 10.9163 21.6696 10.9163 21.6696C10.9163 21.6695 10.9163 21.6695 10.9163 21.6695C10.9163 21.6695 10.9163 21.6694 10.9163 21.6694C10.9163 21.6694 10.9163 21.6694 10.9163 21.6693C10.9163 21.6693 10.9163 21.6693 10.9163 21.6693C10.9163 21.6692 10.9163 21.6692 10.9163 21.6692C10.9163 21.6692 10.9163 21.6691 10.9163 21.6691C10.9163 21.6691 10.9163 21.6691 10.9163 21.669C10.9163 21.669 10.9163 21.669 10.9163 21.669C10.9163 21.6689 10.9163 21.6689 10.9163 21.6689C10.9163 21.6689 10.9163 21.6688 10.9163 21.6688C10.9163 21.6688 10.9163 21.6688 10.9163 21.6687C10.9163 21.6687 10.9163 21.6687 10.9163 21.6687C10.9163 21.6686 10.9163 21.6686 10.9163 21.6686C10.9163 21.6685 10.9163 21.6685 10.9163 21.6685C10.9163 21.6685 10.9163 21.6684 10.9163 21.6684C10.9163 21.6684 10.9163 21.6684 10.9163 21.6683C10.9163 21.6683 10.9163 21.6683 10.9163 21.6682C10.9163 21.6682 10.9163 21.6682 10.9163 21.6682C10.9163 21.6681 10.9163 21.6681 10.9163 21.6681C10.9163 21.6681 10.9163 21.668 10.9163 21.668C10.9163 21.668 10.9163 21.6679 10.9163 21.6679C10.9163 21.6679 10.9163 21.6679 10.9163 21.6678C10.9163 21.6678 10.9163 21.6678 10.9163 21.6678C10.9163 21.6677 10.9163 21.6677 10.9163 21.6677C10.9163 21.6676 10.9163 21.6676 10.9163 21.6676C10.9163 21.6676 10.9163 21.6675 10.9163 21.6675C10.9163 21.6675 10.9163 21.6674 10.9163 21.6674C10.9163 21.6674 10.9163 21.6674 10.9163 21.6673C10.9163 21.6673 10.9163 21.6673 10.9163 21.6672C10.9163 21.6672 10.9163 21.6672 10.9163 21.6672C10.9163 21.6671 10.9163 21.6671 10.9163 21.6671C10.9163 21.667 10.9163 21.667 10.9163 21.667C10.9163 21.667 10.9163 21.6669 10.9163 21.6669C10.9163 21.6669 10.9163 21.6668 10.9163 21.6668C10.9163 21.6668 10.9163 21.6667 10.9163 21.6667C10.9163 21.6667 10.9163 21.6667 10.9163 21.6666C10.9163 21.6666 10.9163 21.6666 10.9163 21.6665C10.9163 21.6665 10.9163 21.6665 10.9163 21.6665C10.9163 21.6664 10.9163 21.6664 10.9163 21.6664C10.9163 21.6663 10.9163 21.6663 10.9163 21.6663C10.9163 21.6662 10.9163 21.6662 10.9163 21.6662C10.9163 21.6661 10.9163 21.6661 10.9163 21.6661C10.9163 21.6661 10.9163 21.666 10.9163 21.666C10.9163 21.666 10.9163 21.6659 10.9163 21.6659C10.9163 21.6659 10.9163 21.6658 10.9163 21.6658C10.9163 21.6658 10.9163 21.6658 10.9163 21.6657C10.9163 21.6657 10.9163 21.6657 10.9163 21.6656C10.9163 21.6656 10.9163 21.6656 10.9163 21.6655C10.9163 21.6655 10.9163 21.6655 10.9163 21.6654C10.9163 21.6654 10.9163 21.6654 10.9163 21.6653C10.9163 21.6653 10.9163 21.6653 10.9163 21.6652C10.9163 21.6652 10.9163 21.6652 10.9163 21.6651C10.9163 21.6651 10.9163 21.6651 10.9163 21.6651C10.9163 21.665 10.9163 21.665 10.9163 21.665C10.9163 21.6649 10.9163 21.6649 10.9163 21.6649C10.9163 21.6648 10.9163 21.6648 10.9163 21.6648C10.9163 21.6647 10.9163 21.6647 10.9163 21.6647C10.9163 21.6646 10.9163 21.6646 10.9163 21.6646C10.9163 21.6645 10.9163 21.6645 10.9163 21.6645C10.9163 21.6644 10.9163 21.6644 10.9163 21.6644C10.9163 21.6643 10.9163 21.6643 10.9163 21.6643C10.9163 21.6642 10.9163 21.6642 10.9163 21.6642C10.9163 21.6641 10.9163 21.6641 10.9163 21.6641C10.9163 21.664 10.9163 21.664 10.9163 21.664C10.9163 21.6639 10.9163 21.6639 10.9163 21.6639C10.9163 21.6638 10.9163 21.6638 10.9163 21.6638C10.9163 21.6637 10.9163 21.6637 10.9163 21.6637C10.9163 21.6636 10.9163 21.6636 10.9163 21.6636C10.9163 21.6635 10.9163 21.6635 10.9163 21.6635C10.9163 21.6634 10.9163 21.6634 10.9163 21.6633C10.9163 21.6633 10.9163 21.6633 10.9163 21.6632C10.9163 21.6632 10.9163 21.6632 10.9163 21.6631C10.9163 21.6631 10.9163 21.6631 10.9163 21.663C10.9163 21.663 10.9163 21.663 10.9163 21.6629C10.9163 21.6629 10.9163 21.6629 10.9163 21.6628C10.9163 21.6628 10.9163 21.6628 10.9163 21.6627C10.9163 21.6627 10.9163 21.6626 10.9163 21.6626C10.9163 21.6626 10.9163 21.6625 10.9163 21.6625C10.9163 21.6625 10.9163 21.6624 10.9163 21.6624C10.9163 21.6624 10.9163 21.6623 10.9163 21.6623C10.9163 21.6622 10.9163 21.6622 10.9163 21.6622C10.9163 21.6621 10.9163 21.6621 10.9163 21.6621C10.9163 21.662 10.9163 21.662 10.9163 21.662C10.9163 21.6619 10.9163 21.6619 10.9163 21.6618C10.9163 21.6618 10.9163 21.6618 10.9163 21.6617C10.9163 21.6617 10.9163 21.6617 10.9163 21.6616C10.9163 21.6616 10.9163 21.6616 10.9163 21.6615C10.9163 21.6615 10.9163 21.6614 10.9163 21.6614C10.9163 21.6614 10.9163 21.6613 10.9163 21.6613C10.9163 21.6612 10.9163 21.6612 10.9163 21.6612C10.9163 21.6611 10.9163 21.6611 10.9163 21.6611C10.9163 21.661 10.9163 21.661 10.9163 21.6609C10.9163 21.6609 10.9163 21.6609 10.9163 21.6608C10.9163 21.6608 10.9163 21.6608 10.9163 21.6607C10.9163 21.6607 10.9163 21.6606 10.9163 21.6606C10.9163 21.6606 10.9163 21.6605 10.9163 21.6605C10.9163 21.6604 10.9163 21.6604 10.9163 21.6604C10.9163 21.6603 10.9163 21.6603 10.9163 21.6603C10.9163 21.6602 10.9163 21.6602 10.9163 21.6601C10.9163 21.6601 10.9163 21.6601 10.9163 21.66C10.9163 21.66 10.9163 21.6599 10.9163 21.6599C10.9163 21.6599 10.9163 21.6598 10.9163 21.6598C10.9163 21.6597 10.9163 21.6597 10.9163 21.6597C10.9163 21.6596 10.9163 21.6596 10.9163 21.6595C10.9163 21.6595 10.9163 21.6595 10.9163 21.6594C10.9163 21.6594 10.9163 21.6593 10.9163 21.6593C10.9163 21.6593 10.9163 21.6592 10.9163 21.6592C10.9163 21.6591 10.9163 21.6591 10.9163 21.6591C10.9163 21.659 10.9163 21.659 10.9163 21.6589C10.9163 21.6589 10.9163 21.6588 10.9163 21.6588C10.9163 21.6588 10.9163 21.6587 10.9163 21.6587C10.9163 21.6586 10.9163 21.6586 10.9163 21.6586C10.9163 21.6585 10.9163 21.6585 10.9163 21.6584C10.9163 21.6584 10.9163 21.6584 10.9163 21.6583C10.9163 21.6583 10.9163 21.6582 10.9163 21.6582C10.9163 21.6581 10.9163 21.6581 10.9163 21.6581C10.9163 21.658 10.9163 21.658 10.9163 21.6579C10.9163 21.6579 10.9163 21.6578 10.9163 21.6578C10.9163 21.6578 10.9163 21.6577 10.9163 21.6577C10.9163 21.6576 10.9163 21.6576 10.9163 21.6576C10.9163 21.6575 10.9163 21.6575 10.9163 21.6574C10.9163 21.6574 10.9163 21.6573 10.9163 21.6573C10.9163 21.6572 10.9163 21.6572 10.9163 21.6572C10.9163 21.6571 10.9163 21.6571 10.9163 21.657C10.9163 21.657 10.9163 21.6569 10.9163 21.6569C10.9163 21.6569 10.9163 21.6568 10.9163 21.6568C10.9163 21.6567 10.9163 21.6567 10.9163 21.6566H8.91625C8.91625 21.6567 8.91625 21.6567 8.91625 21.6568C8.91625 21.6568 8.91625 21.6569 8.91625 21.6569C8.91625 21.6569 8.91625 21.657 8.91625 21.657C8.91625 21.6571 8.91625 21.6571 8.91625 21.6572C8.91625 21.6572 8.91625 21.6572 8.91625 21.6573C8.91625 21.6573 8.91625 21.6574 8.91625 21.6574C8.91625 21.6575 8.91625 21.6575 8.91625 21.6576C8.91625 21.6576 8.91625 21.6576 8.91625 21.6577C8.91625 21.6577 8.91625 21.6578 8.91625 21.6578C8.91625 21.6578 8.91625 21.6579 8.91625 21.6579C8.91625 21.658 8.91625 21.658 8.91625 21.6581C8.91625 21.6581 8.91625 21.6581 8.91625 21.6582C8.91625 21.6582 8.91625 21.6583 8.91625 21.6583C8.91625 21.6584 8.91625 21.6584 8.91625 21.6584C8.91625 21.6585 8.91625 21.6585 8.91625 21.6586C8.91625 21.6586 8.91625 21.6586 8.91625 21.6587C8.91625 21.6587 8.91625 21.6588 8.91625 21.6588C8.91625 21.6588 8.91625 21.6589 8.91625 21.6589C8.91625 21.659 8.91625 21.659 8.91625 21.6591C8.91625 21.6591 8.91625 21.6591 8.91625 21.6592C8.91625 21.6592 8.91625 21.6593 8.91625 21.6593C8.91625 21.6593 8.91625 21.6594 8.91625 21.6594C8.91625 21.6595 8.91625 21.6595 8.91625 21.6595C8.91625 21.6596 8.91625 21.6596 8.91625 21.6597C8.91625 21.6597 8.91625 21.6597 8.91625 21.6598C8.91625 21.6598 8.91625 21.6599 8.91625 21.6599C8.91625 21.6599 8.91625 21.66 8.91625 21.66C8.91625 21.6601 8.91625 21.6601 8.91625 21.6601C8.91625 21.6602 8.91625 21.6602 8.91625 21.6603C8.91625 21.6603 8.91625 21.6603 8.91625 21.6604C8.91625 21.6604 8.91625 21.6604 8.91625 21.6605C8.91625 21.6605 8.91625 21.6606 8.91625 21.6606C8.91625 21.6606 8.91625 21.6607 8.91625 21.6607C8.91625 21.6608 8.91625 21.6608 8.91625 21.6608C8.91625 21.6609 8.91625 21.6609 8.91625 21.6609C8.91625 21.661 8.91625 21.661 8.91625 21.6611C8.91625 21.6611 8.91625 21.6611 8.91625 21.6612C8.91625 21.6612 8.91625 21.6612 8.91625 21.6613C8.91625 21.6613 8.91625 21.6614 8.91625 21.6614C8.91625 21.6614 8.91625 21.6615 8.91625 21.6615C8.91625 21.6616 8.91625 21.6616 8.91625 21.6616C8.91625 21.6617 8.91625 21.6617 8.91625 21.6617C8.91625 21.6618 8.91625 21.6618 8.91625 21.6618C8.91625 21.6619 8.91625 21.6619 8.91625 21.662C8.91625 21.662 8.91625 21.662 8.91625 21.6621C8.91625 21.6621 8.91625 21.6621 8.91625 21.6622C8.91625 21.6622 8.91625 21.6622 8.91625 21.6623C8.91625 21.6623 8.91625 21.6624 8.91625 21.6624C8.91625 21.6624 8.91625 21.6625 8.91625 21.6625C8.91625 21.6625 8.91625 21.6626 8.91625 21.6626C8.91625 21.6626 8.91625 21.6627 8.91625 21.6627C8.91625 21.6628 8.91625 21.6628 8.91625 21.6628C8.91625 21.6629 8.91625 21.6629 8.91625 21.6629C8.91625 21.663 8.91625 21.663 8.91625 21.663C8.91625 21.6631 8.91625 21.6631 8.91625 21.6631C8.91625 21.6632 8.91625 21.6632 8.91625 21.6632C8.91625 21.6633 8.91625 21.6633 8.91625 21.6633C8.91625 21.6634 8.91625 21.6634 8.91625 21.6635C8.91625 21.6635 8.91625 21.6635 8.91625 21.6636C8.91625 21.6636 8.91625 21.6636 8.91625 21.6637C8.91625 21.6637 8.91625 21.6637 8.91625 21.6638C8.91625 21.6638 8.91625 21.6638 8.91625 21.6639C8.91625 21.6639 8.91625 21.6639 8.91625 21.664C8.91625 21.664 8.91625 21.664 8.91625 21.6641C8.91625 21.6641 8.91625 21.6641 8.91625 21.6642C8.91625 21.6642 8.91625 21.6642 8.91625 21.6643C8.91625 21.6643 8.91625 21.6643 8.91625 21.6644C8.91625 21.6644 8.91625 21.6644 8.91625 21.6645C8.91625 21.6645 8.91625 21.6645 8.91625 21.6646C8.91625 21.6646 8.91625 21.6646 8.91625 21.6647C8.91625 21.6647 8.91625 21.6647 8.91625 21.6648C8.91625 21.6648 8.91625 21.6648 8.91625 21.6649C8.91625 21.6649 8.91625 21.6649 8.91625 21.665C8.91625 21.665 8.91625 21.665 8.91625 21.6651C8.91625 21.6651 8.91625 21.6651 8.91625 21.6651C8.91625 21.6652 8.91625 21.6652 8.91625 21.6652C8.91625 21.6653 8.91625 21.6653 8.91625 21.6653C8.91625 21.6654 8.91625 21.6654 8.91625 21.6654C8.91625 21.6655 8.91625 21.6655 8.91625 21.6655C8.91625 21.6656 8.91625 21.6656 8.91625 21.6656C8.91625 21.6657 8.91625 21.6657 8.91625 21.6657C8.91625 21.6658 8.91625 21.6658 8.91625 21.6658C8.91625 21.6658 8.91625 21.6659 8.91625 21.6659C8.91625 21.6659 8.91625 21.666 8.91625 21.666C8.91625 21.666 8.91625 21.6661 8.91625 21.6661C8.91625 21.6661 8.91625 21.6661 8.91625 21.6662C8.91625 21.6662 8.91625 21.6662 8.91625 21.6663C8.91625 21.6663 8.91625 21.6663 8.91625 21.6664C8.91625 21.6664 8.91625 21.6664 8.91625 21.6665C8.91625 21.6665 8.91625 21.6665 8.91625 21.6665C8.91625 21.6666 8.91625 21.6666 8.91625 21.6666C8.91625 21.6667 8.91625 21.6667 8.91625 21.6667C8.91625 21.6667 8.91625 21.6668 8.91625 21.6668C8.91625 21.6668 8.91625 21.6669 8.91625 21.6669C8.91625 21.6669 8.91625 21.667 8.91625 21.667C8.91625 21.667 8.91625 21.667 8.91625 21.6671C8.91625 21.6671 8.91625 21.6671 8.91625 21.6672C8.91625 21.6672 8.91625 21.6672 8.91625 21.6672C8.91625 21.6673 8.91625 21.6673 8.91625 21.6673C8.91625 21.6674 8.91625 21.6674 8.91625 21.6674C8.91625 21.6674 8.91625 21.6675 8.91625 21.6675C8.91625 21.6675 8.91625 21.6676 8.91625 21.6676C8.91625 21.6676 8.91625 21.6676 8.91625 21.6677C8.91625 21.6677 8.91625 21.6677 8.91625 21.6678C8.91625 21.6678 8.91625 21.6678 8.91625 21.6678C8.91625 21.6679 8.91625 21.6679 8.91625 21.6679C8.91625 21.6679 8.91625 21.668 8.91625 21.668C8.91625 21.668 8.91625 21.6681 8.91625 21.6681C8.91625 21.6681 8.91625 21.6681 8.91625 21.6682C8.91625 21.6682 8.91625 21.6682 8.91625 21.6682C8.91625 21.6683 8.91625 21.6683 8.91625 21.6683C8.91625 21.6684 8.91625 21.6684 8.91625 21.6684C8.91625 21.6684 8.91625 21.6685 8.91625 21.6685C8.91625 21.6685 8.91625 21.6685 8.91625 21.6686C8.91625 21.6686 8.91625 21.6686 8.91625 21.6687C8.91625 21.6687 8.91625 21.6687 8.91625 21.6687C8.91625 21.6688 8.91625 21.6688 8.91625 21.6688C8.91625 21.6688 8.91625 21.6689 8.91625 21.6689C8.91625 21.6689 8.91625 21.6689 8.91625 21.669C8.91625 21.669 8.91625 21.669 8.91625 21.669C8.91625 21.6691 8.91625 21.6691 8.91625 21.6691C8.91625 21.6691 8.91625 21.6692 8.91625 21.6692C8.91625 21.6692 8.91625 21.6692 8.91625 21.6693C8.91625 21.6693 8.91625 21.6693 8.91625 21.6693C8.91625 21.6694 8.91625 21.6694 8.91625 21.6694C8.91625 21.6694 8.91625 21.6695 8.91625 21.6695C8.91625 21.6695 8.91625 21.6695 8.91625 21.6696C8.91625 21.6696 8.91625 21.6696 8.91625 21.6696C8.91625 21.6697 8.91625 21.6697 8.91625 21.6697C8.91625 21.6697 8.91625 21.6698 8.91625 21.6698C8.91625 21.6698 8.91625 21.6698 8.91625 21.6699C8.91625 21.6699 8.91625 21.6699 8.91625 21.6699C8.91625 21.67 8.91625 21.67 8.91625 21.67C8.91625 21.67 8.91625 21.6701 8.91625 21.6701C8.91625 21.6701 8.91625 21.6701 8.91625 21.6702C8.91625 21.6702 8.91625 21.6702 8.91625 21.6702C8.91625 21.6703 8.91625 21.6703 8.91625 21.6703C8.91625 21.6703 8.91625 21.6703 8.91625 21.6704C8.91625 21.6704 8.91625 21.6704 8.91625 21.6704C8.91625 21.6705 8.91625 21.6705 8.91625 21.6705C8.91625 21.6705 8.91625 21.6706 8.91625 21.6706C8.91625 21.6706 8.91625 21.6706 8.91625 21.6706C8.91625 21.6707 8.91625 21.6707 8.91625 21.6707C8.91625 21.6707 8.91625 21.6708 8.91625 21.6708C8.91625 21.6708 8.91625 21.6708 8.91625 21.6709C8.91625 21.6709 8.91625 21.6709 8.91625 21.6709C8.91625 21.6709 8.91625 21.671 8.91625 21.671C8.91625 21.671 8.91625 21.671 8.91625 21.6711C8.91625 21.6711 8.91625 21.6711 8.91625 21.6711C8.91625 21.6711 8.91625 21.6712 8.91625 21.6712C8.91625 21.6712 8.91625 21.6712 8.91625 21.6713C8.91625 21.6713 8.91625 21.6713 8.91625 21.6713C8.91625 21.6713 8.91625 21.6714 8.91625 21.6714C8.91625 21.6714 8.91625 21.6714 8.91625 21.6714C8.91625 21.6715 8.91625 21.6715 8.91625 21.6715C8.91625 21.6715 8.91625 21.6716 8.91625 21.6716C8.91625 21.6716 8.91625 21.6716 8.91625 21.6716C8.91625 21.6717 8.91625 21.6717 8.91625 21.6717C8.91625 21.6717 8.91625 21.6717 8.91625 21.6718C8.91625 21.6718 8.91625 21.6718 8.91625 21.6718C8.91625 21.6719 8.91625 21.6719 8.91625 21.6719C8.91625 21.6719 8.91625 21.6719 8.91625 21.672C8.91625 21.672 8.91625 21.672 8.91625 21.672C8.91625 21.672 8.91625 21.6721 8.91625 21.6721C8.91625 21.6721 8.91625 21.6721 8.91625 21.6721C8.91625 21.6722 8.91625 21.6722 8.91625 21.6722C8.91625 21.6722 8.91625 21.6722 8.91625 21.6723C8.91625 21.6723 8.91625 21.6723 8.91625 21.6723C8.91625 21.6723 8.91625 21.6724 8.91625 21.6724C8.91625 21.6724 8.91625 21.6724 8.91625 21.6724C8.91625 21.6725 8.91625 21.6725 8.91625 21.6725C8.91625 21.6725 8.91625 21.6725 8.91625 21.6726C8.91625 21.6726 8.91625 21.6726 8.91625 21.6726C8.91625 21.6726 8.91625 21.6726 8.91625 21.6727C8.91625 21.6727 8.91625 21.6727 8.91625 21.6727C8.91625 21.6727 8.91625 21.6728 8.91625 21.6728C8.91625 21.6728 8.91625 21.6728 8.91625 21.6728C8.91625 21.6729 8.91625 21.6729 8.91625 21.6729C8.91625 21.6729 8.91625 21.6729 8.91625 21.673C8.91625 21.673 8.91625 21.673 8.91625 21.673C8.91625 21.673 8.91625 21.673 8.91625 21.6731C8.91625 21.6731 8.91625 21.6731 8.91625 21.6731C8.91625 21.6731 8.91625 21.6732 8.91625 21.6732C8.91625 21.6732 8.91625 21.6732 8.91625 21.6732C8.91625 21.6732 8.91625 21.6733 8.91625 21.6733C8.91625 21.6733 8.91625 21.6733 8.91625 21.6733C8.91625 21.6733 8.91625 21.6734 8.91625 21.6734C8.91625 21.6734 8.91625 21.6734 8.91625 21.6734C8.91625 21.6735 8.91625 21.6735 8.91625 21.6735C8.91625 21.6735 8.91625 21.6735 8.91625 21.6735C8.91625 21.6736 8.91625 21.6736 8.91625 21.6736C8.91625 21.6736 8.91625 21.6736 8.91625 21.6736C8.91625 21.6737 8.91625 21.6737 8.91625 21.6737C8.91625 21.6737 8.91625 21.6737 8.91625 21.6737C8.91625 21.6738 8.91625 21.6738 8.91625 21.6738C8.91625 21.6738 8.91625 21.6738 8.91625 21.6739C8.91625 21.6739 8.91625 21.6739 8.91625 21.6739C8.91625 21.6739 8.91625 21.6739 8.91625 21.674C8.91625 21.674 8.91625 21.674 8.91625 21.674C8.91625 21.674 8.91625 21.674 8.91625 21.674C8.91625 21.6741 8.91625 21.6741 8.91625 21.6741C8.91625 21.6741 8.91625 21.6741 8.91625 21.6741C8.91625 21.6742 8.91625 21.6742 8.91625 21.6742C8.91625 21.6742 8.91625 21.6742 8.91625 21.6742C8.91625 21.6743 8.91625 21.6743 8.91625 21.6743C8.91625 21.6743 8.91625 21.6743 8.91625 21.6743C8.91625 21.6744 8.91625 21.6744 8.91625 21.6744C8.91625 21.6744 8.91625 21.6744 8.91625 21.6744C8.91625 21.6744 8.91625 21.6745 8.91625 21.6745C8.91625 21.6745 8.91625 21.6745 8.91625 21.6745C8.91625 21.6745 8.91625 21.6746 8.91625 21.6746C8.91625 21.6746 8.91625 21.6746 8.91625 21.6746C8.91625 21.6746 8.91625 21.6746 8.91625 21.6747C8.91625 21.6747 8.91625 21.6747 8.91625 21.6747C8.91625 21.6747 8.91625 21.6747 8.91625 21.6747C8.91625 21.6748 8.91625 21.6748 8.91625 21.6748C8.91625 21.6748 8.91625 21.6748 8.91625 21.6748C8.91625 21.6749 8.91625 21.6749 8.91625 21.6749C8.91625 21.6749 8.91625 21.6749 8.91625 21.6749C8.91625 21.6749 8.91625 21.675 8.91625 21.675C8.91625 21.675 8.91625 21.675 8.91625 21.675C8.91625 21.675 8.91625 21.675 8.91625 21.6751C8.91625 21.6751 8.91625 21.6751 8.91625 21.6751C8.91625 21.6751 8.91625 21.6751 8.91625 21.6751C8.91625 21.6751 8.91625 21.6752 8.91625 21.6752C8.91625 21.6752 8.91625 21.6752 8.91625 21.6752C8.91625 21.6752 8.91625 21.6752 8.91625 21.6753C8.91625 21.6753 8.91625 21.6753 8.91625 21.6753C8.91625 21.6753 8.91625 21.6753 8.91625 21.6753C8.91625 21.6754 8.91625 21.6754 8.91625 21.6754C8.91625 21.6754 8.91625 21.6754 8.91625 21.6754C8.91625 21.6754 8.91625 21.6754 8.91625 21.6755C8.91625 21.6755 8.91625 21.6755 8.91625 21.6755C8.91625 21.6755 8.91625 21.6755 8.91625 21.6755C8.91625 21.6756 8.91625 21.6756 8.91625 21.6756C8.91625 21.6756 8.91625 21.6756 8.91625 21.6756C8.91625 21.6756 8.91625 21.6756 8.91625 21.6757C8.91625 21.6757 8.91625 21.6757 8.91625 21.6757C8.91625 21.6757 8.91625 21.6757 8.91625 21.6757C8.91625 21.6757 8.91625 21.6758 8.91625 21.6758C8.91625 21.6758 8.91625 21.6758 8.91625 21.6758C8.91625 21.6758 8.91625 21.6758 8.91625 21.6758C8.91625 21.6759 8.91625 21.6759 8.91625 21.6759C8.91625 21.6759 8.91625 21.6759 8.91625 21.6759C8.91625 21.6759 8.91625 21.6759 8.91625 21.6759C8.91625 21.676 8.91625 21.676 8.91625 21.676C8.91625 21.676 8.91625 21.676 8.91625 21.676C8.91625 21.676 8.91625 21.676 8.91625 21.6761C8.91625 21.6761 8.91625 21.6761 8.91625 21.6761C8.91625 21.6761 8.91625 21.6761 8.91625 21.6761C8.91625 21.6761 8.91625 21.6761 8.91625 21.6762C8.91625 21.6762 8.91625 21.6762 8.91625 21.6762C8.91625 21.6762 8.91625 21.6762 8.91625 21.6762C8.91625 21.6762 8.91625 21.6763 8.91625 21.6763C8.91625 21.6763 8.91625 21.6763 8.91625 21.6763C8.91625 21.6763 8.91625 21.6763 8.91625 21.6763C8.91625 21.6763 8.91625 21.6763 8.91625 21.6764C8.91625 21.6764 8.91625 21.6764 8.91625 21.6764C8.91625 21.6764 8.91625 21.6764 8.91625 21.6764C8.91625 21.6764 8.91625 21.6764 8.91625 21.6765C8.91625 21.6765 8.91625 21.6765 8.91625 21.6765C8.91625 21.6765 8.91625 21.6765 8.91625 21.6765C8.91625 21.6765 8.91625 21.6765 8.91625 21.6766C8.91625 21.6766 8.91625 21.6766 8.91625 21.6766C8.91625 21.6766 8.91625 21.6766 8.91625 21.6766C8.91625 21.6766 8.91625 21.6766 8.91625 21.6766C8.91625 21.6767 8.91625 21.6767 8.91625 21.6767C8.91625 21.6767 8.91625 21.6767 8.91625 21.6767C8.91625 21.6767 8.91625 21.6767 8.91625 21.6767C8.91625 21.6767 8.91625 21.6768 8.91625 21.6768C8.91625 21.6768 8.91625 21.6768 8.91625 21.6768C8.91625 21.6768 8.91625 21.6768 8.91625 21.6768C8.91625 21.6768 8.91625 21.6768 8.91625 21.6769C8.91625 21.6769 8.91625 21.6769 8.91625 21.6769C8.91625 21.6769 8.91625 21.6769 8.91625 21.6769C8.91625 21.6769 8.91625 21.6769 8.91625 21.6769C8.91625 21.6769 8.91625 21.677 8.91625 21.677C8.91625 21.677 8.91625 21.677 8.91625 21.677C8.91625 21.677 8.91625 21.677 8.91625 21.677C8.91625 21.677 8.91625 21.677 8.91625 21.677C8.91625 21.6771 8.91625 21.6771 8.91625 21.6771C8.91625 21.6771 8.91625 21.6771 8.91625 21.6771C8.91625 21.6771 8.91625 21.6771 8.91625 21.6771C8.91625 21.6771 8.91625 21.6771 8.91625 21.6772C8.91625 21.6772 8.91625 21.6772 8.91625 21.6772C8.91625 21.6772 8.91625 21.6772 8.91625 21.6772C8.91625 21.6772 8.91625 21.6772 8.91625 21.6772C8.91625 21.6772 8.91625 21.6772 8.91625 21.6773C8.91625 21.6773 8.91625 21.6773 8.91625 21.6773C8.91625 21.6773 8.91625 21.6773 8.91625 21.6773C8.91625 21.6773 8.91625 21.6773 8.91625 21.6773C8.91625 21.6773 8.91625 21.6773 8.91625 21.6774C8.91625 21.6774 8.91625 21.6774 8.91625 21.6774C8.91625 21.6774 8.91625 21.6774 8.91625 21.6774C8.91625 21.6774 8.91625 21.6774 8.91625 21.6774C8.91625 21.6774 8.91625 21.6774 8.91625 21.6775C8.91625 21.6775 8.91625 21.6775 8.91625 21.6775C8.91625 21.6775 8.91625 21.6775 8.91625 21.6775C8.91625 21.6775 8.91625 21.6775 8.91625 21.6775C8.91625 21.6775 8.91625 21.6775 8.91625 21.6775C8.91625 21.6776 8.91625 21.6776 8.91625 21.6776C8.91625 21.6776 8.91625 21.6776 8.91625 21.6776C8.91625 21.6776 8.91625 21.6776 8.91625 21.6776C8.91625 21.6776 8.91625 21.6776 8.91625 21.6776C8.91625 21.6776 8.91625 21.6776 8.91625 21.6777C8.91625 21.6777 8.91625 21.6777 8.91625 21.6777C8.91625 21.6777 8.91625 21.6777 8.91625 21.6777C8.91625 21.6777 8.91625 21.6777 8.91625 21.6777C8.91625 21.6777 8.91625 21.6777 8.91625 21.6777C8.91625 21.6777 8.91625 21.6778 8.91625 21.6778C8.91625 21.6778 8.91625 21.6778 8.91625 21.6778C8.91625 21.6778 8.91625 21.6778 8.91625 21.6778C8.91625 21.6778 8.91625 21.6778 8.91625 21.6778C8.91625 21.6778 8.91625 21.6778 8.91625 21.6778C8.91625 21.6778 8.91625 21.6779 8.91625 21.6779C8.91625 21.6779 8.91625 21.6779 8.91625 21.6779C8.91625 21.6779 8.91625 21.6779 8.91625 21.6779C8.91625 21.6779 8.91625 21.6779 8.91625 21.6779C8.91625 21.6779 8.91625 21.6779 8.91625 21.6779C8.91625 21.6779 8.91625 21.6779 8.91625 21.678C8.91625 21.678 8.91625 21.678 8.91625 21.678C8.91625 21.678 8.91625 21.678 8.91625 21.678C8.91625 21.678 8.91625 21.678 8.91625 21.678C8.91625 21.678 8.91625 21.678 8.91625 21.678C8.91625 21.678 8.91625 21.678 8.91625 21.678C8.91625 21.6781 8.91625 21.6781 8.91625 21.6781C8.91625 21.6781 8.91625 21.6781 8.91625 21.6781C8.91625 21.6781 8.91625 21.6781 8.91625 21.6781C8.91625 21.6781 8.91625 21.6781 8.91625 21.6781C8.91625 21.6781 8.91625 21.6781 8.91625 21.6781C8.91625 21.6781 8.91625 21.6781 8.91625 21.6781C8.91625 21.6782 8.91625 21.6782 8.91625 21.6782C8.91625 21.6782 8.91625 21.6782 8.91625 21.6782C8.91625 21.6782 8.91625 21.6782 8.91625 21.6782C8.91625 21.6782 8.91625 21.6782 8.91625 21.6782C8.91625 21.6782 8.91625 21.6782 8.91625 21.6782C8.91625 21.6782 8.91625 21.6782 8.91625 21.6782C8.91625 21.6782 8.91625 21.6783 8.91625 21.6783C8.91625 21.6783 8.91625 21.6783 8.91625 21.6783C8.91625 21.6783 8.91625 21.6783 8.91625 21.6783C8.91625 21.6783 8.91625 21.6783 8.91625 21.6783C8.91625 21.6783 8.91625 21.6783 8.91625 21.6783C8.91625 21.6783 8.91625 21.6783 8.91625 21.6783C8.91625 21.6783 8.91625 21.6783 8.91625 21.6783C8.91625 21.6784 8.91625 21.6784 8.91625 21.6784C8.91625 21.6784 8.91625 21.6784 8.91625 21.6784C8.91625 21.6784 8.91625 21.6784 8.91625 21.6784C8.91625 21.6784 8.91625 21.6784 8.91625 21.6784C8.91625 21.6784 8.91625 21.6784 8.91625 21.6784C8.91625 21.6784 8.91625 21.6784 8.91625 21.6784C8.91625 21.6784 8.91625 21.6784 8.91625 21.6784C8.91625 21.6784 8.91625 21.6784 8.91625 21.6785C8.91625 21.6785 8.91625 21.6785 8.91625 21.6785C8.91625 21.6785 8.91625 21.6785 8.91625 21.6785C8.91625 21.6785 8.91625 21.6785 8.91625 21.6785C8.91625 21.6785 8.91625 21.6785 8.91625 21.6785C8.91625 21.6785 8.91625 21.6785 8.91625 21.6785C8.91625 21.6785 8.91625 21.6785 8.91625 21.6785C8.91625 21.6785 8.91625 21.6785 8.91625 21.6785C8.91625 21.6785 8.91625 21.6785 8.91625 21.6786C8.91625 21.6786 8.91625 21.6786 8.91625 21.6786C8.91625 21.6786 8.91625 21.6786 8.91625 21.6786C8.91625 21.6786 8.91625 21.6786 8.91625 21.6786C8.91625 21.6786 8.91625 21.6786 8.91625 21.6786C8.91625 21.6786 8.91625 21.6786 8.91625 21.6786C8.91625 21.6786 8.91625 21.6786 8.91625 21.6786C8.91625 21.6786 8.91625 21.6786 8.91625 21.6786C8.91625 21.6786 8.91625 21.6786 8.91625 21.6786C8.91625 21.6786 8.91625 21.6786 8.91625 21.6786C8.91625 21.6787 8.91625 21.6787 8.91625 21.6787C8.91625 21.6787 8.91625 21.6787 8.91625 21.6787C8.91625 21.6787 8.91625 21.6787 8.91625 21.6787C8.91625 21.6787 8.91625 21.6787 8.91625 21.6787C8.91625 21.6787 8.91625 21.6787 8.91625 21.6787C8.91625 21.6787 8.91625 21.6787 8.91625 21.6787C8.91625 21.6787 8.91625 21.6787 8.91625 21.6787C8.91625 21.6787 8.91625 21.6787 8.91625 21.6787C8.91625 21.6787 8.91625 21.6787 8.91625 21.6787C8.91625 21.6787 8.91625 21.6787 8.91625 21.6787C8.91625 21.6787 8.91625 21.6788 8.91625 21.6788C8.91625 21.6788 8.91625 21.6788 8.91625 21.6788C8.91625 21.6788 8.91625 21.6788 8.91625 21.6788C8.91625 21.6788 8.91625 21.6788 8.91625 21.6788C8.91625 21.6788 8.91625 21.6788 8.91625 21.6788C8.91625 21.6788 8.91625 21.6788 8.91625 21.6788C8.91625 21.6788 8.91625 21.6788 8.91625 21.6788C8.91625 21.6788 8.91625 21.6788 8.91625 21.6788C8.91625 21.6788 8.91625 21.6788 8.91625 21.6788C8.91625 21.6788 8.91625 21.6788 8.91625 21.6788C8.91625 21.6788 8.91625 21.6788 8.91625 21.6788C8.91625 21.6788 8.91625 21.6788 8.91625 21.6788C8.91625 21.6788 8.91625 21.6788 8.91625 21.6789C8.91625 21.6789 8.91625 21.6789 8.91625 21.6789C8.91625 21.6789 8.91625 21.6789 8.91625 21.6789C8.91625 21.6789 8.91625 21.6789 8.91625 21.6789C8.91625 21.6789 8.91625 21.6789 8.91625 21.6789C8.91625 21.6789 8.91625 21.6789 8.91625 21.6789C8.91625 21.6789 8.91625 21.6789 8.91625 21.6789C8.91625 21.6789 8.91625 21.6789 8.91625 21.6789C8.91625 21.6789 8.91625 21.6789 8.91625 21.6789C8.91625 21.6789 8.91625 21.6789 8.91625 21.6789C8.91625 21.6789 8.91625 21.6789 8.91625 21.6789C8.91625 21.6789 8.91625 21.6789 8.91625 21.6789C8.91625 21.6789 8.91625 21.6789 8.91625 21.6789C8.91625 21.6789 8.91625 21.6789 8.91625 21.6789C8.91625 21.6789 8.91625 21.6789 8.91625 21.6789C8.91625 21.6789 8.91625 21.6789 8.91625 21.6789C8.91625 21.6789 8.91625 21.6789 8.91625 21.679C8.91625 21.679 8.91625 21.679 8.91625 21.679C8.91625 21.679 8.91625 21.679 8.91625 21.679C8.91625 21.679 8.91625 21.679 8.91625 21.679C8.91625 21.679 8.91625 21.679 8.91625 21.679C8.91625 21.679 8.91625 21.679 8.91625 21.679C8.91625 21.679 8.91625 21.679 8.91625 21.679C8.91625 21.679 8.91625 21.679 8.91625 21.679C8.91625 21.679 8.91625 21.679 8.91625 21.679C8.91625 21.679 8.91625 21.679 8.91625 21.679C8.91625 21.679 8.91625 21.679 8.91625 21.679C8.91625 21.679 8.91625 21.679 8.91625 21.679C8.91625 21.679 8.91625 21.679 8.91625 21.679C8.91625 21.679 8.91625 21.679 8.91625 21.679C8.91625 21.679 8.91625 21.679 8.91625 21.679C8.91625 21.679 8.91625 21.679 8.91625 21.679C8.91625 21.679 8.91625 21.679 8.91625 21.679C8.91625 21.679 8.91625 21.679 8.91625 21.679C8.91625 21.679 8.91625 21.679 8.91625 21.679C8.91625 21.679 8.91625 21.679 8.91625 21.679C8.91625 21.679 8.91625 21.679 8.91625 21.679C8.91625 21.679 8.91625 21.679 8.91625 21.679C8.91625 21.679 8.91625 21.679 8.91625 21.679C8.91625 21.679 8.91625 21.6791 8.91625 21.6791V21.6791C8.91625 21.6791 8.91625 21.6791 8.91625 21.6791C8.91625 21.6791 8.91625 21.6791 8.91625 21.6791V21.6791C8.91625 21.6791 8.91625 21.6791 8.91625 21.6791V21.6791C8.91625 21.6791 8.91625 21.6791 8.91625 21.6791V21.6791C8.91625 21.6791 8.91625 21.6791 8.91625 21.6791C8.91625 21.6791 8.91625 21.6791 8.91625 21.6791V21.6791C8.91625 21.6791 8.91625 21.6791 8.91625 21.6791C8.91625 21.6791 8.91625 21.6791 8.91625 21.6791C8.91625 21.6791 8.91625 21.6791 8.91625 21.6791V21.6791V21.6791V21.6791C8.91625 21.6791 8.91625 21.6791 8.91625 21.6791C8.91625 21.6791 8.91625 21.6791 8.91625 21.6791C8.91625 21.6791 8.91625 21.6791 8.91625 21.6791C8.91625 21.6791 8.91625 21.6791 8.91625 21.6791C8.91625 21.6791 8.91625 21.6791 8.91625 21.6791V21.6791V21.6791V21.6791C8.91625 21.6791 8.91625 21.6791 8.91625 21.6791C8.91625 21.6791 8.91625 21.6791 8.91625 21.6791V21.6791C8.91625 21.6791 8.91625 21.6791 8.91625 21.6791V21.6791C8.91625 21.6791 8.91625 21.6791 8.91625 21.6791V21.6791V21.6791V21.6791C8.91625 21.6791 8.91625 21.6791 8.91625 21.6791C8.91625 21.6791 8.91625 21.6791 8.91625 21.6791C8.91625 21.6791 8.91625 21.6791 8.91625 21.6791V21.6791C8.91625 21.6791 8.91625 21.6791 8.91625 21.6791V21.6791C8.91625 21.6791 8.91625 21.6791 9.91625 21.6791ZM10.8387 22.0429C10.8671 21.9749 10.8904 21.905 10.9084 21.8336L8.9691 21.3447C8.97548 21.3193 8.98376 21.2945 8.99384 21.2704L10.8387 22.0429ZM10.9363 21.6596C10.9413 21.5877 10.9413 21.5156 10.9363 21.4437L8.94123 21.5846C8.93969 21.5626 8.93969 21.5406 8.94123 21.5187L10.9363 21.6596ZM10.9388 21.5141V10.9991H8.93875V21.5141H10.9388ZM10.9373 11.0535C10.9499 10.8215 10.9036 10.5902 10.8026 10.381L9.00146 11.2505C8.95556 11.1554 8.93449 11.0502 8.94023 10.9448L10.9373 11.0535ZM10.8026 10.381C10.7016 10.1718 10.5492 9.99161 10.3598 9.85722L9.20273 11.4886C9.1166 11.4275 9.04736 11.3456 9.00146 11.2505L10.8026 10.381Z" fill="white" mask="url(#path-2-inside-1_5633_12946)"/>
<path d="M19.0548 5.74965C19.0567 5.77337 19.0567 5.79719 19.0548 5.8209C19.0491 5.84516 19.0415 5.86897 19.0323 5.89215C19.0323 5.89215 19.0323 5.92215 19.0323 5.93715V5.95965L19.0098 5.98965C18.9831 6.02188 18.9515 6.04972 18.9161 6.07215L14.1123 8.82466L13.3623 9.25965L9.78109 11.3259C9.72409 11.3588 9.65942 11.3761 9.59359 11.3761C9.52777 11.3761 9.4631 11.3588 9.40609 11.3259L0.312344 6.0759C0.29065 6.06044 0.270551 6.04285 0.252344 6.0234L0.203594 5.9709V5.90715C0.174196 5.88145 0.14778 5.85251 0.124844 5.8209C0.119844 5.77354 0.119844 5.72577 0.124844 5.6784C0.13063 5.65415 0.138149 5.63034 0.147344 5.60715C0.147344 5.60715 0.147344 5.57715 0.147344 5.56215V5.5434L0.196094 5.4909C0.214301 5.47146 0.2344 5.45387 0.256094 5.4384L4.71859 2.86215L5.43484 2.44965L9.34984 0.199655C9.40685 0.166741 9.47152 0.149414 9.53734 0.149414C9.60317 0.149414 9.66784 0.166741 9.72484 0.199655L18.8748 5.4234L18.9273 5.47215L18.9798 5.5284V5.59215C18.989 5.61534 18.9966 5.63915 19.0023 5.6634C19.023 5.69011 19.0406 5.71904 19.0548 5.74965Z" fill="#E21B33"/>
<path d="M17.0938 12.3125C16.1481 12.3125 15.2237 12.5929 14.4374 13.1183C13.6512 13.6437 13.0383 14.3904 12.6765 15.264C12.3146 16.1377 12.2199 17.0991 12.4044 18.0265C12.5889 18.954 13.0442 19.8059 13.7129 20.4746C14.3816 21.1433 15.2335 21.5986 16.161 21.7831C17.0884 21.9676 18.0498 21.8729 18.9235 21.511C19.7971 21.1492 20.5438 20.5363 21.0692 19.7501C21.5946 18.9638 21.875 18.0394 21.875 17.0938C21.874 15.826 21.37 14.6104 20.4735 13.714C19.5771 12.8175 18.3615 12.3135 17.0938 12.3125Z" fill="#E21B33"/>
<path d="M16.55 19.1892C16.4958 19.1892 16.4423 19.1774 16.3931 19.1548C16.3439 19.1321 16.3002 19.0991 16.265 19.0579L14.75 17.2654C14.6858 17.1893 14.6545 17.0909 14.663 16.9917C14.6714 16.8925 14.7189 16.8008 14.795 16.7367C14.8711 16.6725 14.9695 16.6412 15.0687 16.6496C15.1678 16.6581 15.2596 16.7056 15.3237 16.7817L16.5425 18.2142L18.875 15.1467C18.9038 15.105 18.9408 15.0697 18.9837 15.0428C19.0266 15.0158 19.0745 14.9979 19.1245 14.99C19.1745 14.982 19.2256 14.9843 19.2747 14.9967C19.3238 15.0091 19.3699 15.0313 19.4102 15.0619C19.4505 15.0926 19.4842 15.1311 19.5092 15.1751C19.5342 15.2192 19.5501 15.2678 19.5558 15.3181C19.5615 15.3685 19.5569 15.4194 19.5424 15.4679C19.5278 15.5164 19.5036 15.5615 19.4712 15.6004L16.85 19.0392C16.8162 19.0842 16.7727 19.1211 16.7227 19.1471C16.6727 19.1731 16.6175 19.1874 16.5612 19.1892H16.55Z" fill="#E21B33"/>
<path d="M19.0625 12.7433V5.74954C19.0628 5.68346 19.0456 5.61848 19.0126 5.56119C18.9797 5.5039 18.9322 5.45633 18.875 5.42329L9.78125 0.173287C9.72425 0.140374 9.65958 0.123047 9.59375 0.123047C9.52793 0.123047 9.46326 0.140374 9.40625 0.173287L0.312503 5.42329C0.255276 5.45633 0.207796 5.5039 0.17487 5.56119C0.141944 5.61848 0.124741 5.68346 0.125003 5.74954V16.2495C0.124741 16.3156 0.141944 16.3806 0.17487 16.4379C0.207796 16.4952 0.255276 16.5427 0.312503 16.5758L9.40625 21.8258C9.46326 21.8587 9.52793 21.876 9.59375 21.876C9.65958 21.876 9.72425 21.8587 9.78125 21.8258L13.1975 19.8533C13.6233 20.4499 14.1807 20.9405 14.8265 21.2872C15.4723 21.6338 16.1892 21.8273 16.9218 21.8525C17.6543 21.8777 18.3828 21.734 19.0509 21.4326C19.7191 21.1311 20.3088 20.68 20.7747 20.1141C21.2405 19.5482 21.5699 18.8827 21.7373 18.1691C21.9047 17.4555 21.9057 16.7129 21.7402 15.9989C21.5747 15.2849 21.2471 14.6185 20.7827 14.0514C20.3184 13.4842 19.7298 13.0315 19.0625 12.7283V12.7433ZM9.59375 0.930787L17.9375 5.74954L13.7525 8.16454L6.005 3.00454L9.59375 0.930787ZM9.59375 10.5683L1.25 5.74954L5.28125 3.42079L13.025 8.58454L9.59375 10.5683ZM0.875003 6.39829L9.21875 11.217V20.8508L0.875003 16.032V6.39829ZM9.96875 20.8508V11.217L13.3438 9.25579V12.177C13.3438 12.2765 13.3833 12.3719 13.4536 12.4422C13.5239 12.5125 13.6193 12.552 13.7188 12.552C13.8182 12.552 13.9136 12.5125 13.9839 12.4422C14.0542 12.3719 14.0938 12.2765 14.0938 12.177V8.82454L18.2938 6.39829V12.477C17.8966 12.3685 17.4868 12.313 17.075 12.312C16.2635 12.3141 15.4659 12.523 14.7576 12.919C14.0493 13.3151 13.4536 13.8851 13.0268 14.5754C12.6001 15.2656 12.3563 16.0533 12.3186 16.8639C12.2809 17.6745 12.4504 18.4814 12.8113 19.2083L9.96875 20.8508ZM17.0938 21.1245C16.2964 21.1245 15.517 20.8881 14.8541 20.4451C14.1912 20.0022 13.6745 19.3726 13.3694 18.636C13.0642 17.8994 12.9844 17.0888 13.14 16.3068C13.2955 15.5248 13.6794 14.8065 14.2432 14.2428C14.807 13.679 15.5253 13.295 16.3073 13.1395C17.0893 12.9839 17.8998 13.0638 18.6364 13.3689C19.3731 13.674 20.0027 14.1907 20.4456 14.8536C20.8886 15.5166 21.125 16.296 21.125 17.0933C21.124 18.1621 20.699 19.1869 19.9432 19.9427C19.1874 20.6985 18.1626 21.1235 17.0938 21.1245Z" fill="white"/>
<path d="M18.8751 15.1475L16.5501 18.215L15.3313 16.7825C15.2672 16.7054 15.175 16.657 15.0752 16.6479C14.9753 16.6387 14.8759 16.6696 14.7988 16.7338C14.7218 16.7979 14.6733 16.8901 14.6642 16.9899C14.655 17.0898 14.6859 17.1892 14.7501 17.2663L16.2501 19.0588C16.2853 19.0999 16.329 19.133 16.3782 19.1556C16.4274 19.1783 16.4809 19.19 16.5351 19.19C16.5914 19.1883 16.6466 19.1739 16.6966 19.148C16.7466 19.122 16.7901 19.0851 16.8238 19.04L19.4301 15.6013C19.4789 15.5688 19.5195 15.5252 19.5484 15.4742C19.5774 15.4232 19.594 15.3661 19.5969 15.3075C19.5998 15.2489 19.5889 15.1904 19.565 15.1368C19.5412 15.0832 19.5051 15.0359 19.4597 14.9987C19.4143 14.9616 19.3608 14.9356 19.3035 14.9229C19.2462 14.9102 19.1867 14.9112 19.1299 14.9256C19.073 14.9401 19.0203 14.9677 18.9761 15.0063C18.9318 15.0448 18.8972 15.0932 18.8751 15.1475Z" fill="white"/>
</svg>
