<svg width="90" height="90" viewBox="0 0 90 90" fill="none" xmlns="http://www.w3.org/2000/svg">
<circle cx="45" cy="45" r="44" fill="white" stroke="#E6E9EC" stroke-dasharray="5 5"/>
<path d="M66.0312 43.2917V56.5417C66.1609 57.6605 66.0359 58.7943 65.6656 59.858C65.2953 60.9217 64.6892 61.888 63.8928 62.6845C63.0963 63.4809 62.1301 64.087 61.0663 64.4573C60.0026 64.8276 58.8689 64.9526 57.75 64.8229H31.25C30.1311 64.9526 28.9974 64.8276 27.9337 64.4573C26.8699 64.087 25.9037 63.4809 25.1072 62.6845C24.3108 61.888 23.7047 60.9217 23.3344 59.858C22.9641 58.7943 22.8391 57.6605 22.9687 56.5417V34.4583C22.8391 33.3395 22.9641 32.2057 23.3344 31.142C23.7047 30.0783 24.3108 29.112 25.1072 28.3155C25.9037 27.5191 26.8699 26.913 27.9337 26.5427C28.9974 26.1724 30.1311 26.0474 31.25 26.1771H46.7083C47.1476 26.1771 47.5689 26.3516 47.8795 26.6622C48.1901 26.9728 48.3646 27.3941 48.3646 27.8333C48.3646 28.2726 48.1901 28.6939 47.8795 29.0045C47.5689 29.3151 47.1476 29.4896 46.7083 29.4896H31.25C27.7675 29.4896 26.2812 30.9758 26.2812 34.4583V54.8854L31.8904 49.2762C32.3074 48.8625 32.8709 48.6303 33.4583 48.6303C34.0457 48.6303 34.6093 48.8625 35.0262 49.2762L37.1021 51.3521C37.3085 51.5544 37.586 51.6677 37.875 51.6677C38.164 51.6677 38.4415 51.5544 38.6479 51.3521L49.5571 40.4429C49.974 40.0292 50.5376 39.797 51.125 39.797C51.7124 39.797 52.276 40.0292 52.6929 40.4429L62.7187 50.4688V43.2917C62.7187 42.8524 62.8932 42.4311 63.2038 42.1205C63.5145 41.8099 63.9357 41.6354 64.375 41.6354C64.8143 41.6354 65.2355 41.8099 65.5461 42.1205C65.8568 42.4311 66.0312 42.8524 66.0312 43.2917ZM35.6512 36.1146C34.918 36.1166 34.2156 36.4096 33.6982 36.9291C33.1809 37.4487 32.8909 38.1523 32.8919 38.8855C32.8929 39.6187 33.1849 40.3215 33.7037 40.8396C34.2225 41.3577 34.9257 41.6487 35.6589 41.6487C36.3921 41.6487 37.0954 41.3577 37.6142 40.8396C38.133 40.3215 38.4249 39.6187 38.426 38.8855C38.427 38.1523 38.137 37.4487 37.6196 36.9291C37.1023 36.4096 36.3999 36.1166 35.6667 36.1146H35.6512ZM55.5417 31.6979H58.3021V34.4583C58.3021 34.8976 58.4766 35.3189 58.7872 35.6295C59.0978 35.9401 59.5191 36.1146 59.9583 36.1146C60.3976 36.1146 60.8189 35.9401 61.1295 35.6295C61.4401 35.3189 61.6146 34.8976 61.6146 34.4583V31.6979H64.375C64.8143 31.6979 65.2355 31.5234 65.5461 31.2128C65.8568 30.9022 66.0312 30.4809 66.0312 30.0417C66.0312 29.6024 65.8568 29.1811 65.5461 28.8705C65.2355 28.5599 64.8143 28.3854 64.375 28.3854H61.6146V25.625C61.6146 25.1857 61.4401 24.7645 61.1295 24.4539C60.8189 24.1432 60.3976 23.9688 59.9583 23.9688C59.5191 23.9688 59.0978 24.1432 58.7872 24.4539C58.4766 24.7645 58.3021 25.1857 58.3021 25.625V28.3854H55.5417C55.1024 28.3854 54.6811 28.5599 54.3705 28.8705C54.0599 29.1811 53.8854 29.6024 53.8854 30.0417C53.8854 30.4809 54.0599 30.9022 54.3705 31.2128C54.6811 31.5234 55.1024 31.6979 55.5417 31.6979Z" fill="#B0BAC3"/>
</svg>
