<svg width="343" height="133" viewBox="0 0 343 133" fill="none" xmlns="http://www.w3.org/2000/svg">
<mask id="path-1-inside-1_3073_11640" fill="white">
<path d="M0 8C0 3.58172 3.58172 0 8 0H335C339.418 0 343 3.58172 343 8V133H0V8Z"/>
</mask>
<path d="M0 8C0 3.58172 3.58172 0 8 0H335C339.418 0 343 3.58172 343 8V133H0V8Z" fill="#FDE9EB"/>
<path d="M-1 8C-1 3.02944 3.02944 -1 8 -1H335C339.971 -1 344 3.02944 344 8H342C342 4.13401 338.866 1 335 1H8C4.13401 1 1 4.13401 1 8H-1ZM343 133H0H343ZM-1 133V8C-1 3.02944 3.02944 -1 8 -1V1C4.13401 1 1 4.13401 1 8V133H-1ZM335 -1C339.971 -1 344 3.02944 344 8V133H342V8C342 4.13401 338.866 1 335 1V-1Z" fill="#E6E9EC" mask="url(#path-1-inside-1_3073_11640)"/>
<path fill-rule="evenodd" clip-rule="evenodd" d="M159.685 43.1961C152.706 43.1961 148.196 47.9818 148.196 55.3647V77.6109C148.196 79.6828 148.581 81.5326 149.239 83.1332C149.267 83.0993 149.887 82.3436 150.696 81.358C152.276 79.4322 154.577 76.6286 154.593 76.6143C156.467 74.4747 159.986 71.2843 164.603 73.2153C165.615 73.6349 166.515 74.2096 167.343 74.7387C167.423 74.7902 167.503 74.8413 167.582 74.8918C169.134 75.9291 170.047 76.4166 170.995 76.3353C171.388 76.2811 171.756 76.1647 172.105 75.948C173.423 75.1355 176.84 70.294 177.863 68.8442C178.013 68.6316 178.112 68.4919 178.145 68.4486C181.097 64.6028 185.647 63.5736 189.439 65.8486C189.948 66.152 193.596 68.7005 194.804 69.7243V55.3647C194.804 47.9818 190.294 43.1961 183.291 43.1961H159.685ZM183.289 39.418C192.435 39.418 198.581 45.8151 198.581 55.3646V77.6109C198.581 77.8511 198.555 78.0763 198.53 78.3014C198.513 78.4596 198.495 78.6177 198.486 78.7809C198.48 78.8795 198.477 78.9782 198.474 79.0769C198.471 79.2084 198.467 79.34 198.456 79.4715C198.451 79.523 198.441 79.5724 198.43 79.6218C198.42 79.6713 198.41 79.7207 198.405 79.7721C198.315 80.6226 198.177 81.4351 197.985 82.2232C197.939 82.4202 197.887 82.6102 197.834 82.8018L197.822 82.8434C197.606 83.6071 197.351 84.3357 197.045 85.0317C196.991 85.1487 196.935 85.2628 196.878 85.3768C196.841 85.4529 196.803 85.529 196.766 85.6059C196.436 86.2694 196.078 86.9059 195.664 87.4963C195.587 87.6056 195.506 87.708 195.424 87.8107C195.37 87.8784 195.316 87.9463 195.263 88.0163C194.832 88.5742 194.383 89.1078 193.874 89.5926C193.772 89.6892 193.662 89.7777 193.552 89.8661C193.484 89.9214 193.415 89.9767 193.348 90.034C192.825 90.4836 192.292 90.9142 191.704 91.2826C191.576 91.3631 191.44 91.4307 191.304 91.4981C191.216 91.5417 191.128 91.5851 191.043 91.6319C190.445 91.9623 189.841 92.2846 189.183 92.5338C189.024 92.594 188.856 92.6375 188.687 92.6811C188.567 92.7121 188.447 92.7431 188.33 92.7803C188.271 92.7984 188.213 92.8166 188.154 92.8348C187.566 93.0177 186.98 93.2 186.347 93.3084C185.98 93.3727 185.591 93.3974 185.202 93.4221C185.033 93.4328 184.865 93.4434 184.698 93.4573C184.518 93.4707 184.343 93.4924 184.166 93.5141C183.88 93.5493 183.593 93.5846 183.289 93.5846H159.684C158.665 93.5846 157.693 93.4817 156.753 93.3274C156.718 93.322 156.686 93.3166 156.654 93.3112L156.653 93.3111C152.989 92.6801 149.947 90.9115 147.816 88.2438C147.801 88.2438 147.795 88.2338 147.787 88.2205C147.782 88.2119 147.776 88.2019 147.767 88.1923C145.625 85.4949 144.414 81.8684 144.414 77.6109V55.3646C144.414 45.8151 150.565 39.418 159.684 39.418H183.289ZM168.792 57.0613C168.792 60.731 165.721 63.7916 162.034 63.7916C158.793 63.7916 156.029 61.4236 155.41 58.3577C155.308 57.8977 155.25 57.4246 155.25 56.9359C155.25 53.2401 158.252 50.25 161.963 50.25C163.853 50.25 165.564 51.0445 166.789 52.3122C168.02 53.5354 168.792 55.2213 168.792 57.0613Z" fill="#E21B33"/>
</svg>
