<svg width="12" height="12" viewBox="0 0 12 12" fill="none" xmlns="http://www.w3.org/2000/svg">
<path fill-rule="evenodd" clip-rule="evenodd" d="M6.71072 0.682942L7.42523 1.21779C7.62066 1.36406 7.82634 1.43892 8.07007 1.45249L8.96119 1.50206C9.49479 1.53173 9.92817 1.89536 10.05 2.41572L10.2536 3.28472C10.3093 3.52237 10.4187 3.71193 10.5967 3.87897L11.2475 4.48978C11.6372 4.8555 11.7354 5.41263 11.4943 5.88958L11.0917 6.68611C10.9816 6.90396 10.9436 7.11951 10.9725 7.36188L11.0785 8.2481C11.1419 8.77875 10.859 9.26866 10.3678 9.47906L9.54734 9.83043C9.32294 9.92653 9.15527 10.0672 9.02168 10.2715L8.53317 11.0185C8.24067 11.4657 7.70906 11.6592 7.19752 11.5046L6.34317 11.2464C6.10952 11.1758 5.89064 11.1758 5.65697 11.2464L4.80262 11.5046C4.29108 11.6592 3.75947 11.4657 3.46697 11.0185L2.97846 10.2715C2.84484 10.0672 2.67717 9.92653 2.4528 9.83043L1.6323 9.47901C1.14105 9.26861 0.858187 8.7787 0.921609 8.24805L1.02755 7.36183C1.05652 7.11947 1.0185 6.90391 0.90839 6.68606L0.505757 5.88954C0.264679 5.41261 0.362906 4.85547 0.752578 4.48973L1.40337 3.87893C1.58135 3.71189 1.69078 3.52233 1.74644 3.28467L1.95002 2.41568C2.0719 1.89534 2.50528 1.53171 3.03888 1.50201L3.93 1.45244C4.17373 1.4389 4.37941 1.36401 4.57484 1.21774L5.28935 0.682895C5.71716 0.362692 6.28289 0.362692 6.71072 0.682942ZM5.54423 6.30604L4.76883 5.53064C4.56785 5.32966 4.24186 5.32966 4.04091 5.53064C3.83993 5.73161 3.83993 6.05758 4.04091 6.25856L5.1814 7.39903C5.38237 7.59998 5.70837 7.6 5.90932 7.39903C6.59674 6.71158 7.27638 6.01643 7.96064 5.32584C8.16016 5.12447 8.15953 4.79953 7.95841 4.59954C7.75727 4.3995 7.4314 4.40006 7.23166 4.60179L5.54423 6.30604ZM6.00002 2.16684C4.94156 2.16684 3.98327 2.59589 3.28962 3.28954C2.59596 3.98322 2.16691 4.94149 2.16691 5.99995C2.16691 7.05841 2.59596 8.0167 3.28962 8.71036C3.98327 9.40401 4.94156 9.83306 6.00002 9.83306C7.05848 9.83306 8.01677 9.40401 8.71043 8.71036C9.40409 8.0167 9.83313 7.05841 9.83313 5.99995C9.83313 4.94149 9.40409 3.9832 8.71043 3.28954C8.01677 2.59589 7.05848 2.16684 6.00002 2.16684ZM8.44528 3.55469C7.8195 2.92891 6.95496 2.54184 6.00002 2.54184C5.04509 2.54184 4.18055 2.92891 3.55477 3.55469C2.92898 4.18047 2.54191 5.04501 2.54191 5.99995C2.54191 6.95489 2.92898 7.81943 3.55477 8.44521C4.18055 9.07099 5.04509 9.45806 6.00002 9.45806C6.95496 9.45806 7.8195 9.07099 8.44528 8.44523C9.07106 7.81945 9.45811 6.95491 9.45811 5.99997C9.45813 5.04501 9.07106 4.18047 8.44528 3.55469Z" fill="#E21B33"/>
</svg>
