<svg width="18" height="18" viewBox="0 0 18 18" fill="none" xmlns="http://www.w3.org/2000/svg">
<path fill-rule="evenodd" clip-rule="evenodd" d="M8.78222 0.666748C13.2572 0.666748 16.8972 4.30675 16.8972 8.78175C16.8972 10.893 16.087 12.8186 14.7611 14.2638L17.3701 16.8673C17.6142 17.1115 17.615 17.5065 17.3709 17.7507C17.2492 17.874 17.0884 17.9348 16.9284 17.9348C16.7692 17.9348 16.6092 17.874 16.4867 17.7523L13.8463 15.1193C12.4573 16.2316 10.6961 16.8976 8.78222 16.8976C4.30722 16.8976 0.666382 13.2567 0.666382 8.78175C0.666382 4.30675 4.30722 0.666748 8.78222 0.666748ZM8.78222 1.91675C4.99638 1.91675 1.91638 4.99591 1.91638 8.78175C1.91638 12.5676 4.99638 15.6476 8.78222 15.6476C12.5672 15.6476 15.6472 12.5676 15.6472 8.78175C15.6472 4.99591 12.5672 1.91675 8.78222 1.91675Z" fill="#A5ABBF"/>
</svg>
