<svg width="24" height="24" viewBox="0 0 24 24" fill="none" xmlns="http://www.w3.org/2000/svg">
<rect width="24" height="24" rx="12" fill="#FDE9EB"/>
<path d="M15.307 14.7623C14.5404 14.7623 13.8497 15.0934 13.3704 15.62L9.05872 12.9496C9.17709 12.647 9.23778 12.3249 9.23766 12C9.2378 11.6751 9.17711 11.353 9.05872 11.0504L13.3704 8.37987C13.8497 8.90649 14.5404 9.23768 15.307 9.23768C16.7511 9.23768 17.9259 8.06287 17.9259 6.61878C17.9259 5.17469 16.7511 4 15.307 4C13.8629 4 12.6881 5.17481 12.6881 6.6189C12.6881 6.94381 12.7488 7.26586 12.8671 7.56846L8.55553 10.2389C8.07616 9.71227 7.3855 9.38108 6.61891 9.38108C5.17481 9.38108 4 10.556 4 12C4 13.444 5.17481 14.6189 6.61891 14.6189C7.38547 14.6189 8.07619 14.2878 8.55553 13.7611L12.8671 16.4315C12.7488 16.7341 12.6881 17.0562 12.6881 17.3812C12.6881 18.8252 13.8629 20 15.307 20C16.7511 20 17.9259 18.8252 17.9259 17.3812C17.9259 15.9371 16.7511 14.7623 15.307 14.7623ZM13.6431 6.6189C13.6431 5.7014 14.3895 4.95497 15.307 4.95497C16.2245 4.95497 16.9709 5.7014 16.9709 6.6189C16.9709 7.5364 16.2245 8.28284 15.307 8.28284C14.3895 8.28284 13.6431 7.53637 13.6431 6.6189ZM6.61891 13.6639C5.70128 13.6639 4.95484 12.9175 4.95484 12C4.95484 11.0825 5.70128 10.3361 6.61891 10.3361C7.53641 10.3361 8.28272 11.0825 8.28272 12C8.28272 12.9175 7.53638 13.6639 6.61891 13.6639ZM13.6431 17.3811C13.6431 16.4636 14.3895 15.7171 15.307 15.7171C16.2245 15.7171 16.9709 16.4636 16.9709 17.3811C16.9709 18.2986 16.2245 19.045 15.307 19.045C14.3895 19.045 13.6431 18.2986 13.6431 17.3811V17.3811Z" fill="#E21B33"/>
</svg>
