<svg width="12" height="12" viewBox="0 0 12 12" fill="none" xmlns="http://www.w3.org/2000/svg">
<g id="Star">
<path id="Star_2" d="M9.45245 7.35337C9.30137 7.49979 9.23195 7.71154 9.26637 7.91921L9.78495 10.7892C9.8287 11.0325 9.72604 11.2786 9.52245 11.4192C9.32295 11.565 9.05754 11.5825 8.83995 11.4659L6.25637 10.1184C6.16654 10.0705 6.06679 10.0449 5.9647 10.042H5.80662C5.75179 10.0501 5.69812 10.0676 5.64912 10.0945L3.06495 11.4484C2.9372 11.5125 2.79254 11.5353 2.65079 11.5125C2.30545 11.4472 2.07504 11.1182 2.13162 10.7711L2.65079 7.90112C2.6852 7.69171 2.61579 7.47879 2.4647 7.33004L0.358287 5.28837C0.18212 5.11746 0.12087 4.86079 0.20137 4.62921C0.279537 4.39821 0.479037 4.22962 0.719954 4.19171L3.61912 3.77112C3.83962 3.74837 4.03329 3.61421 4.13245 3.41587L5.40995 0.796707C5.44029 0.738374 5.47937 0.684707 5.52662 0.639207L5.57912 0.598374C5.60654 0.568041 5.63804 0.542957 5.67304 0.522541L5.73662 0.499207L5.83579 0.458374H6.08137C6.3007 0.481124 6.49379 0.612374 6.5947 0.808374L7.88912 3.41587C7.98245 3.60662 8.16387 3.73904 8.37329 3.77112L11.2725 4.19171C11.5175 4.22671 11.7222 4.39587 11.8033 4.62921C11.8797 4.86312 11.8138 5.11979 11.6341 5.28837L9.45245 7.35337Z" fill="#FFC530"/>
</g>
</svg>
